<?xml version="1.0" standalone="no"?>
<!DOCTYPE svg PUBLIC "-//W3C//DTD SVG 1.1//EN" "http://www.w3.org/Graphics/SVG/1.1/DTD/svg11.dtd" >
<svg xmlns="http://www.w3.org/2000/svg" xmlns:xlink="http://www.w3.org/1999/xlink" version="1.1">
<metadata>
Created by FontForge 20160407 at Thu Aug 25 20:31:54 2016
 By Jimmy Warting
Copyright (c) 2012 Bold Monday. All rights reserved. Custom version of Futura commissioned by Wolff Olins for USA Today.
</metadata>
<defs>
<font id="FuturaTodayScreen-Normal" horiz-adv-x="1171" >
  <font-face 
    font-family="Futura Today Screen"
    font-weight="400"
    font-stretch="normal"
    units-per-em="2048"
    panose-1="2 11 5 3 4 0 0 2 0 3"
    ascent="1674"
    descent="-374"
    x-height="1012"
    cap-height="1438"
    bbox="-68 -459 2169 2056"
    underline-thickness="102"
    underline-position="-205"
    unicode-range="U+0020-FB02"
  />
<missing-glyph horiz-adv-x="438" 
d="M106 1516h226v-1885h-226v1885z" />
    <glyph glyph-name=".notdef" horiz-adv-x="438" 
d="M106 1516h226v-1885h-226v1885z" />
    <glyph glyph-name=".null" horiz-adv-x="0" 
 />
    <glyph glyph-name="nonmarkingreturn" horiz-adv-x="438" 
 />
    <glyph glyph-name="space" unicode=" " horiz-adv-x="438" 
 />
    <glyph glyph-name="lslash" unicode="&#x142;" horiz-adv-x="557" 
d="M37 700l145 101v637h193v-504l145 100v-188l-145 -103v-743h-193v610l-145 -102v192z" />
    <glyph glyph-name="Scaron" unicode="&#x160;" horiz-adv-x="1079" 
d="M221 1829l71 78l246 -192l246 192l72 -78l-318 -311zM522 -29q-92 0 -169 22.5t-139 61.5t-110.5 92.5t-83.5 112.5l138 117q26 -43 60 -84t78 -73t99.5 -51t122.5 -19q119 0 200 62t81 181q0 64 -24.5 109t-67.5 77.5t-101.5 58.5t-124.5 52q-67 27 -132.5 59.5
t-116 77.5t-82 106.5t-31.5 147.5t31.5 157t89 121t137.5 78.5t176 28.5q154 0 257 -62.5t165 -154.5l-137 -116q-41 65 -111 110t-174 45q-105 0 -168.5 -50t-63.5 -142q0 -56 25 -94.5t62.5 -66.5t86 -48.5t95.5 -38.5q76 -31 149.5 -65.5t132 -85t94 -121t35.5 -168.5
q0 -95 -33.5 -174.5t-95 -138t-150.5 -91.5t-200 -33z" />
    <glyph glyph-name="scaron" unicode="&#x161;" horiz-adv-x="903" 
d="M144 1423l71 78l246 -192l246 192l72 -78l-318 -311zM442 -25q-76 0 -138 16.5t-111.5 43t-86 61.5t-61.5 70l115 115q43 -56 110.5 -103t169.5 -47q86 0 144.5 38t58.5 112q0 41 -19.5 69.5t-53.5 50t-78 37t-91 31.5q-57 18 -109 42t-93 56.5t-66 77.5t-25 107
q0 65 28 117.5t76 89t113.5 57t143.5 20.5q125 0 210 -45t130 -102l-111 -119q-35 45 -91 78t-138 33q-76 0 -123 -32t-47 -87q0 -35 18.5 -59.5t48 -42t66.5 -31t74 -25.5q57 -18 115.5 -41.5t105.5 -58.5t76.5 -86t29.5 -125q0 -72 -28.5 -131.5t-80.5 -100.5t-124 -63.5
t-158 -22.5z" />
    <glyph glyph-name="Yacute" unicode="&#xdd;" horiz-adv-x="1182" 
d="M485 586l-489 852h227l266 -480q4 -8 20.5 -37.5t34 -63.5t32 -64.5t16.5 -38.5h2q2 8 16.5 38.5t31.5 64.5t33.5 63.5t20.5 37.5l269 480h221l-490 -852v-586h-211v586zM453 1594l226 311l125 -104l-260 -281z" />
    <glyph glyph-name="yacute" unicode="&#xfd;" horiz-adv-x="1001" 
d="M174 -406q-82 0 -139 25v162q49 -27 119 -27q65 0 107 34t73 106l65 153l-411 965h209l235 -594q33 -80 50.5 -128t19.5 -61h4q2 9 9 31.5t17.5 50t21.5 56t19 51.5l236 594h205l-488 -1137q-24 -57 -52 -108.5t-68 -89t-95 -60.5t-137 -23zM363 1188l226 311l125 -104
l-260 -281z" />
    <glyph glyph-name="Thorn" unicode="&#xde;" horiz-adv-x="1102" 
d="M362 1161h211q109 0 199 -31.5t153.5 -89t98.5 -139.5t35 -182q0 -101 -36 -182.5t-99.5 -139t-153.5 -89.5t-197 -32h-211v-276h-202v1438h202v-277zM362 991v-545h191q147 0 223 75t76 198t-76 197.5t-223 74.5h-191z" />
    <glyph glyph-name="thorn" unicode="&#xfe;" horiz-adv-x="1296" 
d="M152 1438h193v-592h4q25 37 58.5 71.5t77.5 61.5t100.5 42t126.5 15q118 0 213.5 -43t162 -115.5t101.5 -168t35 -199.5q0 -96 -30 -191.5t-93.5 -172t-159.5 -124t-227 -47.5q-140 0 -229 57.5t-136 133.5h-4v-547h-193v1819zM1027 506q0 78 -24.5 145.5t-68.5 116.5
t-107.5 77.5t-141.5 28.5t-141.5 -28.5t-107.5 -78.5t-68.5 -117.5t-24.5 -143.5q0 -78 24.5 -145.5t69.5 -116.5t108.5 -78t139.5 -29t139.5 29t108.5 78t69.5 116.5t24.5 145.5z" />
    <glyph glyph-name="Zcaron" unicode="&#x17d;" horiz-adv-x="1176" 
d="M279 1829l71 78l246 -192l246 192l72 -78l-318 -311zM33 0v4l772 1260h-682v174h1016v-4l-773 -1260h756v-174h-1089z" />
    <glyph glyph-name="zcaron" unicode="&#x17e;" horiz-adv-x="1034" 
d="M195 1423l71 78l246 -192l246 192l72 -78l-318 -311zM45 6l594 852h-557v154h870v-8l-589 -850h587v-154h-905v6z" />
    <glyph glyph-name="onehalf" unicode="&#xbd;" horiz-adv-x="1649" 
d="M924 37l319 336q54 58 89.5 113t35.5 115q0 63 -41 101t-108 38q-68 0 -109 -39t-41 -117v-4h-143q0 129 80 210t217 81q61 0 115.5 -17.5t95.5 -51t64.5 -83t23.5 -110.5q0 -78 -37 -146.5t-102 -134.5l-197 -196h362v-131h-624v36zM231 1307h-161l40 131h271v-858h-150
v727zM1060 1438h140l-848 -1438h-139z" />
    <glyph glyph-name="onequarter" unicode="&#xbc;" horiz-adv-x="1591" 
d="M1229 201h-416v86l397 574h168v-539h101v-121h-101v-198h-149v198zM1229 322v369l-252 -369h252zM231 1307h-161l40 131h271v-858h-150v727zM1060 1438h140l-848 -1438h-139z" />
    <glyph glyph-name="onesuperior" unicode="&#xb9;" horiz-adv-x="530" 
d="M231 1307h-161l40 131h271v-858h-150v727z" />
    <glyph glyph-name="threequarters" unicode="&#xbe;" horiz-adv-x="1839" 
d="M1475 201h-416v86l397 574h168v-539h101v-121h-101v-198h-149v198zM1475 322v369l-252 -369h252zM403 563q-135 0 -218 73t-87 204h152q2 -68 41 -110t112 -42q70 0 115 39t45 111q0 65 -43 101t-129 36h-61v115h73q60 0 102 26.5t42 87.5q0 56 -38 88.5t-99 32.5
q-56 0 -95 -29.5t-39 -95.5h-149q4 115 83 182.5t204 67.5q61 0 112 -16.5t88 -48t58.5 -75.5t21.5 -100q0 -73 -34.5 -112t-92.5 -62v-2q60 -18 104 -69.5t44 -137.5q0 -59 -22.5 -107t-64.5 -83t-99.5 -54.5t-125.5 -19.5zM1308 1438h140l-848 -1438h-139z" />
    <glyph glyph-name="threesuperior" unicode="&#xb3;" horiz-adv-x="838" 
d="M403 563q-135 0 -218 73t-87 204h152q2 -68 41 -110t112 -42q70 0 115 39t45 111q0 65 -43 101t-129 36h-61v115h73q60 0 102 26.5t42 87.5q0 56 -38 88.5t-99 32.5q-56 0 -95 -29.5t-39 -95.5h-149q4 115 83 182.5t204 67.5q61 0 112 -16.5t88 -48t58.5 -75.5t21.5 -100
q0 -73 -34.5 -112t-92.5 -62v-2q60 -18 104 -69.5t44 -137.5q0 -59 -22.5 -107t-64.5 -83t-99.5 -54.5t-125.5 -19.5z" />
    <glyph glyph-name="twosuperior" unicode="&#xb2;" horiz-adv-x="807" 
d="M82 616l319 336q54 58 89.5 113t35.5 115q0 63 -41 101t-108 38q-68 0 -109 -39t-41 -117v-4h-143q0 129 80 210t217 81q61 0 115.5 -17.5t95.5 -51t64.5 -83t23.5 -110.5q0 -78 -37 -146.5t-102 -134.5l-197 -196h362v-131h-624v36z" />
    <glyph glyph-name="brokenbar" unicode="&#xa6;" horiz-adv-x="555" 
d="M197 1438h161v-674h-161v674zM197 371h161v-674h-161v674z" />
    <glyph glyph-name="minus" unicode="&#x2212;" horiz-adv-x="1313" 
d="M168 565h977v-151h-977v151z" />
    <glyph glyph-name="multiply" unicode="&#xd7;" horiz-adv-x="1313" 
d="M655 377l-301 -303l-114 112l305 303l-305 304l114 112l301 -303l301 303l115 -112l-305 -304l305 -303l-115 -112z" />
    <glyph glyph-name="Lslash" unicode="&#x141;" horiz-adv-x="889" 
d="M61 684l121 84v670h203v-527l258 181v-193l-258 -180v-545h465v-174h-668v575l-121 -83v192z" />
    <glyph glyph-name="exclam" unicode="!" horiz-adv-x="639" 
d="M223 805v633h195v-633l-52 -412h-92zM319 -16q-59 0 -96 36.5t-37 94.5q0 55 37 93t96 38q60 0 97 -37t37 -94q0 -56 -37 -93.5t-97 -37.5z" />
    <glyph glyph-name="quotedbl" unicode="&#x22;" horiz-adv-x="674" 
d="M387 1438h193l-41 -512h-111zM94 1438h193l-41 -512h-111z" />
    <glyph glyph-name="numbersign" unicode="#" horiz-adv-x="1380" 
d="M373 463h-197v125h221l47 262h-198v125h223l86 463h145l-84 -463h244l86 463h145l-83 -463h196v-125h-221l-47 -262h198v-125h-223l-86 -463h-145l84 463h-244l-86 -463h-145zM788 588l47 262h-243l-47 -262h243z" />
    <glyph glyph-name="dollar" unicode="$" horiz-adv-x="1065" 
d="M492 -27q-86 4 -157.5 28t-130 61.5t-103.5 89t-78 108.5l138 117q49 -82 129 -149.5t202 -77.5v536q-71 29 -137.5 61.5t-118 78.5t-83 107.5t-31.5 147.5q0 78 26.5 143.5t74.5 116t116.5 81t152.5 40.5v211h127v-211q129 -12 216.5 -71.5t142.5 -141.5l-137 -116
q-35 53 -89.5 95t-132.5 54v-444q74 -29 142.5 -65t123 -85t87 -117.5t32.5 -162.5q0 -84 -26.5 -157t-75.5 -129t-120.5 -94t-162.5 -51v-213h-127v209zM619 162q80 22 131.5 80.5t51.5 150.5t-51.5 145.5t-131.5 94.5v-471zM492 1282q-77 -14 -122.5 -62.5t-45.5 -123.5
q0 -41 13.5 -73t37 -56.5t53.5 -44t64 -33.5v393z" />
    <glyph glyph-name="percent" unicode="%" horiz-adv-x="1491" 
d="M401 831q-69 0 -129.5 24t-104.5 65t-69.5 99t-25.5 126q0 69 25.5 126.5t70.5 99.5t105.5 65.5t127.5 23.5q70 0 129.5 -23.5t104.5 -64.5t70.5 -99.5t25.5 -125.5q0 -70 -25.5 -127t-70.5 -99t-105.5 -66t-128.5 -24zM401 961q78 0 131.5 53t53.5 133q0 78 -53.5 131
t-131.5 53t-131 -53t-53 -133q0 -78 53 -131t131 -53zM1083 1438h140l-816 -1438h-139zM1091 -23q-69 0 -129.5 24t-104.5 64.5t-69.5 99t-25.5 126.5q0 69 25.5 126.5t70.5 99.5t105.5 65.5t127.5 23.5q70 0 129.5 -23.5t104.5 -64.5t70.5 -99.5t25.5 -125.5
q0 -70 -25.5 -127t-70.5 -99t-105.5 -66t-128.5 -24zM1091 106q78 0 131.5 53.5t53.5 133.5q0 78 -53.5 131t-131.5 53q-77 0 -130.5 -53t-53.5 -133q0 -78 53.5 -131.5t130.5 -53.5z" />
    <glyph glyph-name="ampersand" unicode="&#x26;" horiz-adv-x="1389" 
d="M543 -23q-101 0 -187 28t-148.5 79t-97 126t-34.5 171q0 84 26.5 148.5t71.5 117.5t104.5 97t124.5 85q-28 35 -57 73t-50.5 78t-34.5 85t-13 96q0 72 27.5 127t74.5 94t110.5 58.5t137.5 19.5q86 0 148.5 -25.5t104.5 -67.5t62.5 -97.5t20.5 -114.5q0 -68 -24.5 -121
t-63.5 -96t-88 -78t-99 -67l351 -400q41 68 60 137.5t19 167.5h175q0 -71 -10.5 -129.5t-29 -109.5t-46 -97.5t-62.5 -91.5l238 -270h-228l-129 152q-86 -82 -202.5 -128.5t-251.5 -46.5zM571 133q103 0 182.5 38t137.5 97l-385 445q-49 -33 -92 -66t-74 -71.5t-49.5 -84
t-18.5 -100.5q0 -119 80 -188.5t219 -69.5zM561 907q39 23 74 48.5t62.5 55t44 64.5t16.5 76q0 66 -43 112t-121 46q-76 0 -118 -44t-42 -110q0 -72 42 -135.5t85 -112.5z" />
    <glyph glyph-name="quotesingle" unicode="'" horiz-adv-x="381" 
d="M94 1438h193l-41 -512h-111z" />
    <glyph glyph-name="parenleft" unicode="(" horiz-adv-x="621" 
d="M442 -330q-141 185 -213.5 410t-72.5 487t72.5 487.5t213.5 409.5l111 -65q-135 -211 -186.5 -417t-51.5 -415t51.5 -414.5t186.5 -416.5l-111 -66v0z" />
    <glyph glyph-name="parenright" unicode=")" horiz-adv-x="621" 
d="M68 -264q136 211 187 416.5t51 414.5t-51 415t-187 417l111 65q141 -184 214 -409.5t73 -487.5t-73 -487t-214 -410l-111 66v0z" />
    <glyph glyph-name="asterisk" unicode="*" horiz-adv-x="829" 
d="M358 1004l-204 -127l-64 110l213 113l-213 112l64 111l204 -127l-6 242h125l-6 -242l205 127l63 -111l-213 -112l213 -113l-63 -110l-205 127l6 -242h-125z" />
    <glyph glyph-name="plus" unicode="+" horiz-adv-x="1313" 
d="M573 414h-405v151h405v412h166v-412h406v-151h-406v-414h-166v414z" />
    <glyph glyph-name="comma" unicode="," horiz-adv-x="477" 
d="M76 -207q41 47 71.5 100.5t36.5 100.5q-30 12 -55 43t-25 78q0 55 38 93t95 38q56 0 95 -37t39 -107q0 -49 -19.5 -101t-51.5 -101.5t-73 -93.5t-82 -74z" />
    <glyph glyph-name="hyphen" unicode="-" horiz-adv-x="666" 
d="M86 752h493v-185h-493v185z" />
    <glyph glyph-name="period" unicode="." horiz-adv-x="479" 
d="M240 -16q-60 0 -97 36.5t-37 94.5q0 55 37 93t97 38q59 0 96 -37t37 -94q0 -56 -37 -93.5t-96 -37.5z" />
    <glyph glyph-name="slash" unicode="/" horiz-adv-x="879" 
d="M649 1438h168l-588 -1438h-170z" />
    <glyph glyph-name="zero" unicode="0" horiz-adv-x="1229" 
d="M614 -27q-137 0 -234 61.5t-158.5 165t-89.5 237.5t-28 282q0 145 29 279.5t90.5 237.5t157.5 165.5t233 62.5q138 0 235 -61.5t158.5 -164.5t89 -237.5t27.5 -281.5q0 -146 -28.5 -280t-90 -237.5t-157.5 -166t-234 -62.5zM614 147q86 0 144.5 46.5t94.5 125t51 182
t15 218.5t-15 218t-51 182t-94.5 125t-144.5 46t-144 -46t-94 -125t-51.5 -182t-15.5 -218t15.5 -218.5t51.5 -182t94 -125t144 -46.5z" />
    <glyph glyph-name="one" unicode="1" horiz-adv-x="641" 
d="M268 1264h-221l49 174h375v-1438h-203v1264z" />
    <glyph glyph-name="two" unicode="2" horiz-adv-x="1096" 
d="M4 6l551 615q47 53 88 104t71.5 102.5t48 102.5t17.5 106q0 115 -74.5 183.5t-197.5 68.5t-198 -71.5t-75 -210.5v-9h-196q0 105 32.5 191t94 147.5t150.5 96t202 34.5q100 0 186 -28.5t148.5 -81.5t97.5 -131t35 -176q0 -142 -70.5 -259.5t-187.5 -244.5l-342 -375h649
v-170h-1030v6z" />
    <glyph glyph-name="three" unicode="3" horiz-adv-x="1106" 
d="M518 -29q-223 0 -350 118t-129 323h196q2 -56 19.5 -106t52.5 -87t87 -58.5t122 -21.5q129 0 211 72t82 203q0 121 -77 198.5t-236 77.5h-62v154h84q53 0 100.5 14t83 44t56 73t20.5 100q0 107 -68.5 166t-179.5 59q-51 0 -95 -13t-76.5 -41.5t-52 -72t-19.5 -102.5h-197
q2 88 34 162t90 125t140 79.5t185 28.5q98 0 179 -26.5t138 -75.5t89 -119.5t32 -159.5q0 -127 -61.5 -202.5t-163.5 -112.5v-2q122 -41 192 -137t70 -232q0 -96 -36 -175t-101.5 -135t-156.5 -87t-202 -31z" />
    <glyph glyph-name="four" unicode="4" horiz-adv-x="1202" 
d="M733 338h-682v102l692 998h189v-932h180v-168h-180v-338h-199v338zM733 506v627l-436 -627h436z" />
    <glyph glyph-name="five" unicode="5" horiz-adv-x="1104" 
d="M520 -31q-98 0 -186 28t-154.5 84t-106.5 143t-40 204h196q0 -131 73 -210t206 -79q145 0 222 92.5t77 233.5q0 149 -86 235t-258 86q-92 0 -167 -20.5t-114 -40.5l-22 18l135 695h657v-170h-508l-67 -350q37 14 81 19t83 5q100 0 186 -30.5t149.5 -91t99.5 -148.5
t36 -203q0 -102 -31 -193.5t-92.5 -159t-153.5 -107.5t-215 -40z" />
    <glyph glyph-name="six" unicode="6" horiz-adv-x="1145" 
d="M571 -29q-116 0 -211.5 39t-161 105.5t-101.5 155.5t-36 188q0 110 39 204.5t88 165.5l420 609h242l-389 -543q20 14 60 30.5t110 16.5q92 0 174 -36t143.5 -99.5t97 -151.5t35.5 -192q0 -103 -35.5 -192t-101.5 -155.5t-161 -105.5t-212 -39zM571 139q74 0 132.5 25.5
t98.5 70t61.5 103.5t21.5 125q0 65 -21.5 124.5t-61.5 103.5t-98.5 69.5t-132.5 25.5q-73 0 -131.5 -25.5t-98.5 -69.5t-61.5 -103.5t-21.5 -124.5q0 -66 21.5 -125t61.5 -103.5t98.5 -70t131.5 -25.5z" />
    <glyph glyph-name="seven" unicode="7" horiz-adv-x="1110" 
d="M782 1268h-717v170h1029v-4l-809 -1434h-232z" />
    <glyph glyph-name="eight" unicode="8" horiz-adv-x="1110" 
d="M556 -20q-111 0 -201 31.5t-153.5 88t-98.5 133t-35 168.5q0 142 75 236t190 135v4q-92 41 -148.5 120t-56.5 191q0 82 29.5 150t86 117t135.5 75.5t177 26.5t177 -26.5t135.5 -75.5t86 -117t29.5 -150q0 -112 -56.5 -191t-148.5 -120v-4q115 -41 189.5 -135t74.5 -236
q0 -92 -34.5 -168.5t-98 -133t-153.5 -88t-201 -31.5zM556 139q129 0 210 77t81 200q0 61 -21.5 112.5t-60.5 87t-92.5 56t-116.5 20.5q-64 0 -117 -20.5t-92 -56t-60.5 -87t-21.5 -112.5q0 -123 81 -200t210 -77zM556 848q106 0 173 63.5t67 161.5t-67 161.5t-173 63.5
q-107 0 -173.5 -63.5t-66.5 -161.5t66.5 -161.5t173.5 -63.5z" />
    <glyph glyph-name="nine" unicode="9" horiz-adv-x="1145" 
d="M682 543q-21 -15 -60.5 -31t-109.5 -16q-92 0 -174 35.5t-143.5 99t-97.5 151.5t-36 193q0 100 36 190t101.5 157t161 105.5t211.5 38.5q117 0 212 -38.5t161 -105.5t101.5 -156t35.5 -187q0 -111 -39 -205t-88 -166l-420 -608h-241zM571 651q74 0 132.5 25.5t98.5 70
t61.5 103.5t21.5 125q0 65 -21.5 124.5t-61.5 103.5t-98.5 69.5t-132.5 25.5q-73 0 -131.5 -25.5t-98.5 -69.5t-61.5 -103.5t-21.5 -124.5q0 -66 21.5 -125t61.5 -103.5t98.5 -70t131.5 -25.5z" />
    <glyph glyph-name="colon" unicode=":" horiz-adv-x="479" 
d="M240 -16q-60 0 -97 36.5t-37 94.5q0 55 37 93t97 38q59 0 96 -37t37 -94q0 -56 -37 -93.5t-96 -37.5zM240 764q-60 0 -97 36.5t-37 94.5q0 55 37 93t97 38q59 0 96 -37t37 -94q0 -56 -37 -93.5t-96 -37.5z" />
    <glyph glyph-name="semicolon" unicode=";" horiz-adv-x="479" 
d="M76 -207q41 47 71.5 100.5t36.5 100.5q-30 12 -55 43t-25 78q0 55 38 93t95 38q56 0 95 -37t39 -107q0 -49 -19.5 -101t-51.5 -101.5t-73 -93.5t-82 -74zM240 764q-60 0 -97 36.5t-37 94.5q0 55 37 93t97 38q59 0 96 -37t37 -94q0 -56 -37 -93.5t-96 -37.5z" />
    <glyph glyph-name="less" unicode="&#x3c;" horiz-adv-x="1313" 
d="M221 414v149l873 395v-167l-678 -304l678 -301v-170z" />
    <glyph glyph-name="equal" unicode="=" horiz-adv-x="1313" 
d="M201 371h909v-152h-909v152zM201 760h909v-152h-909v152z" />
    <glyph glyph-name="greater" unicode="&#x3e;" horiz-adv-x="1313" 
d="M1094 561v-149l-873 -396v168l678 303l-678 301v170z" />
    <glyph glyph-name="question" unicode="?" horiz-adv-x="1042" 
d="M399 741h39q88 0 150.5 25t101.5 64.5t56.5 92t17.5 107.5q0 64 -19.5 115t-55.5 88t-83 56.5t-102 19.5q-58 0 -106 -20.5t-84 -56.5t-55 -84t-19 -106h-191q0 93 35 170.5t97.5 134t147.5 88t183 31.5t180 -31.5t140.5 -88t90 -134t31.5 -170.5q0 -88 -27.5 -160.5
t-77.5 -128t-119 -90t-148 -47.5l-27 -223h-125zM498 -16q-60 0 -97 36.5t-37 94.5q0 55 37 93t97 38q59 0 96 -37t37 -94q0 -56 -37 -93.5t-96 -37.5z" />
    <glyph glyph-name="at" unicode="@" horiz-adv-x="1694" 
d="M743 106q-137 0 -210.5 92.5t-73.5 237.5q0 88 27.5 172t78.5 150.5t125 106.5t164 40q98 0 148.5 -44t72.5 -109h2l27 120h121l-76 -370q-6 -35 -14.5 -80t-8.5 -86q0 -53 21.5 -86t85.5 -33q57 0 103 28.5t78 80t48.5 121t16.5 149.5q0 137 -47.5 241.5t-128 175
t-189.5 107.5t-233 37q-140 0 -259.5 -45t-209 -130t-139.5 -209t-50 -279q0 -160 51.5 -280t141.5 -200t211.5 -120.5t261.5 -40.5q133 0 240.5 32.5t193.5 89.5l61 -86q-92 -69 -225 -108t-281 -39q-157 0 -299.5 48t-250 142.5t-171 234.5t-63.5 325q0 188 64.5 332.5
t174 242.5t251 148.5t294.5 50.5q138 0 268 -41t231.5 -124t161.5 -207t60 -290q0 -121 -31.5 -214t-85 -156.5t-123 -95.5t-143.5 -32q-55 0 -91 15.5t-57.5 40t-31.5 53.5t-12 55h-2q-10 -22 -32.5 -51t-57.5 -53.5t-82 -42t-107 -17.5zM770 223q61 0 110.5 30t82 79
t50 111.5t17.5 127.5q0 37 -7 75t-25.5 70t-52.5 52t-87 20q-61 0 -110.5 -30.5t-82 -79.5t-50 -111.5t-17.5 -126.5q0 -37 7 -74.5t26.5 -69.5t52.5 -52.5t86 -20.5z" />
    <glyph glyph-name="A" unicode="A" horiz-adv-x="1352" 
d="M-6 0q145 356 268 653q51 127 103.5 253t96.5 233.5t76.5 186.5t47.5 112h180l590 -1438h-217l-148 377h-637l-147 -377h-213zM924 547l-138 354q-8 21 -25.5 66t-36 93t-33.5 88t-15 46h-4q0 -6 -14.5 -45t-33 -86t-37 -93t-26.5 -69l-139 -354h502z" />
    <glyph glyph-name="B" unicode="B" 
d="M160 1438h399q211 0 336 -90.5t125 -274.5q0 -119 -55.5 -192.5t-151.5 -106.5v-2q63 -16 117.5 -45t93.5 -73t60.5 -104.5t21.5 -139.5q0 -101 -36 -177.5t-100.5 -128t-157.5 -78t-206 -26.5h-446v1438zM362 160h228q151 0 232 68.5t81 193.5q0 127 -83 193.5
t-230 66.5h-228v-522zM362 834h191q127 0 195.5 57t68.5 164q0 108 -68.5 165.5t-195.5 57.5h-191v-444z" />
    <glyph glyph-name="C" unicode="C" horiz-adv-x="1358" 
d="M823 -29q-166 0 -303 56.5t-235.5 156t-153.5 236.5t-55 299t55 298t154.5 236.5t236.5 156.5t303 56q129 0 230.5 -30.5t179.5 -83.5v-213q-72 67 -170 106t-232 39q-120 0 -221.5 -42t-174.5 -116.5t-113.5 -179t-40.5 -227.5t39.5 -227.5t112.5 -179t174.5 -116.5
t223.5 -42q134 0 240.5 39.5t179.5 113.5v-211q-78 -57 -186.5 -91t-243.5 -34z" />
    <glyph glyph-name="D" unicode="D" horiz-adv-x="1405" 
d="M160 1438h407q172 0 312.5 -48.5t241 -140.5t154.5 -225t54 -305q0 -170 -55.5 -304t-154.5 -226.5t-239.5 -140.5t-312.5 -48h-407v1438zM362 174h189q125 0 230.5 34t180 101.5t116.5 170t42 239.5t-42 239.5t-116.5 170t-180 101.5t-230.5 34h-189v-1090z" />
    <glyph glyph-name="E" unicode="E" horiz-adv-x="1049" 
d="M160 1438h782v-172h-580v-418h564v-172h-564v-504h592v-172h-794v1438z" />
    <glyph glyph-name="F" unicode="F" horiz-adv-x="942" 
d="M160 1438h725v-174h-523v-463h506v-174h-506v-627h-202v1438z" />
    <glyph glyph-name="G" unicode="G" horiz-adv-x="1636" 
d="M831 -29q-165 0 -303.5 56.5t-239 156t-156.5 236.5t-56 299t56 298t156.5 236.5t240 156.5t302.5 56q119 0 217.5 -25.5t177 -70.5t140 -104.5t104.5 -126.5l-159 -119q-66 113 -183.5 189.5t-296.5 76.5q-120 0 -220.5 -41t-174.5 -115.5t-115 -179t-41 -231.5
t41 -231.5t115 -179.5t174.5 -115.5t220.5 -40.5q113 0 203 34.5t155.5 94t105.5 138.5t50 167h-479v168h692v-31q0 -154 -49 -291t-142 -239.5t-228.5 -162t-307.5 -59.5z" />
    <glyph glyph-name="H" unicode="H" horiz-adv-x="1479" 
d="M160 1438h202v-590h754v590h203v-1438h-203v674h-754v-674h-202v1438z" />
    <glyph glyph-name="I" unicode="I" horiz-adv-x="522" 
d="M160 1438h202v-1438h-202v1438z" />
    <glyph glyph-name="J" unicode="J" horiz-adv-x="829" 
d="M330 -29q-121 0 -204 52.5t-124 123.5l129 117q29 -47 71 -79.5t109 -32.5q86 0 124 53t38 143v1090h203v-1116q0 -170 -94.5 -260.5t-251.5 -90.5z" />
    <glyph glyph-name="K" unicode="K" horiz-adv-x="1219" 
d="M160 1438h202v-668l594 668h246l-616 -686l645 -752h-254l-615 727v-727h-202v1438z" />
    <glyph glyph-name="L" unicode="L" horiz-adv-x="864" 
d="M160 1438h202v-1264h465v-174h-667v1438z" />
    <glyph glyph-name="M" unicode="M" horiz-adv-x="1829" 
d="M276 1438h181l389 -930q4 -10 14 -38t21.5 -58.5t20.5 -60t13 -46.5h2q2 17 12.5 46.5t21.5 60t21.5 58.5t14.5 38l389 930h176l199 -1438h-199l-104 817q-2 12 -6 45t-9.5 71t-9.5 72.5t-4 47.5h-2q-2 -9 -12 -38.5t-23.5 -64.5t-26 -67.5t-18.5 -44.5l-352 -838h-141
l-351 838q-6 14 -18 45.5t-26.5 66.5t-24.5 64.5t-12 38.5h-2q0 -13 -4.5 -47.5t-9.5 -72.5t-9 -71t-6 -45l-105 -817h-198z" />
    <glyph glyph-name="N" unicode="N" horiz-adv-x="1626" 
d="M160 1438h155l815 -932q9 -10 31.5 -37t45 -55.5t42 -54t23.5 -33.5l4 2q-2 8 -3 38.5t-1 66.5v70v48v887h196v-1438h-157l-815 932q-11 10 -32.5 36.5t-44 55.5t-42 54.5t-23.5 33.5l-2 -2q0 -8 1 -39t2 -66.5t1 -69.5v-48v-887h-196v1438z" />
    <glyph glyph-name="O" unicode="O" horiz-adv-x="1663" 
d="M831 -29q-174 0 -313 60.5t-237.5 163t-151.5 237.5t-53 287q0 151 53 286.5t151.5 238t237.5 162.5t313 60t313.5 -60t238 -162.5t151.5 -238t53 -286.5q0 -152 -53 -287t-151.5 -237.5t-238 -163t-313.5 -60.5zM829 154q119 0 219.5 41t174 115.5t114.5 179t41 229.5
t-41 229.5t-114.5 179t-174 115.5t-219.5 41q-116 0 -216.5 -41t-174.5 -115.5t-114.5 -179t-40.5 -229.5t40.5 -229.5t114.5 -179t174.5 -115.5t216.5 -41z" />
    <glyph glyph-name="P" unicode="P" horiz-adv-x="1102" 
d="M160 1438h413q109 0 199 -32t153.5 -89t98.5 -139t35 -183q0 -100 -36 -182t-99.5 -139.5t-153.5 -89t-197 -31.5h-211v-553h-202v1438zM553 723q147 0 223 74.5t76 197.5t-76 198t-223 75h-191v-545h191z" />
    <glyph glyph-name="Q" unicode="Q" horiz-adv-x="1663" 
d="M1192 53q-160 -82 -363 -82q-174 0 -313 60.5t-237.5 163t-150.5 237.5t-52 287q0 151 52 286.5t150.5 238t237.5 162.5t313 60t313.5 -60t238 -162.5t151.5 -238t53 -286.5q0 -166 -62.5 -311.5t-179.5 -249.5l205 -258h-233zM829 154q136 0 246 53l-170 213h236
l86 -105q71 76 110 178.5t39 225.5q0 125 -41 229.5t-113.5 179t-173 115.5t-219.5 41q-118 0 -218.5 -41t-173.5 -115.5t-113.5 -179t-40.5 -229.5t40.5 -229.5t113.5 -179t173.5 -115.5t218.5 -41z" />
    <glyph glyph-name="R" unicode="R" horiz-adv-x="1151" 
d="M160 1438h415q101 0 188 -27t151.5 -79t101.5 -133t37 -187q0 -168 -100.5 -273.5t-264.5 -132.5l440 -606h-237l-416 586h-113v-586h-202v1438zM553 752q141 0 218 69.5t77 188.5q0 118 -77 188t-218 70h-191v-516h191z" />
    <glyph glyph-name="S" unicode="S" horiz-adv-x="1079" 
d="M522 -29q-92 0 -169 22.5t-139 61.5t-110.5 92.5t-83.5 112.5l138 117q26 -43 60 -84t78 -73t99.5 -51t122.5 -19q119 0 200 62t81 181q0 64 -24.5 109t-67.5 77.5t-101.5 58.5t-124.5 52q-67 27 -132.5 59.5t-116 77.5t-82 106.5t-31.5 147.5t31.5 157t89 121
t137.5 78.5t176 28.5q154 0 257 -62.5t165 -154.5l-137 -116q-41 65 -111 110t-174 45q-105 0 -168.5 -50t-63.5 -142q0 -56 25 -94.5t62.5 -66.5t86 -48.5t95.5 -38.5q76 -31 149.5 -65.5t132 -85t94 -121t35.5 -168.5q0 -95 -33.5 -174.5t-95 -138t-150.5 -91.5t-200 -33z
" />
    <glyph glyph-name="T" unicode="T" horiz-adv-x="1042" 
d="M420 1264h-410v174h1022v-174h-410v-1264h-202v1264z" />
    <glyph glyph-name="U" unicode="U" horiz-adv-x="1395" 
d="M696 -29q-133 0 -235.5 38t-172 106.5t-106.5 165t-37 215.5v942h205v-881q0 -188 83 -295.5t263 -107.5q182 0 265 107.5t83 295.5v881h205v-942q0 -119 -37 -215.5t-107.5 -165t-174 -106.5t-234.5 -38z" />
    <glyph glyph-name="V" unicode="V" horiz-adv-x="1335" 
d="M-6 1438h219l354 -865q4 -10 20.5 -53t34 -93t33 -93t15.5 -51h2q2 8 16 51t32.5 93t34 93t19.5 53l356 865h211l-600 -1438h-147z" />
    <glyph glyph-name="W" unicode="W" horiz-adv-x="2140" 
d="M4 1438h215l295 -854q4 -13 17.5 -54t26.5 -87t25.5 -86t12.5 -52h4q0 12 12.5 52t26.5 86t28.5 87t18.5 54l307 854h162l307 -854q4 -13 18.5 -54t29 -87t26.5 -86t12 -52h4q2 12 13.5 52t26 86t27.5 87t17 54l293 854h207l-506 -1438h-156l-331 897q-4 12 -15.5 45
t-22.5 71t-21.5 71.5t-10.5 45.5h-4q0 -12 -10.5 -45.5t-22.5 -71.5t-23.5 -71t-15.5 -45l-329 -897h-156z" />
    <glyph glyph-name="X" unicode="X" horiz-adv-x="1214" 
d="M493 754l-426 684h234l311 -520l305 520h228l-426 -690l475 -748h-234l-358 588l-354 -588h-230z" />
    <glyph glyph-name="Y" unicode="Y" horiz-adv-x="1182" 
d="M485 586l-489 852h227l266 -480q4 -8 20.5 -37.5t34 -63.5t32 -64.5t16.5 -38.5h2q2 8 16.5 38.5t31.5 64.5t33.5 63.5t20.5 37.5l269 480h221l-490 -852v-586h-211v586z" />
    <glyph glyph-name="Z" unicode="Z" horiz-adv-x="1176" 
d="M33 0v4l772 1260h-682v174h1016v-4l-773 -1260h756v-174h-1089z" />
    <glyph glyph-name="bracketleft" unicode="[" horiz-adv-x="688" 
d="M197 1438h401v-127h-246v-1487h246v-127h-401v1741z" />
    <glyph glyph-name="backslash" unicode="\" horiz-adv-x="879" 
d="M59 1438h168l590 -1438h-170z" />
    <glyph glyph-name="bracketright" unicode="]" horiz-adv-x="688" 
d="M90 -176h246v1487h-246v127h401v-1741h-401v127z" />
    <glyph glyph-name="asciicircum" unicode="^" horiz-adv-x="1208" 
d="M520 1438h168l373 -801h-183l-274 606l-274 -606h-183z" />
    <glyph glyph-name="underscore" unicode="_" horiz-adv-x="975" 
d="M51 0h873v-152h-873v152z" />
    <glyph glyph-name="grave" unicode="`" horiz-adv-x="584" 
d="M84 1395l125 104l225 -311l-90 -74z" />
    <glyph glyph-name="a" unicode="a" horiz-adv-x="1296" 
d="M584 -25q-131 0 -227.5 47.5t-159 124t-93 172t-30.5 191.5q0 104 34.5 199.5t100 168t160 115.5t215.5 43q135 0 227 -56t145 -142h4v174h185v-1012h-185v174h-4q-53 -86 -145 -142.5t-227 -56.5zM610 137q76 0 139.5 29t108.5 78t69.5 116.5t24.5 145.5
q0 76 -24.5 143.5t-68.5 117.5t-107.5 78.5t-141.5 28.5t-140.5 -28.5t-106.5 -77.5t-68.5 -116.5t-24.5 -145.5t24.5 -145.5t70 -116.5t107.5 -78t138 -29z" />
    <glyph glyph-name="b" unicode="b" horiz-adv-x="1296" 
d="M714 -25q-136 0 -228 56.5t-145 142.5h-4v-174h-185v1438h193v-592h4q25 37 58.5 71.5t77.5 61.5t100.5 42t126.5 15q118 0 213.5 -43t162 -115.5t101.5 -168t35 -199.5q0 -96 -31 -191.5t-93.5 -172t-158.5 -124t-227 -47.5zM685 137q76 0 139.5 29t108.5 78t69.5 116.5
t24.5 145.5t-24.5 145.5t-68.5 116.5t-107.5 77.5t-141.5 28.5t-141.5 -28.5t-107.5 -78.5t-68.5 -117.5t-24.5 -143.5q0 -78 24.5 -145.5t69.5 -116.5t108.5 -78t139.5 -29z" />
    <glyph glyph-name="c" unicode="c" horiz-adv-x="942" 
d="M612 -25q-131 0 -231.5 46.5t-169 120t-103 169t-34.5 193.5t34.5 194.5t103 171t170 120.5t232.5 46q76 0 138.5 -14t99.5 -37v-184q-39 30 -98.5 49.5t-131.5 19.5q-75 0 -139.5 -26.5t-113 -74.5t-75 -114.5t-26.5 -148.5q0 -80 26.5 -146.5t74 -115.5t113 -76
t143.5 -27q71 0 130.5 19.5t102.5 54.5v-184q-41 -23 -104.5 -39.5t-141.5 -16.5z" />
    <glyph glyph-name="d" unicode="d" horiz-adv-x="1296" 
d="M584 -25q-131 0 -227.5 47.5t-159 124t-93 172t-30.5 191.5q0 104 34.5 199.5t101 168t161 115.5t213.5 43q139 0 227 -57t135 -133h4v592h195v-1438h-185v174h-4q-53 -86 -145 -142.5t-227 -56.5zM610 137q76 0 139.5 29t108.5 78t69.5 116.5t24.5 145.5
q0 76 -24.5 143.5t-68.5 117.5t-107.5 78.5t-141.5 28.5t-140.5 -28.5t-106.5 -77.5t-68.5 -116.5t-24.5 -145.5t24.5 -145.5t70 -116.5t107.5 -78t138 -29z" />
    <glyph glyph-name="e" unicode="e" 
d="M606 -25q-135 0 -235.5 46.5t-166 122t-98 170t-32.5 192.5q0 92 28.5 186t91 171t161 125t235.5 48t233 -47t157.5 -122.5t89.5 -168t28 -182.5v-20.5t-2 -26.5h-832q2 -74 27.5 -136.5t72 -106.5t111 -69.5t141.5 -25.5q111 0 193 49t129 135l139 -88
q-74 -129 -197.5 -190.5t-273.5 -61.5zM907 608q-22 129 -109 205t-208 76q-127 0 -212 -78t-108 -203h637z" />
    <glyph glyph-name="f" unicode="f" horiz-adv-x="676" 
d="M197 858h-144v154h144v96q0 164 83.5 259t245.5 95q41 0 80 -5t62 -13v-164q-19 10 -44.5 16.5t-58.5 6.5q-80 0 -127 -46.5t-47 -154.5v-90h277v-154h-277v-858h-194v858z" />
    <glyph glyph-name="g" unicode="g" horiz-adv-x="1286" 
d="M600 -406q-152 0 -272.5 45.5t-186.5 131.5l121 114q53 -69 138 -101t188 -32q67 0 130.5 16.5t113 54.5t79 98.5t29.5 150.5v102h-4q-51 -78 -140.5 -133t-226.5 -55q-123 0 -216 44t-155.5 117.5t-93 168t-30.5 194.5t31.5 195.5t94 169t155.5 117.5t216 44
q135 0 228.5 -56t146.5 -146h4v178h184v-916q0 -235 -135 -368.5t-399 -133.5zM606 150q74 0 136.5 27.5t107.5 75.5t69.5 114.5t24.5 144.5t-24.5 144.5t-69.5 114.5t-107.5 75.5t-136.5 27.5t-135 -27.5t-106.5 -75.5t-70 -114.5t-24.5 -144.5t24.5 -144.5t70 -114.5
t106.5 -75.5t135 -27.5z" />
    <glyph glyph-name="h" unicode="h" horiz-adv-x="1188" 
d="M152 1438h193v-561h4q47 65 121 112t197 47q184 0 286.5 -109.5t102.5 -310.5v-616h-195v582q0 143 -60.5 219t-183.5 76q-129 0 -200.5 -79t-71.5 -223v-575h-193v1438z" />
    <glyph glyph-name="i" unicode="i" horiz-adv-x="496" 
d="M248 1157q-54 0 -88.5 33t-34.5 86q0 51 34.5 85t88.5 34q53 0 88 -34t35 -85q0 -53 -35 -86t-88 -33zM151 1012h193v-1012h-193v1012z" />
    <glyph glyph-name="j" unicode="j" horiz-adv-x="496" 
d="M92 -406q-74 0 -123 17v158q19 -7 39.5 -11t44.5 -4q51 0 74.5 34t23.5 93v1131h193v-1153q0 -117 -58.5 -191t-193.5 -74zM248 1157q-54 0 -88.5 33t-34.5 86q0 51 34.5 85t88.5 34q53 0 88 -34t35 -85q0 -53 -35 -86t-88 -33z" />
    <glyph glyph-name="k" unicode="k" horiz-adv-x="1049" 
d="M152 1438h193v-852l434 426h236l-478 -463l512 -549h-241l-463 512v-512h-193v1438z" />
    <glyph glyph-name="l" unicode="l" horiz-adv-x="496" 
d="M152 1438h193v-1438h-193v1438z" />
    <glyph glyph-name="m" unicode="m" horiz-adv-x="1847" 
d="M152 1012h185v-135h4q47 65 117.5 112t193.5 47q242 0 332 -194q47 82 130 138t222 56q180 0 279.5 -109.5t99.5 -310.5v-616h-192v582q0 143 -57.5 219t-176.5 76q-121 0 -189.5 -79t-68.5 -223v-575h-195v582q0 143 -56 219t-175 76q-121 0 -189.5 -79t-68.5 -223v-575
h-195v1012z" />
    <glyph glyph-name="n" unicode="n" horiz-adv-x="1188" 
d="M152 1012h185v-135h4q45 65 122 112t199 47q189 0 291.5 -109.5t102.5 -310.5v-616h-195v582q0 143 -60.5 219t-183.5 76q-129 0 -200.5 -79t-71.5 -223v-575h-193v1012z" />
    <glyph glyph-name="o" unicode="o" horiz-adv-x="1229" 
d="M614 -25q-133 0 -234.5 47.5t-169 122t-102 170t-34.5 191.5t34.5 191.5t102 170t169 121.5t234.5 47t234.5 -47t169 -121.5t102.5 -170t35 -191.5t-35 -191.5t-102.5 -170t-169 -122t-234.5 -47.5zM614 139q74 0 137.5 27t109.5 76t72.5 116.5t26.5 147.5t-26.5 147.5
t-72.5 116.5t-109.5 75.5t-137.5 26.5q-73 0 -136.5 -26.5t-110 -75.5t-73 -116.5t-26.5 -147.5t26.5 -147.5t73 -116.5t110 -76t136.5 -27z" />
    <glyph glyph-name="p" unicode="p" horiz-adv-x="1296" 
d="M152 1012h185v-174h4q53 86 144 142t227 56q118 0 213.5 -43t162 -115.5t101.5 -168t35 -199.5q0 -96 -30 -191.5t-93.5 -172t-159.5 -124t-227 -47.5q-140 0 -229 57.5t-136 133.5h-4v-547h-193v1393zM685 137q76 0 139.5 29t108.5 78t69.5 116.5t24.5 145.5
q0 76 -24.5 143.5t-68.5 117.5t-107.5 78.5t-141.5 28.5t-141.5 -28.5t-107.5 -78.5t-68.5 -117.5t-24.5 -143.5q0 -78 24.5 -145.5t69.5 -116.5t108.5 -78t139.5 -29z" />
    <glyph glyph-name="q" unicode="q" horiz-adv-x="1296" 
d="M950 166h-4q-47 -76 -135 -133.5t-227 -57.5q-134 0 -229 47.5t-158.5 124t-93 172t-29.5 191.5q0 104 34.5 199.5t101 168t161 115.5t213.5 43q135 0 227 -56t145 -142h4v174h185v-1393h-195v547zM610 137q76 0 139.5 29t108.5 78t69.5 116.5t24.5 145.5
q0 76 -24.5 143.5t-68.5 117.5t-107.5 78.5t-141.5 28.5t-140.5 -28.5t-106.5 -78.5t-68.5 -117.5t-24.5 -143.5q0 -78 24.5 -145.5t70 -116.5t107.5 -78t138 -29z" />
    <glyph glyph-name="r" unicode="r" horiz-adv-x="760" 
d="M152 1012h185v-148h4q41 84 107.5 128t166.5 44q29 0 56.5 -4t52.5 -10v-182q-25 10 -59.5 16t-69.5 6q-123 0 -186.5 -86t-63.5 -239v-537h-193v1012z" />
    <glyph glyph-name="s" unicode="s" horiz-adv-x="903" 
d="M442 -25q-76 0 -138 16.5t-111.5 43t-86 61.5t-61.5 70l115 115q43 -56 110.5 -103t169.5 -47q86 0 144.5 38t58.5 112q0 41 -19.5 69.5t-53.5 50t-78 37t-91 31.5q-57 18 -109 42t-93 56.5t-66 77.5t-25 107q0 65 28 117.5t76 89t113.5 57t143.5 20.5q125 0 210 -45
t130 -102l-111 -119q-35 45 -91 78t-138 33q-76 0 -123 -32t-47 -87q0 -35 18.5 -59.5t48 -42t66.5 -31t74 -25.5q57 -18 115.5 -41.5t105.5 -58.5t76.5 -86t29.5 -125q0 -72 -28.5 -131.5t-80.5 -100.5t-124 -63.5t-158 -22.5z" />
    <glyph glyph-name="t" unicode="t" horiz-adv-x="670" 
d="M453 -18q-144 0 -208.5 73.5t-64.5 220.5v582h-143v154h143v274h195v-274h239v-154h-239v-561q0 -82 28.5 -119t89.5 -37q72 0 109 19v-160q-27 -8 -63.5 -13t-85.5 -5z" />
    <glyph glyph-name="u" unicode="u" 
d="M518 -25q-188 0 -286.5 111t-98.5 309v617h193v-582q0 -295 237 -295q127 0 194.5 79t67.5 222v576h195v-1012h-187v135h-4q-43 -65 -114.5 -112.5t-196.5 -47.5z" />
    <glyph glyph-name="v" unicode="v" horiz-adv-x="1001" 
d="M-12 1012h209l237 -557q8 -19 19.5 -49.5t21.5 -60.5t18.5 -52.5t8.5 -26.5h4q0 4 7 25.5t17.5 51.5t20.5 59.5t20 52.5l238 557h205l-449 -1012h-131z" />
    <glyph glyph-name="w" unicode="w" horiz-adv-x="1604" 
d="M14 1012h201l192 -582q5 -12 13 -41t17 -60.5t16.5 -60t9.5 -37.5h4q0 9 8 37.5t17.5 60t17.5 59.5t12 38l197 586h168l198 -586q4 -14 13.5 -43t18.5 -59.5t16.5 -57t7.5 -35.5h4q0 9 7 35.5t16.5 58t17.5 60.5t14 45l193 582h196l-360 -1012h-168l-205 594
q-6 18 -15.5 47t-17.5 58.5t-14 53t-6 31.5h-4q0 -8 -6.5 -31.5t-13.5 -52t-16 -58.5t-16 -48l-204 -594h-170z" />
    <glyph glyph-name="x" unicode="x" horiz-adv-x="1108" 
d="M440 518l-381 494h228l268 -361l272 361h221l-382 -494l403 -518h-225l-293 387l-293 -387h-219z" />
    <glyph glyph-name="y" unicode="y" horiz-adv-x="1001" 
d="M174 -406q-82 0 -139 25v162q49 -27 119 -27q65 0 107 34t73 106l65 153l-411 965h209l235 -594q33 -80 50.5 -128t19.5 -61h4q2 9 9 31.5t17.5 50t21.5 56t19 51.5l236 594h205l-488 -1137q-24 -57 -52 -108.5t-68 -89t-95 -60.5t-137 -23z" />
    <glyph glyph-name="z" unicode="z" horiz-adv-x="1018" 
d="M45 6l594 852h-557v154h870v-8l-589 -850h587v-154h-905v6z" />
    <glyph glyph-name="braceleft" unicode="{" horiz-adv-x="754" 
d="M663 1311h-86q-71 0 -109 -34t-38 -118v-340q0 -117 -40 -175t-116 -77q74 -18 115 -73.5t41 -169.5v-349q0 -84 38 -117.5t109 -33.5h86v-127h-116q-68 0 -118 12t-85 41t-52.5 78t-17.5 121v340q0 119 -38.5 167t-118.5 48h-56v127h56q80 0 118.5 49t38.5 168v338
q0 145 70 198.5t203 53.5h116v-127z" />
    <glyph glyph-name="bar" unicode="|" horiz-adv-x="778" 
d="M322 1438h136v-1741h-136v1741z" />
    <glyph glyph-name="braceright" unicode="}" horiz-adv-x="754" 
d="M90 -176h86q72 0 109.5 33.5t37.5 117.5v349q0 114 41 169.5t115 73.5q-76 19 -116 77t-40 175v340q0 84 -37.5 118t-109.5 34h-86v127h117q133 0 202.5 -53.5t69.5 -198.5v-338q0 -119 39 -168t119 -49h55v-127h-55q-80 0 -119 -48t-39 -167v-340q0 -72 -17.5 -121
t-52 -78t-85 -41t-117.5 -12h-117v127z" />
    <glyph glyph-name="asciitilde" unicode="~" horiz-adv-x="1354" 
d="M909 551q127 0 127 131h146v-29q0 -71 -22.5 -120.5t-59.5 -80t-84 -45t-97 -14.5q-63 0 -125.5 21.5t-122 47t-116.5 47t-111 21.5q-127 0 -127 -131h-145v29q0 72 22.5 121t59.5 79.5t84 45t96 14.5q64 0 126 -21.5t121.5 -47t117 -47t110.5 -21.5z" />
    <glyph glyph-name="Adieresis" unicode="&#xc4;" horiz-adv-x="1352" 
d="M-6 0q145 356 268 653q51 127 103.5 253t96.5 233.5t76.5 186.5t47.5 112h180l590 -1438h-217l-148 377h-637l-147 -377h-213zM924 547l-138 354q-8 21 -25.5 66t-36 93t-33.5 88t-15 46h-4q0 -6 -14.5 -45t-33 -86t-37 -93t-26.5 -69l-139 -354h502zM492 1559
q-47 0 -79 32t-32 79t32 77.5t79 30.5q49 0 80.5 -30.5t31.5 -77.5t-31.5 -79t-80.5 -32zM856 1559q-49 0 -80.5 32t-31.5 79t31.5 77.5t80.5 30.5q47 0 79 -30.5t32 -77.5t-32 -79t-79 -32z" />
    <glyph glyph-name="Aring" unicode="&#xc5;" horiz-adv-x="1352" 
d="M-6 0q123 295 231 557q45 113 93 228.5t92.5 223t82 198.5t62.5 153q-57 29 -92 80t-35 123q0 51 19.5 94t53 73.5t79 47t96.5 16.5t96 -16.5t79 -47t53.5 -73.5t19.5 -94q0 -70 -35 -122t-92 -81l559 -1360h-217l-148 377h-637l-147 -377h-213zM924 547l-138 354
q-8 21 -25.5 66t-36 93t-33.5 88t-15 46h-4q0 -6 -14.5 -45t-33 -86t-37 -93t-26.5 -69l-139 -354h502zM676 1436q53 0 89 36.5t36 90.5q0 53 -36 90t-89 37q-54 0 -89.5 -37t-35.5 -90q0 -54 35.5 -90.5t89.5 -36.5z" />
    <glyph glyph-name="Ccedilla" unicode="&#xc7;" horiz-adv-x="1358" 
d="M823 -29q-166 0 -303 56.5t-235.5 156t-153.5 236.5t-55 299t55 298t154.5 236.5t236.5 156.5t303 56q129 0 230.5 -30.5t179.5 -83.5v-213q-72 67 -170 106t-232 39q-120 0 -221.5 -42t-174.5 -116.5t-113.5 -179t-40.5 -227.5t39.5 -227.5t112.5 -179t174.5 -116.5
t223.5 -42q134 0 240.5 39.5t179.5 113.5v-211q-78 -57 -186.5 -91t-243.5 -34zM625 -360q53 45 76.5 107.5t23.5 137.5h178q0 -53 -17.5 -101t-47 -89t-68.5 -72t-82 -49z" />
    <glyph glyph-name="Eacute" unicode="&#xc9;" horiz-adv-x="1049" 
d="M412 1594l226 311l125 -104l-260 -281zM160 1438h782v-172h-580v-418h564v-172h-564v-504h592v-172h-794v1438z" />
    <glyph glyph-name="Ntilde" unicode="&#xd1;" horiz-adv-x="1626" 
d="M160 1438h155l815 -932q9 -10 31.5 -37t45 -55.5t42 -54t23.5 -33.5l4 2q-2 8 -3 38.5t-1 66.5v70v48v887h196v-1438h-157l-815 932q-11 10 -32.5 36.5t-44 55.5t-42 54.5t-23.5 33.5l-2 -2q0 -8 1 -39t2 -66.5t1 -69.5v-48v-887h-196v1438zM500 1565q0 105 48 167.5
t124 62.5q43 0 80.5 -18.5t71.5 -40t63.5 -39t58.5 -17.5q35 0 51.5 30.5t16.5 86.5h112v-31q0 -105 -48 -167.5t-124 -62.5q-43 0 -80.5 17.5t-71.5 39t-63.5 40t-58.5 18.5q-35 0 -51.5 -30.5t-16.5 -86.5h-112v31z" />
    <glyph glyph-name="Odieresis" unicode="&#xd6;" horiz-adv-x="1663" 
d="M647 1559q-47 0 -79 32t-32 79t32 77.5t79 30.5q49 0 80.5 -30.5t31.5 -77.5t-31.5 -79t-80.5 -32zM1011 1559q-49 0 -80.5 32t-31.5 79t31.5 77.5t80.5 30.5q47 0 79 -30.5t32 -77.5t-32 -79t-79 -32zM831 -29q-174 0 -313 60.5t-237.5 163t-151.5 237.5t-53 287
q0 151 53 286.5t151.5 238t237.5 162.5t313 60t313.5 -60t238 -162.5t151.5 -238t53 -286.5q0 -152 -53 -287t-151.5 -237.5t-238 -163t-313.5 -60.5zM829 154q119 0 219.5 41t174 115.5t114.5 179t41 229.5t-41 229.5t-114.5 179t-174 115.5t-219.5 41q-116 0 -216.5 -41
t-174.5 -115.5t-114.5 -179t-40.5 -229.5t40.5 -229.5t114.5 -179t174.5 -115.5t216.5 -41z" />
    <glyph glyph-name="Udieresis" unicode="&#xdc;" horiz-adv-x="1395" 
d="M514 1559q-47 0 -79 32t-32 79t32 77.5t79 30.5q49 0 80.5 -30.5t31.5 -77.5t-31.5 -79t-80.5 -32zM878 1559q-49 0 -80.5 32t-31.5 79t31.5 77.5t80.5 30.5q47 0 79 -30.5t32 -77.5t-32 -79t-79 -32zM696 -29q-133 0 -235.5 38t-172 106.5t-106.5 165t-37 215.5v942h205
v-881q0 -188 83 -295.5t263 -107.5q182 0 265 107.5t83 295.5v881h205v-942q0 -119 -37 -215.5t-107.5 -165t-174 -106.5t-234.5 -38z" />
    <glyph glyph-name="aacute" unicode="&#xe1;" horiz-adv-x="1296" 
d="M584 -25q-131 0 -227.5 47.5t-159 124t-93 172t-30.5 191.5q0 104 34.5 199.5t100 168t160 115.5t215.5 43q135 0 227 -56t145 -142h4v174h185v-1012h-185v174h-4q-53 -86 -145 -142.5t-227 -56.5zM610 137q76 0 139.5 29t108.5 78t69.5 116.5t24.5 145.5
q0 76 -24.5 143.5t-68.5 117.5t-107.5 78.5t-141.5 28.5t-140.5 -28.5t-106.5 -77.5t-68.5 -116.5t-24.5 -145.5t24.5 -145.5t70 -116.5t107.5 -78t138 -29zM467 1188l226 311l125 -104l-260 -281z" />
    <glyph glyph-name="agrave" unicode="&#xe0;" horiz-adv-x="1296" 
d="M584 -25q-131 0 -227.5 47.5t-159 124t-93 172t-30.5 191.5q0 104 34.5 199.5t100 168t160 115.5t215.5 43q135 0 227 -56t145 -142h4v174h185v-1012h-185v174h-4q-53 -86 -145 -142.5t-227 -56.5zM610 137q76 0 139.5 29t108.5 78t69.5 116.5t24.5 145.5
q0 76 -24.5 143.5t-68.5 117.5t-107.5 78.5t-141.5 28.5t-140.5 -28.5t-106.5 -77.5t-68.5 -116.5t-24.5 -145.5t24.5 -145.5t70 -116.5t107.5 -78t138 -29zM397 1395l125 104l225 -311l-90 -74z" />
    <glyph glyph-name="acircumflex" unicode="&#xe2;" horiz-adv-x="1296" 
d="M584 -25q-131 0 -227.5 47.5t-159 124t-93 172t-30.5 191.5q0 104 34.5 199.5t100 168t160 115.5t215.5 43q135 0 227 -56t145 -142h4v174h185v-1012h-185v174h-4q-53 -86 -145 -142.5t-227 -56.5zM610 137q76 0 139.5 29t108.5 78t69.5 116.5t24.5 145.5
q0 76 -24.5 143.5t-68.5 117.5t-107.5 78.5t-141.5 28.5t-140.5 -28.5t-106.5 -77.5t-68.5 -116.5t-24.5 -145.5t24.5 -145.5t70 -116.5t107.5 -78t138 -29zM289 1190l317 311l318 -311l-72 -78l-246 193l-246 -193z" />
    <glyph glyph-name="adieresis" unicode="&#xe4;" horiz-adv-x="1296" 
d="M584 -25q-131 0 -227.5 47.5t-159 124t-93 172t-30.5 191.5q0 104 34.5 199.5t100 168t160 115.5t215.5 43q135 0 227 -56t145 -142h4v174h185v-1012h-185v174h-4q-53 -86 -145 -142.5t-227 -56.5zM610 137q76 0 139.5 29t108.5 78t69.5 116.5t24.5 145.5
q0 76 -24.5 143.5t-68.5 117.5t-107.5 78.5t-141.5 28.5t-140.5 -28.5t-106.5 -77.5t-68.5 -116.5t-24.5 -145.5t24.5 -145.5t70 -116.5t107.5 -78t138 -29zM424 1153q-47 0 -79 32t-32 79t32 77.5t79 30.5q49 0 80.5 -30.5t31.5 -77.5t-31.5 -79t-80.5 -32zM788 1153
q-49 0 -80.5 32t-31.5 79t31.5 77.5t80.5 30.5q47 0 79 -30.5t32 -77.5t-32 -79t-79 -32z" />
    <glyph glyph-name="atilde" unicode="&#xe3;" horiz-adv-x="1296" 
d="M584 -25q-131 0 -227.5 47.5t-159 124t-93 172t-30.5 191.5q0 104 34.5 199.5t100 168t160 115.5t215.5 43q135 0 227 -56t145 -142h4v174h185v-1012h-185v174h-4q-53 -86 -145 -142.5t-227 -56.5zM610 137q76 0 139.5 29t108.5 78t69.5 116.5t24.5 145.5
q0 76 -24.5 143.5t-68.5 117.5t-107.5 78.5t-141.5 28.5t-140.5 -28.5t-106.5 -77.5t-68.5 -116.5t-24.5 -145.5t24.5 -145.5t70 -116.5t107.5 -78t138 -29zM295 1159q0 105 48 167.5t124 62.5q43 0 80.5 -18.5t71.5 -40t63.5 -39t58.5 -17.5q35 0 51.5 30.5t16.5 86.5h112
v-31q0 -105 -48 -167.5t-124 -62.5q-43 0 -80.5 17.5t-71.5 39t-63.5 40t-58.5 18.5q-35 0 -51.5 -30.5t-16.5 -86.5h-112v31z" />
    <glyph glyph-name="aring" unicode="&#xe5;" horiz-adv-x="1296" 
d="M584 -25q-131 0 -227.5 47.5t-159 124t-93 172t-30.5 191.5q0 104 34.5 199.5t100 168t160 115.5t215.5 43q135 0 227 -56t145 -142h4v174h185v-1012h-185v174h-4q-53 -86 -145 -142.5t-227 -56.5zM610 137q76 0 139.5 29t108.5 78t69.5 116.5t24.5 145.5
q0 76 -24.5 143.5t-68.5 117.5t-107.5 78.5t-141.5 28.5t-140.5 -28.5t-106.5 -77.5t-68.5 -116.5t-24.5 -145.5t24.5 -145.5t70 -116.5t107.5 -78t138 -29zM608 1120q-51 0 -96 16.5t-78.5 47t-53 73.5t-19.5 95q0 51 19.5 94t53 73.5t78.5 47t96 16.5q52 0 97 -16.5
t78.5 -47t53 -73.5t19.5 -94q0 -52 -19.5 -95t-53 -73.5t-78.5 -47t-97 -16.5zM608 1225q54 0 89.5 36.5t35.5 90.5q0 53 -35.5 90t-89.5 37q-53 0 -88.5 -37t-35.5 -90q0 -54 35.5 -90.5t88.5 -36.5z" />
    <glyph glyph-name="ccedilla" unicode="&#xe7;" horiz-adv-x="942" 
d="M612 -25q-131 0 -231.5 46.5t-169 120t-103 169t-34.5 193.5t34.5 194.5t103 171t170 120.5t232.5 46q76 0 138.5 -14t99.5 -37v-184q-39 30 -98.5 49.5t-131.5 19.5q-75 0 -139.5 -26.5t-113 -74.5t-75 -114.5t-26.5 -148.5q0 -80 26.5 -146.5t74 -115.5t113 -76
t143.5 -27q71 0 130.5 19.5t102.5 54.5v-184q-41 -23 -104.5 -39.5t-141.5 -16.5zM391 -360q53 45 76.5 107.5t23.5 137.5h178q0 -53 -17.5 -101t-47 -89t-68.5 -72t-82 -49z" />
    <glyph glyph-name="eacute" unicode="&#xe9;" 
d="M451 1188l226 311l125 -104l-260 -281zM606 -25q-135 0 -235.5 46.5t-166 122t-98 170t-32.5 192.5q0 92 28.5 186t91 171t161 125t235.5 48t233 -47t157.5 -122.5t89.5 -168t28 -182.5v-20.5t-2 -26.5h-832q2 -74 27.5 -136.5t72 -106.5t111 -69.5t141.5 -25.5
q111 0 193 49t129 135l139 -88q-74 -129 -197.5 -190.5t-273.5 -61.5zM907 608q-22 129 -109 205t-208 76q-127 0 -212 -78t-108 -203h637z" />
    <glyph glyph-name="egrave" unicode="&#xe8;" 
d="M606 -25q-135 0 -235.5 46.5t-166 122t-98 170t-32.5 192.5q0 92 28.5 186t91 171t161 125t235.5 48t233 -47t157.5 -122.5t89.5 -168t28 -182.5v-20.5t-2 -26.5h-832q2 -74 27.5 -136.5t72 -106.5t111 -69.5t141.5 -25.5q111 0 193 49t129 135l139 -88
q-74 -129 -197.5 -190.5t-273.5 -61.5zM907 608q-22 129 -109 205t-208 76q-127 0 -212 -78t-108 -203h637zM381 1395l125 104l225 -311l-90 -74z" />
    <glyph glyph-name="ecircumflex" unicode="&#xea;" 
d="M273 1190l317 311l318 -311l-72 -78l-246 193l-246 -193zM606 -25q-135 0 -235.5 46.5t-166 122t-98 170t-32.5 192.5q0 92 28.5 186t91 171t161 125t235.5 48t233 -47t157.5 -122.5t89.5 -168t28 -182.5v-20.5t-2 -26.5h-832q2 -74 27.5 -136.5t72 -106.5t111 -69.5
t141.5 -25.5q111 0 193 49t129 135l139 -88q-74 -129 -197.5 -190.5t-273.5 -61.5zM907 608q-22 129 -109 205t-208 76q-127 0 -212 -78t-108 -203h637z" />
    <glyph glyph-name="edieresis" unicode="&#xeb;" 
d="M408 1153q-47 0 -79 32t-32 79t32 77.5t79 30.5q49 0 80.5 -30.5t31.5 -77.5t-31.5 -79t-80.5 -32zM772 1153q-49 0 -80.5 32t-31.5 79t31.5 77.5t80.5 30.5q47 0 79 -30.5t32 -77.5t-32 -79t-79 -32zM606 -25q-135 0 -235.5 46.5t-166 122t-98 170t-32.5 192.5
q0 92 28.5 186t91 171t161 125t235.5 48t233 -47t157.5 -122.5t89.5 -168t28 -182.5v-20.5t-2 -26.5h-832q2 -74 27.5 -136.5t72 -106.5t111 -69.5t141.5 -25.5q111 0 193 49t129 135l139 -88q-74 -129 -197.5 -190.5t-273.5 -61.5zM907 608q-22 129 -109 205t-208 76
q-127 0 -212 -78t-108 -203h637z" />
    <glyph glyph-name="iacute" unicode="&#xed;" horiz-adv-x="496" 
d="M110 1188l226 311l125 -104l-260 -281zM152 1012h193v-1012h-193v1012z" />
    <glyph glyph-name="igrave" unicode="&#xec;" horiz-adv-x="496" 
d="M152 1012h193v-1012h-193v1012zM40 1395l125 104l225 -311l-90 -74z" />
    <glyph glyph-name="icircumflex" unicode="&#xee;" horiz-adv-x="496" 
d="M-68 1190l317 311l318 -311l-72 -78l-246 193l-246 -193zM152 1012h193v-1012h-193v1012z" />
    <glyph glyph-name="idieresis" unicode="&#xef;" horiz-adv-x="496" 
d="M69 1153q-47 0 -79 32t-32 79t32 77.5t79 30.5q49 0 80.5 -30.5t31.5 -77.5t-31.5 -79t-80.5 -32zM433 1153q-49 0 -80.5 32t-31.5 79t31.5 77.5t80.5 30.5q47 0 79 -30.5t32 -77.5t-32 -79t-79 -32zM152 1012h193v-1012h-193v1012z" />
    <glyph glyph-name="ntilde" unicode="&#xf1;" horiz-adv-x="1188" 
d="M152 1012h185v-135h4q45 65 122 112t199 47q189 0 291.5 -109.5t102.5 -310.5v-616h-195v582q0 143 -60.5 219t-183.5 76q-129 0 -200.5 -79t-71.5 -223v-575h-193v1012zM289 1159q0 105 48 167.5t124 62.5q43 0 80.5 -18.5t71.5 -40t63.5 -39t58.5 -17.5q35 0 51.5 30.5
t16.5 86.5h112v-31q0 -105 -48 -167.5t-124 -62.5q-43 0 -80.5 17.5t-71.5 39t-63.5 40t-58.5 18.5q-35 0 -51.5 -30.5t-16.5 -86.5h-112v31z" />
    <glyph glyph-name="oacute" unicode="&#xf3;" horiz-adv-x="1229" 
d="M474 1188l226 311l125 -104l-260 -281zM614 -25q-133 0 -234.5 47.5t-169 122t-102 170t-34.5 191.5t34.5 191.5t102 170t169 121.5t234.5 47t234.5 -47t169 -121.5t102.5 -170t35 -191.5t-35 -191.5t-102.5 -170t-169 -122t-234.5 -47.5zM614 139q74 0 137.5 27
t109.5 76t72.5 116.5t26.5 147.5t-26.5 147.5t-72.5 116.5t-109.5 75.5t-137.5 26.5q-73 0 -136.5 -26.5t-110 -75.5t-73 -116.5t-26.5 -147.5t26.5 -147.5t73 -116.5t110 -76t136.5 -27z" />
    <glyph glyph-name="ograve" unicode="&#xf2;" horiz-adv-x="1229" 
d="M614 -25q-133 0 -234.5 47.5t-169 122t-102 170t-34.5 191.5t34.5 191.5t102 170t169 121.5t234.5 47t234.5 -47t169 -121.5t102.5 -170t35 -191.5t-35 -191.5t-102.5 -170t-169 -122t-234.5 -47.5zM614 139q74 0 137.5 27t109.5 76t72.5 116.5t26.5 147.5t-26.5 147.5
t-72.5 116.5t-109.5 75.5t-137.5 26.5q-73 0 -136.5 -26.5t-110 -75.5t-73 -116.5t-26.5 -147.5t26.5 -147.5t73 -116.5t110 -76t136.5 -27zM403 1395l125 104l225 -311l-90 -74z" />
    <glyph glyph-name="ocircumflex" unicode="&#xf4;" horiz-adv-x="1229" 
d="M295 1190l317 311l318 -311l-72 -78l-246 193l-246 -193zM614 -25q-133 0 -234.5 47.5t-169 122t-102 170t-34.5 191.5t34.5 191.5t102 170t169 121.5t234.5 47t234.5 -47t169 -121.5t102.5 -170t35 -191.5t-35 -191.5t-102.5 -170t-169 -122t-234.5 -47.5zM614 139
q74 0 137.5 27t109.5 76t72.5 116.5t26.5 147.5t-26.5 147.5t-72.5 116.5t-109.5 75.5t-137.5 26.5q-73 0 -136.5 -26.5t-110 -75.5t-73 -116.5t-26.5 -147.5t26.5 -147.5t73 -116.5t110 -76t136.5 -27z" />
    <glyph glyph-name="odieresis" unicode="&#xf6;" horiz-adv-x="1229" 
d="M430 1153q-47 0 -79 32t-32 79t32 77.5t79 30.5q49 0 80.5 -30.5t31.5 -77.5t-31.5 -79t-80.5 -32zM794 1153q-49 0 -80.5 32t-31.5 79t31.5 77.5t80.5 30.5q47 0 79 -30.5t32 -77.5t-32 -79t-79 -32zM614 -25q-133 0 -234.5 47.5t-169 122t-102 170t-34.5 191.5
t34.5 191.5t102 170t169 121.5t234.5 47t234.5 -47t169 -121.5t102.5 -170t35 -191.5t-35 -191.5t-102.5 -170t-169 -122t-234.5 -47.5zM614 139q74 0 137.5 27t109.5 76t72.5 116.5t26.5 147.5t-26.5 147.5t-72.5 116.5t-109.5 75.5t-137.5 26.5q-73 0 -136.5 -26.5
t-110 -75.5t-73 -116.5t-26.5 -147.5t26.5 -147.5t73 -116.5t110 -76t136.5 -27z" />
    <glyph glyph-name="otilde" unicode="&#xf5;" horiz-adv-x="1229" 
d="M614 -25q-133 0 -234.5 47.5t-169 122t-102 170t-34.5 191.5t34.5 191.5t102 170t169 121.5t234.5 47t234.5 -47t169 -121.5t102.5 -170t35 -191.5t-35 -191.5t-102.5 -170t-169 -122t-234.5 -47.5zM614 139q74 0 137.5 27t109.5 76t72.5 116.5t26.5 147.5t-26.5 147.5
t-72.5 116.5t-109.5 75.5t-137.5 26.5q-73 0 -136.5 -26.5t-110 -75.5t-73 -116.5t-26.5 -147.5t26.5 -147.5t73 -116.5t110 -76t136.5 -27zM299 1159q0 105 48 167.5t124 62.5q43 0 80.5 -18.5t71.5 -40t63.5 -39t58.5 -17.5q35 0 51.5 30.5t16.5 86.5h112v-31
q0 -105 -48 -167.5t-124 -62.5q-43 0 -80.5 17.5t-71.5 39t-63.5 40t-58.5 18.5q-35 0 -51.5 -30.5t-16.5 -86.5h-112v31z" />
    <glyph glyph-name="uacute" unicode="&#xfa;" 
d="M437 1188l226 311l125 -104l-260 -281zM518 -25q-188 0 -286.5 111t-98.5 309v617h193v-582q0 -295 237 -295q127 0 194.5 79t67.5 222v576h195v-1012h-187v135h-4q-43 -65 -114.5 -112.5t-196.5 -47.5z" />
    <glyph glyph-name="ugrave" unicode="&#xf9;" 
d="M518 -25q-188 0 -286.5 111t-98.5 309v617h193v-582q0 -295 237 -295q127 0 194.5 79t67.5 222v576h195v-1012h-187v135h-4q-43 -65 -114.5 -112.5t-196.5 -47.5zM365 1395l125 104l225 -311l-90 -74z" />
    <glyph glyph-name="ucircumflex" unicode="&#xfb;" 
d="M256 1190l317 311l318 -311l-72 -78l-246 193l-246 -193zM518 -25q-188 0 -286.5 111t-98.5 309v617h193v-582q0 -295 237 -295q127 0 194.5 79t67.5 222v576h195v-1012h-187v135h-4q-43 -65 -114.5 -112.5t-196.5 -47.5z" />
    <glyph glyph-name="udieresis" unicode="&#xfc;" 
d="M393 1153q-47 0 -79 32t-32 79t32 77.5t79 30.5q49 0 80.5 -30.5t31.5 -77.5t-31.5 -79t-80.5 -32zM757 1153q-49 0 -80.5 32t-31.5 79t31.5 77.5t80.5 30.5q47 0 79 -30.5t32 -77.5t-32 -79t-79 -32zM518 -25q-188 0 -286.5 111t-98.5 309v617h193v-582q0 -295 237 -295
q127 0 194.5 79t67.5 222v576h195v-1012h-187v135h-4q-43 -65 -114.5 -112.5t-196.5 -47.5z" />
    <glyph glyph-name="dagger" unicode="&#x2020;" horiz-adv-x="1153" 
d="M117 1020h387v418h145v-418h387v-133h-387v-887h-145v887h-387v133z" />
    <glyph glyph-name="degree" unicode="&#xb0;" horiz-adv-x="930" 
d="M465 733q-86 0 -153.5 30t-116 80t-74 115.5t-25.5 139.5q0 73 25.5 139t74 116t117 79.5t152.5 29.5q86 0 153.5 -29.5t115.5 -79.5t73.5 -116t25.5 -139q0 -74 -25.5 -139.5t-73.5 -115.5t-116.5 -80t-152.5 -30zM465 862q94 0 155.5 65.5t61.5 170.5
q0 102 -61.5 168.5t-155.5 66.5t-155.5 -65.5t-61.5 -169.5q0 -103 61.5 -169.5t155.5 -66.5z" />
    <glyph glyph-name="cent" unicode="&#xa2;" horiz-adv-x="989" 
d="M491 244q-96 18 -170.5 63t-126 107.5t-78 140.5t-26.5 164t26.5 162.5t78 139t126 106.5t170.5 63v248h127v-234q95 0 159.5 -14t103.5 -37v-180q-43 31 -110 49t-153 18v-645q93 0 157.5 18.5t113.5 55.5v-182q-47 -25 -112.5 -40.5t-158.5 -15.5v-231h-127v244z
M283 719q0 -119 55 -194.5t153 -108.5v604q-98 -31 -153 -107.5t-55 -193.5z" />
    <glyph glyph-name="sterling" unicode="&#xa3;" horiz-adv-x="1247" 
d="M125 147h176q20 19 44 45.5t44.5 60.5t32.5 74t12 87t-12 86t-29 75h-213v130h135q-49 81 -92 168.5t-43 197.5q0 86 31 157.5t90 125t145 83t199 29.5q217 0 332 -114q114 -115 114 -322h-194v12q0 123 -65.5 193t-196.5 70q-129 0 -194.5 -65.5t-65.5 -174.5
q0 -53 14 -99t35.5 -89t48.5 -85t51 -87h404v-130h-344q28 -69 28 -143q0 -90 -34.5 -158.5t-84.5 -126.5h629v-147h-997v147z" />
    <glyph glyph-name="section" unicode="&#xa7;" horiz-adv-x="1311" 
d="M1188 477q0 -98 -50.5 -172t-127.5 -115q106 -100 106 -245q0 -78 -34 -142.5t-94 -110.5t-142 -72t-176 -26q-86 0 -163 17.5t-140.5 48.5t-112.5 71t-78 83l123 114q18 -30 53 -60t83 -53.5t106.5 -38t126.5 -14.5q51 0 97 12.5t81 37t56.5 59.5t21.5 80
q0 80 -53.5 131t-149.5 80l-318 100q-125 41 -203.5 119t-78.5 203q0 104 56 180t142 115q-98 94 -98 237q0 78 31 142.5t87 110.5t134 71.5t174 25.5q82 0 149.5 -18t123 -48t96.5 -69t69 -80l-133 -112q-43 67 -120.5 113t-182.5 46q-102 0 -168.5 -49t-66.5 -139
q0 -80 54 -129t148 -82l289 -100q123 -43 203 -120t80 -202zM520 760q-43 14 -78 33q-65 -29 -99 -83.5t-34 -111.5q0 -131 180 -190l328 -107q18 -6 33.5 -11t32.5 -14q59 29 87.5 80.5t28.5 106.5q0 127 -180 190z" />
    <glyph glyph-name="bullet" unicode="&#x2022;" horiz-adv-x="770" 
d="M385 442q-94 0 -155.5 62.5t-61.5 154.5q0 93 61.5 155.5t155.5 62.5q96 0 156.5 -62.5t60.5 -155.5q0 -92 -60.5 -154.5t-156.5 -62.5z" />
    <glyph glyph-name="paragraph" unicode="&#xb6;" horiz-adv-x="1413" 
d="M1018 1268h-248v-1649h-199v934q-98 4 -181 36t-143.5 88t-95 137t-34.5 181q0 101 35.5 183t102 139t163 89t217.5 32h667v-170h-145v-1649h-139v1649z" />
    <glyph glyph-name="germandbls" unicode="&#xdf;" horiz-adv-x="1257" 
d="M723 -12q-51 0 -97.5 7t-72.5 17v166q26 -10 68 -19t90 -9q69 0 121.5 21.5t87 58t52 87t17.5 105.5q0 127 -82 199.5t-223 72.5h-49v144h16q55 0 99.5 19.5t74 51t45 74.5t15.5 92q0 103 -65.5 169.5t-182.5 66.5q-119 0 -182.5 -72t-63.5 -184v-1055h-194v858h-144v154
h144v49q0 82 28.5 155.5t83.5 129t137 88t191 32.5q100 0 181 -27.5t139.5 -76.5t90 -116.5t31.5 -147.5q0 -111 -55 -189t-129 -116v-5q53 -14 105.5 -42.5t93 -75.5t66.5 -111.5t26 -148.5q0 -99 -35 -176.5t-96.5 -132t-146.5 -84t-185 -29.5z" />
    <glyph glyph-name="registered" unicode="&#xae;" horiz-adv-x="1040" 
d="M352 1266h176q72 0 122 -33t50 -109q0 -45 -25.5 -77.5t-76.5 -49.5l131 -188h-117l-110 170h-52v-170h-98v457zM516 1049q84 0 84 71q0 70 -84 70h-66v-141h66zM520 686q78 0 141.5 27.5t107.5 75t68.5 112t24.5 135.5q0 72 -24.5 135.5t-68.5 111.5t-107.5 75.5
t-141.5 27.5t-141.5 -27.5t-107.5 -75.5t-68.5 -111.5t-24.5 -135.5q0 -71 24.5 -135.5t68.5 -112t107.5 -75t141.5 -27.5zM520 606q-96 0 -176 35t-136.5 94.5t-87 137t-30.5 163.5t30.5 164t87 137.5t136.5 94t176 34.5q98 0 177 -34.5t135.5 -94t87 -137.5t30.5 -164
t-30.5 -163.5t-87 -137t-135.5 -94.5t-177 -35z" />
    <glyph glyph-name="copyright" unicode="&#xa9;" horiz-adv-x="1632" 
d="M815 -29q-160 0 -296 57.5t-235.5 158t-154.5 236.5t-55 296t55 296t154.5 236.5t235.5 157.5t296 57t296 -57t235.5 -157.5t154.5 -236.5t55 -296t-55 -296t-154.5 -236.5t-235.5 -158t-296 -57.5zM815 88q135 0 249 48t194.5 132t126.5 200t46 251t-46 250.5
t-126.5 199.5t-194.5 132.5t-249 48.5t-248.5 -48.5t-194.5 -132.5t-127 -199.5t-46 -250.5t46 -251t127 -200t194.5 -132t248.5 -48zM844 293q-99 0 -180.5 31.5t-140 88t-90.5 135.5t-32 171t32 171t90.5 135t140 88t182.5 32q76 0 135 -16.5t100 -45.5v-145
q-35 31 -91 51.5t-128 20.5q-137 0 -220 -81t-83 -210t83 -210t222 -81q66 0 126.5 19.5t100.5 58.5v-146q-40 -28 -103.5 -47.5t-143.5 -19.5z" />
    <glyph glyph-name="trademark" unicode="&#x2122;" horiz-adv-x="1208" 
d="M541 1438h102l156 -391l157 391h101l82 -543h-105l-51 381l-148 -381h-73l-148 381l-51 -381h-104zM170 1352h-154v86h414v-86h-154v-457h-106v457z" />
    <glyph glyph-name="acute" unicode="&#xb4;" horiz-adv-x="584" 
d="M150 1188l226 311l125 -104l-260 -281z" />
    <glyph glyph-name="dieresis" unicode="&#xa8;" horiz-adv-x="856" 
d="M246 1153q-47 0 -79 32t-32 79t32 77.5t79 30.5q49 0 80.5 -30.5t31.5 -77.5t-31.5 -79t-80.5 -32zM610 1153q-49 0 -80.5 32t-31.5 79t31.5 77.5t80.5 30.5q47 0 79 -30.5t32 -77.5t-32 -79t-79 -32z" />
    <glyph glyph-name="notequal" unicode="&#x2260;" horiz-adv-x="1313" 
d="M201 758h536l168 266h152l-168 -266h221v-150h-305l-152 -237h457v-150h-541l-166 -264h-149l166 264h-219v150h303l147 237h-450v150z" />
    <glyph glyph-name="AE" unicode="&#xc6;" horiz-adv-x="1798" 
d="M909 377h-551l-151 -377h-213l592 1438h1106v-172h-580v-418h563v-172h-563v-504h592v-172h-795v377zM420 547h489v719h-203z" />
    <glyph glyph-name="Oslash" unicode="&#xd8;" horiz-adv-x="1663" 
d="M246 231q-82 99 -126 224t-44 264q0 151 53 286.5t151.5 238t237.5 162.5t313 60q150 0 274 -46t220 -124l141 142h178l-231 -230q84 -100 129 -225t45 -264q0 -152 -53 -287t-151.5 -237.5t-238 -163t-313.5 -60.5q-151 0 -276 46t-221 126l-144 -143h-178zM283 719
q0 -103 27.5 -190t76.5 -158l799 788q-72 60 -162 92.5t-195 32.5q-116 0 -216.5 -41t-174.5 -115.5t-114.5 -179t-40.5 -229.5zM829 154q119 0 219.5 41t174 115.5t114.5 179t41 229.5q0 104 -27.5 191t-78.5 159l-799 -790q72 -60 162 -92.5t194 -32.5z" />
    <glyph glyph-name="infinity" unicode="&#x221e;" horiz-adv-x="1665" 
d="M466 131q-76 0 -140.5 27.5t-112.5 75t-75 113t-27 140.5q0 76 27 141.5t75 112.5t112.5 75t140.5 28q65 0 120.5 -19.5t100.5 -52.5t81 -75t64 -87q27 45 64 87t82 75t100 52.5t121 19.5q76 0 140.5 -28t112.5 -75t74.5 -112.5t26.5 -141.5q0 -75 -26.5 -140.5
t-74.5 -113t-112.5 -75t-140.5 -27.5q-66 0 -121 19.5t-100 52.5t-82 74.5t-64 87.5q-28 -46 -64 -87.5t-81 -74.5t-100.5 -52.5t-120.5 -19.5zM476 276q49 0 92 18.5t77 49.5t59.5 69t43.5 74q-18 37 -43.5 75t-59.5 69t-77 49t-92 18q-88 0 -147.5 -59t-59.5 -152
q0 -92 59.5 -151.5t147.5 -59.5zM1189 276q88 0 147.5 59.5t59.5 151.5q0 93 -59.5 152t-147.5 59q-49 0 -92 -18t-77 -49t-59.5 -69t-44.5 -75q19 -36 44.5 -74t59.5 -69t77 -49.5t92 -18.5z" />
    <glyph glyph-name="plusminus" unicode="&#xb1;" horiz-adv-x="1313" 
d="M168 152h977v-152h-977v152zM573 737h-405v152h405v364h166v-364h406v-152h-406v-366h-166v366z" />
    <glyph glyph-name="lessequal" unicode="&#x2264;" horiz-adv-x="1313" 
d="M168 152h977v-152h-977v152zM219 739v150l872 395v-168l-677 -303l677 -301v-170z" />
    <glyph glyph-name="greaterequal" unicode="&#x2265;" horiz-adv-x="1313" 
d="M1145 0h-977v152h977v-152zM219 342v168l678 303l-678 301v170l872 -397v-150z" />
    <glyph glyph-name="yen" unicode="&#xa5;" horiz-adv-x="1251" 
d="M524 459h-379v123h379l-100 178h-279v123h215l-305 555h217l254 -471q6 -11 21.5 -40.5t33 -64.5t31 -64.5t15.5 -39.5h2q2 10 15 40.5t30.5 64.5t33 64.5t21.5 41.5l254 469h213l-305 -555h215v-123h-281l-98 -178h379v-123h-379v-459h-203v459z" />
    <glyph glyph-name="mu" unicode="&#xb5;" horiz-adv-x="1186" 
d="M152 1012h193v-582q0 -295 238 -295q127 0 194.5 79t67.5 222v576h194v-1012h-186v135h-4q-45 -65 -116 -110t-196 -45q-118 0 -192 69v-430h-193v1393z" />
    <glyph glyph-name="partialdiff" unicode="&#x2202;" horiz-adv-x="1227" 
d="M614 -25q-127 0 -226 44t-170 118t-107.5 170t-36.5 201q0 100 34.5 193.5t99 165t158 114.5t209.5 43q47 0 84 -8t66 -31l-311 387l147 109l453 -588q65 -86 102 -181.5t37 -203.5q0 -107 -38 -203t-107.5 -170t-169 -117t-224.5 -43zM614 139q74 0 137.5 27t109.5 76
t72.5 116.5t26.5 147.5t-26.5 147.5t-72.5 116.5t-109.5 75.5t-137.5 26.5q-73 0 -136.5 -26.5t-110 -75.5t-73 -116.5t-26.5 -147.5t26.5 -147.5t73 -116.5t110 -76t136.5 -27z" />
    <glyph glyph-name="summation" unicode="&#x2211;" horiz-adv-x="1196" 
d="M111 0v182l553 537l-553 536v183h969v-174h-715l560 -545l-560 -545h723v-174h-977z" />
    <glyph glyph-name="product" unicode="&#x220f;" horiz-adv-x="1479" 
d="M160 1438h1159v-1438h-203v1264h-754v-1264h-202v1438z" />
    <glyph glyph-name="pi" unicode="&#x3c0;" horiz-adv-x="1206" 
d="M152 1012h904v-1012h-195v858h-516v-858h-193v1012z" />
    <glyph glyph-name="integral" unicode="&#x222b;" horiz-adv-x="786" 
d="M165 -401q-41 0 -79 5t-63 15v164q39 -23 101 -23q82 0 128 46.5t46 152.5v1149q0 164 83 259t245 95q41 0 78.5 -5t62.5 -15v-164q-39 22 -100 22q-82 0 -128.5 -46t-46.5 -152v-1149q0 -164 -82.5 -259t-244.5 -95z" />
    <glyph glyph-name="ordfeminine" unicode="&#xaa;" horiz-adv-x="1362" 
d="M620 608q-96 0 -169.5 37t-123 97.5t-74 138t-24.5 157.5q0 88 29 165t80 135.5t123.5 92t163.5 33.5q100 0 169.5 -41t108.5 -100h4v115h174v-805h-174v117h-4q-39 -60 -108.5 -101t-174.5 -41zM240 403h841v-151h-841v151zM659 760q107 0 178.5 75.5t71.5 200.5
t-71.5 201t-178.5 76q-106 0 -177.5 -76t-71.5 -201t71.5 -200.5t177.5 -75.5z" />
    <glyph glyph-name="ordmasculine" unicode="&#xba;" horiz-adv-x="1331" 
d="M237 403h857v-151h-857v151zM666 764q53 0 99 20.5t81 57.5t55.5 87t20.5 109q0 58 -20.5 108t-55.5 87t-81 57.5t-99 20.5q-54 0 -100 -20.5t-81 -57.5t-55 -87t-20 -110q0 -59 20 -108t55 -86t81 -57.5t100 -20.5zM666 608q-107 0 -189 38t-137 99.5t-83 137t-28 153.5
t28 155t83 138.5t137 99t189 37.5q106 0 188 -37.5t137 -99t83 -138.5t28 -153q0 -77 -28 -154t-83 -138.5t-137 -99.5t-188 -38z" />
    <glyph glyph-name="Omega" unicode="&#x2126;" horiz-adv-x="1733" 
d="M96 174h330q-78 37 -136.5 96.5t-97 135t-59 161.5t-20.5 178q0 148 54 279t152.5 229.5t237.5 155.5t309 57t309.5 -57t237.5 -155.5t152.5 -229.5t54.5 -279q0 -92 -20.5 -178t-59.5 -161.5t-98.5 -135t-134.5 -96.5h329v-174h-639v178q92 12 169 59.5t132.5 120
t85 166.5t29.5 199q0 123 -41 226.5t-113.5 177t-173 115.5t-219.5 42t-219 -42t-173 -115.5t-114 -177t-41 -226.5q0 -105 30 -199t85 -166.5t132 -120t169 -59.5v-178h-639v174z" />
    <glyph glyph-name="ae" unicode="&#xe6;" horiz-adv-x="1909" 
d="M1343 -25q-165 0 -271.5 67t-166.5 171q-59 -111 -174 -174.5t-274 -63.5q-187 0 -293.5 84t-106.5 232q0 151 114 234t314 83h326q0 148 -70.5 210.5t-199.5 62.5q-109 0 -181.5 -39t-119.5 -107l-123 96q57 89 161.5 147t268.5 58q282 0 379 -198q57 86 154.5 142
t246.5 56q137 0 233.5 -47t158 -122.5t89 -168t27.5 -182.5v-20.5t-2 -26.5h-832q2 -74 28 -136.5t72 -106.5t110.5 -69.5t142.5 -25.5q110 0 192 49t129 135l139 -88q-73 -129 -197 -190.5t-274 -61.5zM473 119q145 0 239.5 93t98.5 257h-309q-123 0 -188.5 -42t-65.5 -128
q0 -80 58 -130t167 -50zM1644 608q-22 129 -109 205t-208 76q-127 0 -212 -78t-107 -203h636z" />
    <glyph glyph-name="oslash" unicode="&#xf8;" horiz-adv-x="1227" 
d="M192 164q-59 74 -88.5 162t-29.5 180q0 96 34.5 191.5t102 170t169 121.5t234.5 47q107 0 192 -30.5t150 -81.5l90 88h154l-166 -164q60 -74 90.5 -163t30.5 -179q0 -96 -35 -191.5t-102.5 -170t-169 -122t-234.5 -47.5q-108 0 -193 30t-151 83l-88 -88h-153zM268 506
q0 -121 58 -211l505 502q-43 34 -99 54.5t-118 20.5q-73 0 -136.5 -26.5t-110 -75.5t-73 -116.5t-26.5 -147.5zM614 139q74 0 137.5 27t109.5 76t72.5 116.5t26.5 147.5q0 119 -57 211l-506 -502q88 -76 217 -76z" />
    <glyph glyph-name="questiondown" unicode="&#xbf;" horiz-adv-x="903" 
d="M471 -457q-98 0 -180 32t-140.5 88t-90 134t-31.5 170q0 88 27.5 161t77.5 128t118.5 90t148.5 47l27 223h125l31 -348h-39q-90 0 -151.5 -24.5t-100.5 -64.5t-56.5 -92t-17.5 -107q0 -64 19.5 -115t55.5 -88t83 -56.5t102 -19.5q57 0 105.5 20.5t83 56.5t55 84t20.5 105
h191q0 -92 -35 -170t-97.5 -134t-147.5 -88t-183 -32zM485 1026q60 0 96.5 -37t36.5 -94q0 -55 -36.5 -93t-96.5 -38q-59 0 -96 37t-37 94q0 55 37 93t96 38z" />
    <glyph glyph-name="exclamdown" unicode="&#xa1;" horiz-adv-x="514" 
d="M160 205l51 411h92l51 -411v-633h-194v633zM258 764q-59 0 -96 37t-37 94q0 55 37 93t96 38t96 -37t37 -94q0 -55 -37 -93t-96 -38z" />
    <glyph glyph-name="logicalnot" unicode="&#xac;" horiz-adv-x="1313" 
d="M168 719h977v-572h-160v418h-817v154z" />
    <glyph glyph-name="radical" unicode="&#x221a;" horiz-adv-x="1350" 
d="M106 1012h209l238 -594q8 -25 20.5 -56.5t22.5 -61.5t17 -52.5t7 -26.5h5q0 4 7 26.5t16 52.5t20.5 61.5t21.5 56.5l418 1020h205l-615 -1438h-159z" />
    <glyph glyph-name="florin" unicode="&#x192;" horiz-adv-x="1090" 
d="M184 -178q-61 0 -110.5 12t-71.5 25l31 159q22 -16 57 -26t76 -10q168 0 205 211l79 462h-198l26 156h201l51 299q29 168 127.5 261t251.5 93q62 0 111 -12t71 -25l-30 -159q-23 16 -57.5 26.5t-75.5 10.5q-168 0 -205 -211l-49 -283h297l-27 -156h-297l-84 -479
q-29 -168 -127 -261t-252 -93z" />
    <glyph glyph-name="approxequal" unicode="&#x2248;" horiz-adv-x="1354" 
d="M909 758q127 0 127 131h146v-29q0 -71 -22.5 -120.5t-59.5 -80t-84 -45t-97 -14.5q-63 0 -125.5 21.5t-122 47t-116.5 47t-111 21.5q-127 0 -127 -131h-145v29q0 72 22.5 121t59.5 79.5t84 45t96 14.5q64 0 126 -21.5t121.5 -47t117 -47t110.5 -21.5zM909 372
q127 0 127 131h146v-29q0 -71 -22.5 -120.5t-59.5 -80t-84 -45t-97 -14.5q-63 0 -125.5 21.5t-122 47t-116.5 47t-111 21.5q-127 0 -127 -131h-145v29q0 72 22.5 121t59.5 79.5t84 45t96 14.5q64 0 126 -21.5t121.5 -47t117 -47t110.5 -21.5z" />
    <glyph glyph-name="Delta" unicode="&#x2206;" horiz-adv-x="1352" 
d="M586 1438h180l590 -1438h-1362zM1075 170l-289 731q-4 8 -20.5 51t-35.5 94.5t-35.5 94.5t-18.5 49h-4q-2 -6 -18.5 -49t-36 -94.5t-37 -94.5t-19.5 -51l-291 -731h805z" />
    <glyph glyph-name="guillemotleft" unicode="&#xab;" horiz-adv-x="1012" 
d="M427 965l86 -74l-189 -299l189 -299l-86 -74l-316 373zM814 965l86 -74l-189 -299l189 -299l-86 -74l-316 373z" />
    <glyph glyph-name="guillemotright" unicode="&#xbb;" horiz-adv-x="1012" 
d="M901 592l-315 -373l-86 74l188 299l-188 299l86 74zM514 592l-315 -373l-86 74l188 299l-188 299l86 74z" />
    <glyph glyph-name="ellipsis" unicode="&#x2026;" horiz-adv-x="1415" 
d="M240 -16q-60 0 -97 36.5t-37 94.5q0 55 37 93t97 38q59 0 96 -37t37 -94q0 -56 -37 -93.5t-96 -37.5zM707 -16q-60 0 -97 36.5t-37 94.5q0 55 37 93t97 38q59 0 96 -37t37 -94q0 -56 -37 -93.5t-96 -37.5zM1176 -16q-60 0 -97 36.5t-37 94.5q0 55 37 93t97 38
q59 0 96 -37t37 -94q0 -56 -37 -93.5t-96 -37.5z" />
    <glyph glyph-name="uni00A0" unicode="&#xa0;" horiz-adv-x="438" 
 />
    <glyph glyph-name="Agrave" unicode="&#xc0;" horiz-adv-x="1352" 
d="M-6 0q145 356 268 653q51 127 103.5 253t96.5 233.5t76.5 186.5t47.5 112h180l590 -1438h-217l-148 377h-637l-147 -377h-213zM924 547l-138 354q-8 21 -25.5 66t-36 93t-33.5 88t-15 46h-4q0 -6 -14.5 -45t-33 -86t-37 -93t-26.5 -69l-139 -354h502zM463 1801l125 104
l225 -311l-90 -74z" />
    <glyph glyph-name="Atilde" unicode="&#xc3;" horiz-adv-x="1352" 
d="M-6 0q145 356 268 653q51 127 103.5 253t96.5 233.5t76.5 186.5t47.5 112h180l590 -1438h-217l-148 377h-637l-147 -377h-213zM924 547l-138 354q-8 21 -25.5 66t-36 93t-33.5 88t-15 46h-4q0 -6 -14.5 -45t-33 -86t-37 -93t-26.5 -69l-139 -354h502zM361 1565
q0 105 48 167.5t124 62.5q43 0 80.5 -18.5t71.5 -40t63.5 -39t58.5 -17.5q35 0 51.5 30.5t16.5 86.5h112v-31q0 -105 -48 -167.5t-124 -62.5q-43 0 -80.5 17.5t-71.5 39t-63.5 40t-58.5 18.5q-35 0 -51.5 -30.5t-16.5 -86.5h-112v31z" />
    <glyph glyph-name="Otilde" unicode="&#xd5;" horiz-adv-x="1663" 
d="M831 -29q-174 0 -313 60.5t-237.5 163t-151.5 237.5t-53 287q0 151 53 286.5t151.5 238t237.5 162.5t313 60t313.5 -60t238 -162.5t151.5 -238t53 -286.5q0 -152 -53 -287t-151.5 -237.5t-238 -163t-313.5 -60.5zM829 154q119 0 219.5 41t174 115.5t114.5 179t41 229.5
t-41 229.5t-114.5 179t-174 115.5t-219.5 41q-116 0 -216.5 -41t-174.5 -115.5t-114.5 -179t-40.5 -229.5t40.5 -229.5t114.5 -179t174.5 -115.5t216.5 -41zM516 1565q0 105 48 167.5t124 62.5q43 0 80.5 -18.5t71.5 -40t63.5 -39t58.5 -17.5q35 0 51.5 30.5t16.5 86.5h112
v-31q0 -105 -48 -167.5t-124 -62.5q-43 0 -80.5 17.5t-71.5 39t-63.5 40t-58.5 18.5q-35 0 -51.5 -30.5t-16.5 -86.5h-112v31z" />
    <glyph glyph-name="OE" unicode="&#x152;" horiz-adv-x="1923" 
d="M838 0q-172 0 -312.5 48t-240 140.5t-154.5 226.5t-55 304q0 172 54 305t154.5 225t241 140.5t312.5 48.5h978v-172h-579v-418h563v-172h-563v-504h592v-172h-991zM1034 1264h-180q-127 0 -231.5 -34t-179 -101.5t-116.5 -170t-42 -239.5t42 -239.5t116.5 -170
t179 -101.5t231.5 -34h180v1090z" />
    <glyph glyph-name="oe" unicode="&#x153;" horiz-adv-x="2058" 
d="M614 -25q-133 0 -234.5 47.5t-169 122t-102 170t-34.5 191.5t34.5 191.5t102 170t169 121.5t234.5 47q84 0 152.5 -20.5t122 -56t92.5 -83t65 -102.5q25 55 63 102.5t90 83t120.5 56t157.5 20.5q137 0 233 -47t157.5 -122.5t89 -168t27.5 -182.5v-20.5t-2 -26.5h-831
q2 -74 27.5 -136.5t71.5 -106.5t110.5 -69.5t142.5 -25.5q111 0 193 49t129 135l139 -88q-74 -129 -198 -190.5t-273 -61.5q-176 0 -284.5 75t-162.5 190q-26 -56 -65 -104t-92.5 -84t-122 -56.5t-152.5 -20.5zM614 139q74 0 137.5 27t109.5 76t72.5 116.5t26.5 147.5
t-26.5 147.5t-72.5 116.5t-109.5 75.5t-137.5 26.5q-73 0 -136.5 -26.5t-110 -75.5t-73 -116.5t-26.5 -147.5t26.5 -147.5t73 -116.5t110 -76t136.5 -27zM1794 608q-23 129 -110 205t-207 76q-127 0 -212 -78t-108 -203h637z" />
    <glyph glyph-name="endash" unicode="&#x2013;" horiz-adv-x="1032" 
d="M66 735h902v-151h-902v151z" />
    <glyph glyph-name="emdash" unicode="&#x2014;" horiz-adv-x="1544" 
d="M66 735h1414v-151h-1414v151z" />
    <glyph glyph-name="quotedblleft" unicode="&#x201c;" horiz-adv-x="788" 
d="M209 946q-55 0 -94 37t-39 107q0 49 19.5 101t51 101t72.5 93.5t82 74.5l70 -61q-41 -47 -72 -100.5t-37 -100.5q31 -12 55.5 -43t24.5 -78q0 -55 -38 -93t-95 -38zM545 946q-55 0 -94 37t-39 107q0 49 19.5 101t51 101t72.5 93.5t82 74.5l70 -61q-41 -47 -72 -100.5
t-37 -100.5q31 -12 55.5 -43t24.5 -78q0 -55 -38 -93t-95 -38z" />
    <glyph glyph-name="quotedblright" unicode="&#x201d;" horiz-adv-x="788" 
d="M82 1001q41 48 71.5 101t36.5 100q-30 12 -55 43t-25 78q0 55 38 93t96 38q55 0 94 -37t39 -106q0 -49 -19.5 -101.5t-51.5 -101.5t-73 -93t-82 -75zM418 1001q41 48 71.5 101t36.5 100q-30 12 -55 43t-25 78q0 55 38 93t96 38q55 0 94 -37t39 -106q0 -49 -19.5 -101.5
t-51.5 -101.5t-73 -93t-82 -75z" />
    <glyph glyph-name="quoteleft" unicode="&#x2018;" horiz-adv-x="453" 
d="M209 946q-55 0 -94 37t-39 107q0 49 19.5 101t51 101t72.5 93.5t82 74.5l70 -61q-41 -47 -72 -100.5t-37 -100.5q31 -12 55.5 -43t24.5 -78q0 -55 -38 -93t-95 -38z" />
    <glyph glyph-name="quoteright" unicode="&#x2019;" horiz-adv-x="453" 
d="M82 1001q41 48 71.5 101t36.5 100q-30 12 -55 43t-25 78q0 55 38 93t96 38q55 0 94 -37t39 -106q0 -49 -19.5 -101.5t-51.5 -101.5t-73 -93t-82 -75z" />
    <glyph glyph-name="divide" unicode="&#xf7;" horiz-adv-x="1313" 
d="M657 834q-55 0 -91 35.5t-36 88.5q0 54 36 90.5t91 36.5q56 0 91.5 -36.5t35.5 -90.5q0 -53 -35.5 -88.5t-91.5 -35.5zM156 608h1003v-151h-1003v151zM657 -20q-55 0 -91 35.5t-36 88.5q0 54 36 90.5t91 36.5q56 0 91.5 -36.5t35.5 -90.5q0 -53 -35.5 -88.5t-91.5 -35.5z
" />
    <glyph glyph-name="lozenge" unicode="&#x25ca;" horiz-adv-x="1313" 
d="M109 719l439 719h217l438 -719l-438 -719h-217zM320 719l336 -561l336 561l-336 561z" />
    <glyph glyph-name="ydieresis" unicode="&#xff;" horiz-adv-x="1001" 
d="M174 -406q-82 0 -139 25v162q49 -27 119 -27q65 0 107 34t73 106l65 153l-411 965h209l235 -594q33 -80 50.5 -128t19.5 -61h4q2 9 9 31.5t17.5 50t21.5 56t19 51.5l236 594h205l-488 -1137q-24 -57 -52 -108.5t-68 -89t-95 -60.5t-137 -23zM320 1153q-47 0 -79 32
t-32 79t32 77.5t79 30.5q49 0 80.5 -30.5t31.5 -77.5t-31.5 -79t-80.5 -32zM684 1153q-49 0 -80.5 32t-31.5 79t31.5 77.5t80.5 30.5q47 0 79 -30.5t32 -77.5t-32 -79t-79 -32z" />
    <glyph glyph-name="Ydieresis" unicode="&#x178;" horiz-adv-x="1182" 
d="M485 586l-489 852h227l266 -480q4 -8 20.5 -37.5t34 -63.5t32 -64.5t16.5 -38.5h2q2 8 16.5 38.5t31.5 64.5t33.5 63.5t20.5 37.5l269 480h221l-490 -852v-586h-211v586zM410 1559q-47 0 -79 32t-32 79t32 77.5t79 30.5q49 0 80.5 -30.5t31.5 -77.5t-31.5 -79t-80.5 -32z
M774 1559q-49 0 -80.5 32t-31.5 79t31.5 77.5t80.5 30.5q47 0 79 -30.5t32 -77.5t-32 -79t-79 -32z" />
    <glyph glyph-name="fraction" unicode="&#x2044;" horiz-adv-x="963" 
d="M835 1438h140l-848 -1438h-139z" />
    <glyph glyph-name="Euro" unicode="&#x20ac;" horiz-adv-x="1319" 
d="M805 -29q-156 0 -285 56.5t-221 156t-143.5 236.5t-51.5 299t51.5 298t144.5 236.5t222 156.5t285 56q119 0 213 -29.5t166 -82.5v-209q-68 65 -159 103t-212 38q-88 0 -165 -25.5t-139.5 -72.5t-106.5 -113.5t-66 -148.5h708v-109h-731q-4 -18 -5 -46t-1 -52
q0 -23 1 -47.5t5 -40.5h731v-109h-712q20 -84 65 -152.5t107.5 -116.5t140.5 -74.5t168 -26.5q121 0 219 38.5t168 110.5v-207q-72 -55 -172 -89t-225 -34z" />
    <glyph glyph-name="guilsinglleft" unicode="&#x2039;" horiz-adv-x="625" 
d="M427 965l86 -74l-189 -299l189 -299l-86 -74l-316 373z" />
    <glyph glyph-name="guilsinglright" unicode="&#x203a;" horiz-adv-x="625" 
d="M514 592l-315 -373l-86 74l188 299l-188 299l86 74z" />
    <glyph glyph-name="fi" unicode="&#xfb01;" 
d="M916 1157q-54 0 -88.5 33t-34.5 86q0 51 34.5 85t88.5 34q53 0 88 -34t35 -85q0 -53 -35 -86t-88 -33zM819 1012h193v-1012h-193v1012zM197 858h-144v154h144v96q0 164 83.5 259t245.5 95q41 0 80 -5t62 -13v-164q-19 10 -44.5 16.5t-58.5 6.5q-80 0 -127 -46.5
t-47 -154.5v-90h277v-154h-277v-858h-194v858z" />
    <glyph glyph-name="fl" unicode="&#xfb02;" 
d="M820 1438h193v-1438h-193v1438zM197 858h-144v154h144v96q0 164 83.5 259t245.5 95q41 0 80 -5t62 -13v-164q-19 10 -44.5 16.5t-58.5 6.5q-80 0 -127 -46.5t-47 -154.5v-90h277v-154h-277v-858h-194v858z" />
    <glyph glyph-name="daggerdbl" unicode="&#x2021;" horiz-adv-x="1217" 
d="M147 1020h387v418h146v-418h387v-133h-387v-336h387v-133h-387v-418h-146v418h-387v133h387v336h-387v133z" />
    <glyph glyph-name="periodcentered" unicode="&#xb7;" horiz-adv-x="600" 
d="M299 528q-57 0 -94 38t-37 93q0 58 37 95t94 37q59 0 96 -37t37 -95q0 -55 -37 -93t-96 -38z" />
    <glyph glyph-name="quotesinglbase" unicode="&#x201a;" horiz-adv-x="451" 
d="M82 -207q41 47 71.5 100.5t36.5 100.5q-30 12 -55 43t-25 78q0 55 38 93t96 38q55 0 94 -37t39 -107q0 -49 -19.5 -101t-51.5 -101.5t-73 -93.5t-82 -74z" />
    <glyph glyph-name="quotedblbase" unicode="&#x201e;" horiz-adv-x="788" 
d="M82 -207q41 47 71.5 100.5t36.5 100.5q-30 12 -55 43t-25 78q0 55 38 93t96 38q55 0 94 -37t39 -107q0 -49 -19.5 -101t-51.5 -101.5t-73 -93.5t-82 -74zM418 -207q41 47 71.5 100.5t36.5 100.5q-30 12 -55 43t-25 78q0 55 38 93t96 38q55 0 94 -37t39 -107
q0 -49 -19.5 -101t-51.5 -101.5t-73 -93.5t-82 -74z" />
    <glyph glyph-name="perthousand" unicode="&#x2030;" horiz-adv-x="2241" 
d="M401 831q-69 0 -129.5 24t-104.5 65t-69.5 99t-25.5 126q0 69 25.5 126.5t70.5 99.5t105.5 65.5t127.5 23.5q70 0 129.5 -23.5t104.5 -64.5t70.5 -99.5t25.5 -125.5q0 -70 -25.5 -127t-70.5 -99t-105.5 -66t-128.5 -24zM401 961q78 0 131.5 53t53.5 133q0 78 -53.5 131
t-131.5 53t-131 -53t-53 -133q0 -78 53 -131t131 -53zM1083 1438h140l-816 -1438h-139zM1091 -23q-69 0 -129.5 24t-104.5 64.5t-69.5 99t-25.5 126.5q0 69 25.5 126.5t70.5 99.5t105.5 65.5t127.5 23.5q70 0 129.5 -23.5t104.5 -64.5t70.5 -99.5t25.5 -125.5
q0 -70 -25.5 -127t-70.5 -99t-105.5 -66t-128.5 -24zM1091 106q78 0 131.5 53.5t53.5 133.5q0 78 -53.5 131t-131.5 53q-77 0 -130.5 -53t-53.5 -133q0 -78 53.5 -131.5t130.5 -53.5zM1839 -23q-70 0 -130 24t-104.5 64.5t-70 99t-25.5 126.5q0 69 25.5 126.5t71 99.5
t105.5 65.5t128 23.5q70 0 129 -23.5t104.5 -64.5t71 -99.5t25.5 -125.5q0 -70 -25.5 -127t-71 -99t-105.5 -66t-128 -24zM1839 106q78 0 131 53.5t53 133.5q0 78 -53 131t-131 53t-131 -53t-53 -133q0 -78 53 -131.5t131 -53.5z" />
    <glyph glyph-name="Acircumflex" unicode="&#xc2;" horiz-adv-x="1352" 
d="M-6 0q145 356 268 653q51 127 103.5 253t96.5 233.5t76.5 186.5t47.5 112h180l590 -1438h-217l-148 377h-637l-147 -377h-213zM924 547l-138 354q-8 21 -25.5 66t-36 93t-33.5 88t-15 46h-4q0 -6 -14.5 -45t-33 -86t-37 -93t-26.5 -69l-139 -354h502zM355 1596l317 311
l318 -311l-72 -78l-246 193l-246 -193z" />
    <glyph glyph-name="Ecircumflex" unicode="&#xca;" horiz-adv-x="1049" 
d="M234 1596l317 311l318 -311l-72 -78l-246 193l-246 -193zM160 1438h782v-172h-580v-418h564v-172h-564v-504h592v-172h-794v1438z" />
    <glyph glyph-name="Aacute" unicode="&#xc1;" horiz-adv-x="1352" 
d="M-6 0q145 356 268 653q51 127 103.5 253t96.5 233.5t76.5 186.5t47.5 112h180l590 -1438h-217l-148 377h-637l-147 -377h-213zM924 547l-138 354q-8 21 -25.5 66t-36 93t-33.5 88t-15 46h-4q0 -6 -14.5 -45t-33 -86t-37 -93t-26.5 -69l-139 -354h502zM533 1594l226 311
l125 -104l-260 -281z" />
    <glyph glyph-name="Edieresis" unicode="&#xcb;" horiz-adv-x="1049" 
d="M369 1559q-47 0 -79 32t-32 79t32 77.5t79 30.5q49 0 80.5 -30.5t31.5 -77.5t-31.5 -79t-80.5 -32zM733 1559q-49 0 -80.5 32t-31.5 79t31.5 77.5t80.5 30.5q47 0 79 -30.5t32 -77.5t-32 -79t-79 -32zM160 1438h782v-172h-580v-418h564v-172h-564v-504h592v-172h-794
v1438z" />
    <glyph glyph-name="Egrave" unicode="&#xc8;" horiz-adv-x="1049" 
d="M160 1438h782v-172h-580v-418h564v-172h-564v-504h592v-172h-794v1438zM342 1801l125 104l225 -311l-90 -74z" />
    <glyph glyph-name="Iacute" unicode="&#xcd;" horiz-adv-x="522" 
d="M160 1438h202v-1438h-202v1438zM124 1594l226 311l125 -104l-260 -281z" />
    <glyph glyph-name="Icircumflex" unicode="&#xce;" horiz-adv-x="522" 
d="M160 1438h202v-1438h-202v1438zM-56 1596l317 311l318 -311l-72 -78l-246 193l-246 -193z" />
    <glyph glyph-name="Idieresis" unicode="&#xcf;" horiz-adv-x="522" 
d="M160 1438h202v-1438h-202v1438zM81 1559q-47 0 -79 32t-32 79t32 77.5t79 30.5q49 0 80.5 -30.5t31.5 -77.5t-31.5 -79t-80.5 -32zM445 1559q-49 0 -80.5 32t-31.5 79t31.5 77.5t80.5 30.5q47 0 79 -30.5t32 -77.5t-32 -79t-79 -32z" />
    <glyph glyph-name="Igrave" unicode="&#xcc;" horiz-adv-x="522" 
d="M160 1438h202v-1438h-202v1438zM52 1801l125 104l225 -311l-90 -74z" />
    <glyph glyph-name="Oacute" unicode="&#xd3;" horiz-adv-x="1663" 
d="M691 1594l226 311l125 -104l-260 -281zM831 -29q-174 0 -313 60.5t-237.5 163t-151.5 237.5t-53 287q0 151 53 286.5t151.5 238t237.5 162.5t313 60t313.5 -60t238 -162.5t151.5 -238t53 -286.5q0 -152 -53 -287t-151.5 -237.5t-238 -163t-313.5 -60.5zM829 154
q119 0 219.5 41t174 115.5t114.5 179t41 229.5t-41 229.5t-114.5 179t-174 115.5t-219.5 41q-116 0 -216.5 -41t-174.5 -115.5t-114.5 -179t-40.5 -229.5t40.5 -229.5t114.5 -179t174.5 -115.5t216.5 -41z" />
    <glyph glyph-name="Ocircumflex" unicode="&#xd4;" horiz-adv-x="1663" 
d="M512 1596l317 311l318 -311l-72 -78l-246 193l-246 -193zM831 -29q-174 0 -313 60.5t-237.5 163t-151.5 237.5t-53 287q0 151 53 286.5t151.5 238t237.5 162.5t313 60t313.5 -60t238 -162.5t151.5 -238t53 -286.5q0 -152 -53 -287t-151.5 -237.5t-238 -163t-313.5 -60.5z
M829 154q119 0 219.5 41t174 115.5t114.5 179t41 229.5t-41 229.5t-114.5 179t-174 115.5t-219.5 41q-116 0 -216.5 -41t-174.5 -115.5t-114.5 -179t-40.5 -229.5t40.5 -229.5t114.5 -179t174.5 -115.5t216.5 -41z" />
    <glyph glyph-name="apple" horiz-adv-x="1565" 
d="M723 350q-62 0 -116 24.5t-94 74t-62.5 121t-22.5 165.5q0 131 60.5 231.5t179.5 137.5q-82 -53 -116 -142.5t-34 -216.5q0 -69 15.5 -129.5t43 -104.5t66.5 -68.5t86 -24.5t75.5 20.5t30.5 44.5l-2 2q-14 -4 -32.5 -6t-34.5 -2q-35 0 -62.5 21.5t-48 58.5t-32 88
t-11.5 113q0 67 10.5 130.5t36 113t69.5 78t110 28.5q61 0 114 -24.5t93 -73.5t63.5 -121t23.5 -166q0 -131 -61 -232.5t-180 -138.5q82 54 116.5 143t34.5 218q0 69 -15 129.5t-43 104.5t-67 68.5t-86 24.5t-75.5 -20.5t-30.5 -44.5l2 -2q14 4 32.5 6t35.5 2q32 0 61 -21.5
t49.5 -58.5t31.5 -88t11 -113q0 -67 -10 -130.5t-36 -112.5t-70 -78t-109 -29zM727 276q113 0 206 32t158.5 91.5t101.5 144.5t36 193q0 111 -32 195t-85 139t-126 83t-153 28q-114 0 -206.5 -32t-158 -91.5t-101 -144.5t-35.5 -193q0 -111 31.5 -195t85 -139t126 -83
t152.5 -28zM178 1323h1208v-1208h-1208v1208z" />
    <glyph glyph-name="Ograve" unicode="&#xd2;" horiz-adv-x="1663" 
d="M831 -29q-174 0 -313 60.5t-237.5 163t-151.5 237.5t-53 287q0 151 53 286.5t151.5 238t237.5 162.5t313 60t313.5 -60t238 -162.5t151.5 -238t53 -286.5q0 -152 -53 -287t-151.5 -237.5t-238 -163t-313.5 -60.5zM829 154q119 0 219.5 41t174 115.5t114.5 179t41 229.5
t-41 229.5t-114.5 179t-174 115.5t-219.5 41q-116 0 -216.5 -41t-174.5 -115.5t-114.5 -179t-40.5 -229.5t40.5 -229.5t114.5 -179t174.5 -115.5t216.5 -41zM621 1801l125 104l225 -311l-90 -74z" />
    <glyph glyph-name="Uacute" unicode="&#xda;" horiz-adv-x="1395" 
d="M558 1594l226 311l125 -104l-260 -281zM696 -29q-133 0 -235.5 38t-172 106.5t-106.5 165t-37 215.5v942h205v-881q0 -188 83 -295.5t263 -107.5q182 0 265 107.5t83 295.5v881h205v-942q0 -119 -37 -215.5t-107.5 -165t-174 -106.5t-234.5 -38z" />
    <glyph glyph-name="Ucircumflex" unicode="&#xdb;" horiz-adv-x="1395" 
d="M377 1596l317 311l318 -311l-72 -78l-246 193l-246 -193zM696 -29q-133 0 -235.5 38t-172 106.5t-106.5 165t-37 215.5v942h205v-881q0 -188 83 -295.5t263 -107.5q182 0 265 107.5t83 295.5v881h205v-942q0 -119 -37 -215.5t-107.5 -165t-174 -106.5t-234.5 -38z" />
    <glyph glyph-name="Ugrave" unicode="&#xd9;" horiz-adv-x="1395" 
d="M696 -29q-133 0 -235.5 38t-172 106.5t-106.5 165t-37 215.5v942h205v-881q0 -188 83 -295.5t263 -107.5q182 0 265 107.5t83 295.5v881h205v-942q0 -119 -37 -215.5t-107.5 -165t-174 -106.5t-234.5 -38zM485 1801l125 104l225 -311l-90 -74z" />
    <glyph glyph-name="dotlessi" unicode="&#x131;" horiz-adv-x="496" 
d="M152 1012h193v-1012h-193v1012z" />
    <glyph glyph-name="circumflex" unicode="&#x2c6;" horiz-adv-x="868" 
d="M117 1190l317 311l318 -311l-72 -78l-246 193l-246 -193z" />
    <glyph glyph-name="tilde" unicode="&#x2dc;" horiz-adv-x="860" 
d="M117 1159q0 105 48 167.5t124 62.5q43 0 80.5 -18.5t71.5 -40t63.5 -39t58.5 -17.5q35 0 51.5 30.5t16.5 86.5h112v-31q0 -105 -48 -167.5t-124 -62.5q-43 0 -80.5 17.5t-71.5 39t-63.5 40t-58.5 18.5q-35 0 -51.5 -30.5t-16.5 -86.5h-112v31z" />
    <glyph glyph-name="macron" unicode="&#xaf;" horiz-adv-x="797" 
d="M117 1294h563v-139h-563v139z" />
    <glyph glyph-name="breve" unicode="&#x2d8;" horiz-adv-x="823" 
d="M412 1120q-64 0 -117 19.5t-93 55.5t-62.5 87t-22.5 115h131q0 -72 48 -111t116 -39q67 0 115 39t48 111h131q0 -64 -22.5 -115t-62 -87t-93 -55.5t-116.5 -19.5z" />
    <glyph glyph-name="dotaccent" unicode="&#x2d9;" horiz-adv-x="467" 
d="M233 1161q-51 0 -83.5 33t-32.5 82t32.5 82t83.5 33q52 0 84.5 -33t32.5 -82t-32.5 -82t-84.5 -33z" />
    <glyph glyph-name="ring" unicode="&#x2da;" horiz-adv-x="729" 
d="M364 1120q-51 0 -96 16.5t-78.5 47t-53 73.5t-19.5 95q0 51 19.5 94t53 73.5t78.5 47t96 16.5q52 0 97 -16.5t78.5 -47t53 -73.5t19.5 -94q0 -52 -19.5 -95t-53 -73.5t-78.5 -47t-97 -16.5zM364 1225q54 0 89.5 36.5t35.5 90.5q0 53 -35.5 90t-89.5 37q-53 0 -88.5 -37
t-35.5 -90q0 -54 35.5 -90.5t88.5 -36.5z" />
    <glyph glyph-name="cedilla" unicode="&#xb8;" horiz-adv-x="512" 
d="M117 -360q53 45 76.5 107.5t23.5 137.5h178q0 -53 -17.5 -101t-47 -89t-68.5 -72t-82 -49z" />
    <glyph glyph-name="hungarumlaut" unicode="&#x2dd;" horiz-adv-x="756" 
d="M360 1452l-139 -338l-104 35l96 354zM639 1452l-139 -338l-105 35l96 354z" />
    <glyph glyph-name="ogonek" unicode="&#x2db;" horiz-adv-x="621" 
d="M422 0q-66 -43 -112 -92t-46 -107q0 -47 36 -69.5t95 -22.5q29 0 57.5 5t51.5 18v-123q-27 -12 -67 -21.5t-87 -9.5q-96 0 -164.5 45t-68.5 135q0 43 15 80t40 68t54.5 54.5t58.5 39.5h137z" />
    <glyph glyph-name="caron" unicode="&#x2c7;" horiz-adv-x="868" 
d="M117 1423l71 78l246 -192l246 192l72 -78l-318 -311z" />
    <glyph glyph-name="uni00AD" unicode="&#xad;" horiz-adv-x="666" 
d="M86 752h493v-185h-493v185z" />
    <glyph glyph-name="commaaccent" unicode="&#x326;" horiz-adv-x="526" 
d="M117 -414l98 299h195l-175 -299h-118z" />
    <glyph glyph-name="commatop" unicode="&#x312;" horiz-adv-x="526" 
d="M291 1427h119l-99 -299h-194z" />
    <glyph glyph-name="caronslovak" unicode="&#x315;" horiz-adv-x="481" 
d="M117 1143l59 348h188l-133 -348h-114z" />
    <glyph glyph-name="Amacron" unicode="&#x100;" horiz-adv-x="1352" 
d="M-6 0q145 356 268 653q51 127 103.5 253t96.5 233.5t76.5 186.5t47.5 112h180l590 -1438h-217l-148 377h-637l-147 -377h-213zM924 547l-138 354q-8 21 -25.5 66t-36 93t-33.5 88t-15 46h-4q0 -6 -14.5 -45t-33 -86t-37 -93t-26.5 -69l-139 -354h502zM391 1700h563v-139
h-563v139z" />
    <glyph glyph-name="Abreve" unicode="&#x102;" horiz-adv-x="1352" 
d="M-6 0q145 356 268 653q51 127 103.5 253t96.5 233.5t76.5 186.5t47.5 112h180l590 -1438h-217l-148 377h-637l-147 -377h-213zM924 547l-138 354q-8 21 -25.5 66t-36 93t-33.5 88t-15 46h-4q0 -6 -14.5 -45t-33 -86t-37 -93t-26.5 -69l-139 -354h502zM674 1526
q-64 0 -117 19.5t-93 55.5t-62.5 87t-22.5 115h131q0 -72 48 -111t116 -39q67 0 115 39t48 111h131q0 -64 -22.5 -115t-62 -87t-93 -55.5t-116.5 -19.5z" />
    <glyph glyph-name="Aogonek" unicode="&#x104;" horiz-adv-x="1352" 
d="M1284 -422q-96 0 -164.5 45t-68.5 135q0 43 15 80t39.5 68t54.5 54.5t58 39.5h-79l-148 377h-637l-147 -377h-213q145 356 268 653q51 127 103.5 253t96.5 233.5t76.5 186.5t47.5 112h180l590 -1438q-66 -43 -112 -92t-46 -107q0 -47 36 -69.5t95 -22.5q29 0 57.5 5
t51.5 18v-123q-27 -12 -67 -21.5t-87 -9.5zM924 547l-138 354q-8 21 -25.5 66t-36 93t-33.5 88t-15 46h-4q0 -6 -14.5 -45t-33 -86t-37 -93t-26.5 -69l-139 -354h502z" />
    <glyph glyph-name="Cacute" unicode="&#x106;" horiz-adv-x="1358" 
d="M646 1594l226 311l125 -104l-260 -281zM823 -29q-166 0 -303 56.5t-235.5 156t-153.5 236.5t-55 299t55 298t154.5 236.5t236.5 156.5t303 56q129 0 230.5 -30.5t179.5 -83.5v-213q-72 67 -170 106t-232 39q-120 0 -221.5 -42t-174.5 -116.5t-113.5 -179t-40.5 -227.5
t39.5 -227.5t112.5 -179t174.5 -116.5t223.5 -42q134 0 240.5 39.5t179.5 113.5v-211q-78 -57 -186.5 -91t-243.5 -34z" />
    <glyph glyph-name="Ccaron" unicode="&#x10c;" horiz-adv-x="1358" 
d="M467 1829l71 78l246 -192l246 192l72 -78l-318 -311zM823 -29q-166 0 -303 56.5t-235.5 156t-153.5 236.5t-55 299t55 298t154.5 236.5t236.5 156.5t303 56q129 0 230.5 -30.5t179.5 -83.5v-213q-72 67 -170 106t-232 39q-120 0 -221.5 -42t-174.5 -116.5t-113.5 -179
t-40.5 -227.5t39.5 -227.5t112.5 -179t174.5 -116.5t223.5 -42q134 0 240.5 39.5t179.5 113.5v-211q-78 -57 -186.5 -91t-243.5 -34z" />
    <glyph glyph-name="Ccircumflex" unicode="&#x108;" horiz-adv-x="1358" 
d="M467 1596l317 311l318 -311l-72 -78l-246 193l-246 -193zM823 -29q-166 0 -303 56.5t-235.5 156t-153.5 236.5t-55 299t55 298t154.5 236.5t236.5 156.5t303 56q129 0 230.5 -30.5t179.5 -83.5v-213q-72 67 -170 106t-232 39q-120 0 -221.5 -42t-174.5 -116.5
t-113.5 -179t-40.5 -227.5t39.5 -227.5t112.5 -179t174.5 -116.5t223.5 -42q134 0 240.5 39.5t179.5 113.5v-211q-78 -57 -186.5 -91t-243.5 -34z" />
    <glyph glyph-name="Cdotaccent" unicode="&#x10a;" horiz-adv-x="1358" 
d="M823 -29q-166 0 -303 56.5t-235.5 156t-153.5 236.5t-55 299t55 298t154.5 236.5t236.5 156.5t303 56q129 0 230.5 -30.5t179.5 -83.5v-213q-72 67 -170 106t-232 39q-120 0 -221.5 -42t-174.5 -116.5t-113.5 -179t-40.5 -227.5t39.5 -227.5t112.5 -179t174.5 -116.5
t223.5 -42q134 0 240.5 39.5t179.5 113.5v-211q-78 -57 -186.5 -91t-243.5 -34zM784 1567q-51 0 -83.5 33t-32.5 82t32.5 82t83.5 33q52 0 84.5 -33t32.5 -82t-32.5 -82t-84.5 -33z" />
    <glyph glyph-name="Dcaron" unicode="&#x10e;" horiz-adv-x="1405" 
d="M299 1829l71 78l246 -192l246 192l72 -78l-318 -311zM160 1438h407q172 0 312.5 -48.5t241 -140.5t154.5 -225t54 -305q0 -170 -55.5 -304t-154.5 -226.5t-239.5 -140.5t-312.5 -48h-407v1438zM362 174h189q125 0 230.5 34t180 101.5t116.5 170t42 239.5t-42 239.5
t-116.5 170t-180 101.5t-230.5 34h-189v-1090z" />
    <glyph glyph-name="Dcroat" unicode="&#x110;" horiz-adv-x="1430" 
d="M14 840h170v598h408q172 0 312 -48.5t240.5 -140.5t155 -225t54.5 -305q0 -170 -55.5 -304t-155 -226.5t-239.5 -140.5t-312 -48h-408v682h-170v158zM387 840h338v-158h-338v-508h188q125 0 230.5 34t180.5 101.5t117 170t42 239.5t-42 239.5t-117 170t-180.5 101.5
t-230.5 34h-188v-424z" />
    <glyph glyph-name="Ebreve" unicode="&#x114;" horiz-adv-x="1049" 
d="M160 1438h782v-172h-580v-418h564v-172h-564v-504h592v-172h-794v1438zM553 1526q-64 0 -117 19.5t-93 55.5t-62.5 87t-22.5 115h131q0 -72 48 -111t116 -39q67 0 115 39t48 111h131q0 -64 -22.5 -115t-62 -87t-93 -55.5t-116.5 -19.5z" />
    <glyph glyph-name="Ecaron" unicode="&#x11a;" horiz-adv-x="1049" 
d="M234 1829l71 78l246 -192l246 192l72 -78l-318 -311zM160 1438h782v-172h-580v-418h564v-172h-564v-504h592v-172h-794v1438z" />
    <glyph glyph-name="Edotaccent" unicode="&#x116;" horiz-adv-x="1049" 
d="M160 1438h782v-172h-580v-418h564v-172h-564v-504h592v-172h-794v1438zM550 1567q-51 0 -83.5 33t-32.5 82t32.5 82t83.5 33q52 0 84.5 -33t32.5 -82t-32.5 -82t-84.5 -33z" />
    <glyph glyph-name="Emacron" unicode="&#x112;" horiz-adv-x="1049" 
d="M160 1438h782v-172h-580v-418h564v-172h-564v-504h592v-172h-794v1438zM271 1700h563v-139h-563v139z" />
    <glyph glyph-name="Eogonek" unicode="&#x118;" horiz-adv-x="1049" 
d="M160 1438h782v-172h-580v-418h564v-172h-564v-504h592v-172q-65 -43 -111 -92t-46 -107q0 -47 35.5 -69.5t95.5 -22.5q28 0 57 5t51 18v-123q-26 -12 -66 -21.5t-87 -9.5q-97 0 -165.5 45t-68.5 135q0 43 15.5 80t40 68t54 54.5t58.5 39.5h-657v1438z" />
    <glyph glyph-name="Gbreve" unicode="&#x11e;" horiz-adv-x="1636" 
d="M831 -29q-165 0 -303.5 56.5t-239 156t-156.5 236.5t-56 299t56 298t156.5 236.5t240 156.5t302.5 56q119 0 217.5 -25.5t177 -70.5t140 -104.5t104.5 -126.5l-159 -119q-66 113 -183.5 189.5t-296.5 76.5q-120 0 -220.5 -41t-174.5 -115.5t-115 -179t-41 -231.5
t41 -231.5t115 -179.5t174.5 -115.5t220.5 -40.5q113 0 203 34.5t155.5 94t105.5 138.5t50 167h-479v168h692v-31q0 -154 -49 -291t-142 -239.5t-228.5 -162t-307.5 -59.5zM832 1526q-64 0 -117 19.5t-93 55.5t-62.5 87t-22.5 115h131q0 -72 48 -111t116 -39q67 0 115 39
t48 111h131q0 -64 -22.5 -115t-62 -87t-93 -55.5t-116.5 -19.5z" />
    <glyph glyph-name="Gcircumflex" unicode="&#x11c;" horiz-adv-x="1636" 
d="M512 1596l317 311l318 -311l-72 -78l-246 193l-246 -193zM831 -29q-165 0 -303.5 56.5t-239 156t-156.5 236.5t-56 299t56 298t156.5 236.5t240 156.5t302.5 56q119 0 217.5 -25.5t177 -70.5t140 -104.5t104.5 -126.5l-159 -119q-66 113 -183.5 189.5t-296.5 76.5
q-120 0 -220.5 -41t-174.5 -115.5t-115 -179t-41 -231.5t41 -231.5t115 -179.5t174.5 -115.5t220.5 -40.5q113 0 203 34.5t155.5 94t105.5 138.5t50 167h-479v168h692v-31q0 -154 -49 -291t-142 -239.5t-228.5 -162t-307.5 -59.5z" />
    <glyph glyph-name="Gcommaaccent" unicode="&#x122;" horiz-adv-x="1636" 
d="M645 -414l98 299h195l-175 -299h-118zM831 -29q-165 0 -303.5 56.5t-239 156t-156.5 236.5t-56 299t56 298t156.5 236.5t240 156.5t302.5 56q119 0 217.5 -25.5t177 -70.5t140 -104.5t104.5 -126.5l-159 -119q-66 113 -183.5 189.5t-296.5 76.5q-120 0 -220.5 -41
t-174.5 -115.5t-115 -179t-41 -231.5t41 -231.5t115 -179.5t174.5 -115.5t220.5 -40.5q113 0 203 34.5t155.5 94t105.5 138.5t50 167h-479v168h692v-31q0 -154 -49 -291t-142 -239.5t-228.5 -162t-307.5 -59.5z" />
    <glyph glyph-name="Gdotaccent" unicode="&#x120;" horiz-adv-x="1636" 
d="M831 -29q-165 0 -303.5 56.5t-239 156t-156.5 236.5t-56 299t56 298t156.5 236.5t240 156.5t302.5 56q119 0 217.5 -25.5t177 -70.5t140 -104.5t104.5 -126.5l-159 -119q-66 113 -183.5 189.5t-296.5 76.5q-120 0 -220.5 -41t-174.5 -115.5t-115 -179t-41 -231.5
t41 -231.5t115 -179.5t174.5 -115.5t220.5 -40.5q113 0 203 34.5t155.5 94t105.5 138.5t50 167h-479v168h692v-31q0 -154 -49 -291t-142 -239.5t-228.5 -162t-307.5 -59.5zM831 1567q-51 0 -83.5 33t-32.5 82t32.5 82t83.5 33q52 0 84.5 -33t32.5 -82t-32.5 -82t-84.5 -33z
" />
    <glyph glyph-name="Hbar" unicode="&#x126;" horiz-adv-x="1524" 
d="M55 1145h127v293h203v-293h754v293h202v-293h127v-156h-127v-989h-202v590h-754v-590h-203v989h-127v156zM1139 764v225h-754v-225h754z" />
    <glyph glyph-name="Hcircumflex" unicode="&#x124;" horiz-adv-x="1479" 
d="M420 1596l317 311l318 -311l-72 -78l-246 193l-246 -193zM160 1438h202v-590h754v590h203v-1438h-203v674h-754v-674h-202v1438z" />
    <glyph glyph-name="Ibreve" unicode="&#x12c;" horiz-adv-x="522" 
d="M160 1438h202v-1438h-202v1438zM263 1526q-64 0 -117 19.5t-93 55.5t-62.5 87t-22.5 115h131q0 -72 48 -111t116 -39q67 0 115 39t48 111h131q0 -64 -22.5 -115t-62 -87t-93 -55.5t-116.5 -19.5z" />
    <glyph glyph-name="Imacron" unicode="&#x12a;" horiz-adv-x="522" 
d="M160 1438h202v-1438h-202v1438zM-17 1700h563v-139h-563v139z" />
    <glyph glyph-name="Iogonek" unicode="&#x12e;" horiz-adv-x="522" 
d="M291 -422q-97 0 -165.5 45t-68.5 135q0 43 15.5 80t40 68t54.5 54.5t58 39.5h-65v1438h202v-1438q-65 -43 -111 -92t-46 -107q0 -47 35.5 -69.5t95.5 -22.5q28 0 57 5t51 18v-123q-26 -12 -66 -21.5t-87 -9.5z" />
    <glyph glyph-name="Itilde" unicode="&#x128;" horiz-adv-x="522" 
d="M160 1438h202v-1438h-202v1438zM-50 1565q0 105 48 167.5t124 62.5q43 0 80.5 -18.5t71.5 -40t63.5 -39t58.5 -17.5q35 0 51.5 30.5t16.5 86.5h112v-31q0 -105 -48 -167.5t-124 -62.5q-43 0 -80.5 17.5t-71.5 39t-63.5 40t-58.5 18.5q-35 0 -51.5 -30.5t-16.5 -86.5h-112
v31z" />
    <glyph glyph-name="Idotaccent" unicode="&#x130;" horiz-adv-x="522" 
d="M160 1438h202v-1438h-202v1438zM260 1567q-51 0 -83.5 33t-32.5 82t32.5 82t83.5 33q52 0 84.5 -33t32.5 -82t-32.5 -82t-84.5 -33z" />
    <glyph glyph-name="IJ" unicode="&#x132;" horiz-adv-x="1352" 
d="M160 1438h202v-1438h-202v1438zM842 -29q-121 0 -204 52.5t-124 123.5l129 117q29 -47 71 -79.5t109 -32.5q86 0 124 53t38 143v1090h203v-1116q0 -170 -94.5 -260.5t-251.5 -90.5z" />
    <glyph glyph-name="Jcircumflex" unicode="&#x134;" horiz-adv-x="829" 
d="M256 1596l317 311l318 -311l-72 -78l-246 193l-246 -193zM330 -29q-121 0 -204 52.5t-124 123.5l129 117q29 -47 71 -79.5t109 -32.5q86 0 124 53t38 143v1090h203v-1116q0 -170 -94.5 -260.5t-251.5 -90.5z" />
    <glyph glyph-name="Kcommaaccent" unicode="&#x136;" horiz-adv-x="1219" 
d="M439 -414l98 299h195l-175 -299h-118zM160 1438h202v-668l594 668h246l-616 -686l645 -752h-254l-615 727v-727h-202v1438z" />
    <glyph glyph-name="Lacute" unicode="&#x139;" horiz-adv-x="864" 
d="M124 1594l226 311l125 -104l-260 -281zM160 1438h202v-1264h465v-174h-667v1438z" />
    <glyph glyph-name="Lcaron" unicode="&#x13d;" horiz-adv-x="864" 
d="M451 1091l59 348h188l-133 -348h-114zM160 1438h202v-1264h465v-174h-667v1438z" />
    <glyph glyph-name="Lcommaaccent" unicode="&#x13b;" horiz-adv-x="864" 
d="M316 -414l98 299h195l-175 -299h-118zM160 1438h202v-1264h465v-174h-667v1438z" />
    <glyph glyph-name="Ldot" unicode="&#x13f;" horiz-adv-x="905" 
d="M160 1438h202v-1264h465v-174h-667v1438zM641 693q-51 0 -83.5 33t-32.5 82t32.5 82t83.5 33q52 0 84.5 -33t32.5 -82t-32.5 -82t-84.5 -33z" />
    <glyph glyph-name="Nacute" unicode="&#x143;" horiz-adv-x="1626" 
d="M672 1594l226 311l125 -104l-260 -281zM160 1438h155l815 -932q9 -10 31.5 -37t45 -55.5t42 -54t23.5 -33.5l4 2q-2 8 -3 38.5t-1 66.5v70v48v887h196v-1438h-157l-815 932q-11 10 -32.5 36.5t-44 55.5t-42 54.5t-23.5 33.5l-2 -2q0 -8 1 -39t2 -66.5t1 -69.5v-48v-887
h-196v1438z" />
    <glyph glyph-name="Ncaron" unicode="&#x147;" horiz-adv-x="1626" 
d="M494 1829l71 78l246 -192l246 192l72 -78l-318 -311zM160 1438h155l815 -932q9 -10 31.5 -37t45 -55.5t42 -54t23.5 -33.5l4 2q-2 8 -3 38.5t-1 66.5v70v48v887h196v-1438h-157l-815 932q-11 10 -32.5 36.5t-44 55.5t-42 54.5t-23.5 33.5l-2 -2q0 -8 1 -39t2 -66.5
t1 -69.5v-48v-887h-196v1438z" />
    <glyph glyph-name="Ncommaaccent" unicode="&#x145;" horiz-adv-x="1626" 
d="M627 -414l98 299h195l-175 -299h-118zM160 1438h155l815 -932q9 -10 31.5 -37t45 -55.5t42 -54t23.5 -33.5l4 2q-2 8 -3 38.5t-1 66.5v70v48v887h196v-1438h-157l-815 932q-11 10 -32.5 36.5t-44 55.5t-42 54.5t-23.5 33.5l-2 -2q0 -8 1 -39t2 -66.5t1 -69.5v-48v-887
h-196v1438z" />
    <glyph glyph-name="Obreve" unicode="&#x14e;" horiz-adv-x="1663" 
d="M831 -29q-174 0 -313 60.5t-237.5 163t-151.5 237.5t-53 287q0 151 53 286.5t151.5 238t237.5 162.5t313 60t313.5 -60t238 -162.5t151.5 -238t53 -286.5q0 -152 -53 -287t-151.5 -237.5t-238 -163t-313.5 -60.5zM829 154q119 0 219.5 41t174 115.5t114.5 179t41 229.5
t-41 229.5t-114.5 179t-174 115.5t-219.5 41q-116 0 -216.5 -41t-174.5 -115.5t-114.5 -179t-40.5 -229.5t40.5 -229.5t114.5 -179t174.5 -115.5t216.5 -41zM830 1526q-64 0 -117 19.5t-93 55.5t-62.5 87t-22.5 115h131q0 -72 48 -111t116 -39q67 0 115 39t48 111h131
q0 -64 -22.5 -115t-62 -87t-93 -55.5t-116.5 -19.5z" />
    <glyph glyph-name="Ohungarumlaut" unicode="&#x150;" horiz-adv-x="1663" 
d="M862 1858l-139 -338l-104 35l96 354zM1141 1858l-139 -338l-105 35l96 354zM831 -29q-174 0 -313 60.5t-237.5 163t-151.5 237.5t-53 287q0 151 53 286.5t151.5 238t237.5 162.5t313 60t313.5 -60t238 -162.5t151.5 -238t53 -286.5q0 -152 -53 -287t-151.5 -237.5
t-238 -163t-313.5 -60.5zM829 154q119 0 219.5 41t174 115.5t114.5 179t41 229.5t-41 229.5t-114.5 179t-174 115.5t-219.5 41q-116 0 -216.5 -41t-174.5 -115.5t-114.5 -179t-40.5 -229.5t40.5 -229.5t114.5 -179t174.5 -115.5t216.5 -41z" />
    <glyph glyph-name="Omacron" unicode="&#x14c;" horiz-adv-x="1663" 
d="M549 1700h563v-139h-563v139zM831 -29q-174 0 -313 60.5t-237.5 163t-151.5 237.5t-53 287q0 151 53 286.5t151.5 238t237.5 162.5t313 60t313.5 -60t238 -162.5t151.5 -238t53 -286.5q0 -152 -53 -287t-151.5 -237.5t-238 -163t-313.5 -60.5zM829 154q119 0 219.5 41
t174 115.5t114.5 179t41 229.5t-41 229.5t-114.5 179t-174 115.5t-219.5 41q-116 0 -216.5 -41t-174.5 -115.5t-114.5 -179t-40.5 -229.5t40.5 -229.5t114.5 -179t174.5 -115.5t216.5 -41z" />
    <glyph glyph-name="Racute" unicode="&#x154;" horiz-adv-x="1151" 
d="M435 1594l226 311l125 -104l-260 -281zM160 1438h415q101 0 188 -27t151.5 -79t101.5 -133t37 -187q0 -168 -100.5 -273.5t-264.5 -132.5l440 -606h-237l-416 586h-113v-586h-202v1438zM553 752q141 0 218 69.5t77 188.5q0 118 -77 188t-218 70h-191v-516h191z" />
    <glyph glyph-name="Rcaron" unicode="&#x158;" horiz-adv-x="1151" 
d="M254 1829l71 78l246 -192l246 192l72 -78l-318 -311zM160 1438h415q101 0 188 -27t151.5 -79t101.5 -133t37 -187q0 -168 -100.5 -273.5t-264.5 -132.5l440 -606h-237l-416 586h-113v-586h-202v1438zM553 752q141 0 218 69.5t77 188.5q0 118 -77 188t-218 70h-191v-516
h191z" />
    <glyph glyph-name="Rcommaaccent" unicode="&#x156;" horiz-adv-x="1151" 
d="M387 -414l98 299h195l-175 -299h-118zM160 1438h415q101 0 188 -27t151.5 -79t101.5 -133t37 -187q0 -168 -100.5 -273.5t-264.5 -132.5l440 -606h-237l-416 586h-113v-586h-202v1438zM553 752q141 0 218 69.5t77 188.5q0 118 -77 188t-218 70h-191v-516h191z" />
    <glyph glyph-name="Sacute" unicode="&#x15a;" horiz-adv-x="1079" 
d="M402 1594l226 311l125 -104l-260 -281zM522 -29q-92 0 -169 22.5t-139 61.5t-110.5 92.5t-83.5 112.5l138 117q26 -43 60 -84t78 -73t99.5 -51t122.5 -19q119 0 200 62t81 181q0 64 -24.5 109t-67.5 77.5t-101.5 58.5t-124.5 52q-67 27 -132.5 59.5t-116 77.5t-82 106.5
t-31.5 147.5t31.5 157t89 121t137.5 78.5t176 28.5q154 0 257 -62.5t165 -154.5l-137 -116q-41 65 -111 110t-174 45q-105 0 -168.5 -50t-63.5 -142q0 -56 25 -94.5t62.5 -66.5t86 -48.5t95.5 -38.5q76 -31 149.5 -65.5t132 -85t94 -121t35.5 -168.5q0 -95 -33.5 -174.5
t-95 -138t-150.5 -91.5t-200 -33z" />
    <glyph glyph-name="Scedilla" unicode="&#x15e;" horiz-adv-x="1079" 
d="M522 -29q-92 0 -169 22.5t-139 61.5t-110.5 92.5t-83.5 112.5l138 117q26 -43 60 -84t78 -73t99.5 -51t122.5 -19q119 0 200 62t81 181q0 64 -24.5 109t-67.5 77.5t-101.5 58.5t-124.5 52q-67 27 -132.5 59.5t-116 77.5t-82 106.5t-31.5 147.5t31.5 157t89 121
t137.5 78.5t176 28.5q154 0 257 -62.5t165 -154.5l-137 -116q-41 65 -111 110t-174 45q-105 0 -168.5 -50t-63.5 -142q0 -56 25 -94.5t62.5 -66.5t86 -48.5t95.5 -38.5q76 -31 149.5 -65.5t132 -85t94 -121t35.5 -168.5q0 -95 -33.5 -174.5t-95 -138t-150.5 -91.5t-200 -33z
M359 -360q53 45 76.5 107.5t23.5 137.5h178q0 -53 -17.5 -101t-47 -89t-68.5 -72t-82 -49z" />
    <glyph glyph-name="Scircumflex" unicode="&#x15c;" horiz-adv-x="1079" 
d="M221 1596l317 311l318 -311l-72 -78l-246 193l-246 -193zM522 -29q-92 0 -169 22.5t-139 61.5t-110.5 92.5t-83.5 112.5l138 117q26 -43 60 -84t78 -73t99.5 -51t122.5 -19q119 0 200 62t81 181q0 64 -24.5 109t-67.5 77.5t-101.5 58.5t-124.5 52q-67 27 -132.5 59.5
t-116 77.5t-82 106.5t-31.5 147.5t31.5 157t89 121t137.5 78.5t176 28.5q154 0 257 -62.5t165 -154.5l-137 -116q-41 65 -111 110t-174 45q-105 0 -168.5 -50t-63.5 -142q0 -56 25 -94.5t62.5 -66.5t86 -48.5t95.5 -38.5q76 -31 149.5 -65.5t132 -85t94 -121t35.5 -168.5
q0 -95 -33.5 -174.5t-95 -138t-150.5 -91.5t-200 -33z" />
    <glyph glyph-name="Scommaaccent" unicode="&#x218;" horiz-adv-x="1079" 
d="M355 -414l98 299h195l-175 -299h-118zM522 -29q-92 0 -169 22.5t-139 61.5t-110.5 92.5t-83.5 112.5l138 117q26 -43 60 -84t78 -73t99.5 -51t122.5 -19q119 0 200 62t81 181q0 64 -24.5 109t-67.5 77.5t-101.5 58.5t-124.5 52q-67 27 -132.5 59.5t-116 77.5t-82 106.5
t-31.5 147.5t31.5 157t89 121t137.5 78.5t176 28.5q154 0 257 -62.5t165 -154.5l-137 -116q-41 65 -111 110t-174 45q-105 0 -168.5 -50t-63.5 -142q0 -56 25 -94.5t62.5 -66.5t86 -48.5t95.5 -38.5q76 -31 149.5 -65.5t132 -85t94 -121t35.5 -168.5q0 -95 -33.5 -174.5
t-95 -138t-150.5 -91.5t-200 -33z" />
    <glyph glyph-name="Tbar" unicode="&#x166;" horiz-adv-x="1042" 
d="M119 805h301v459h-410v174h1022v-174h-410v-459h302v-160h-302v-645h-202v645h-301v160z" />
    <glyph glyph-name="Tcaron" unicode="&#x164;" horiz-adv-x="1042" 
d="M201 1829l71 78l246 -192l246 192l72 -78l-318 -311zM420 1264h-410v174h1022v-174h-410v-1264h-202v1264z" />
    <glyph glyph-name="Tcommaaccent" unicode="&#x162;" horiz-adv-x="1042" 
d="M336 -414l98 299h195l-175 -299h-118zM420 1264h-410v174h1022v-174h-410v-1264h-202v1264z" />
    <glyph glyph-name="uni021A" unicode="&#x21a;" horiz-adv-x="1042" 
d="M336 -414l98 299h195l-175 -299h-118zM420 1264h-410v174h1022v-174h-410v-1264h-202v1264z" />
    <glyph glyph-name="Ubreve" unicode="&#x16c;" horiz-adv-x="1395" 
d="M696 -29q-133 0 -235.5 38t-172 106.5t-106.5 165t-37 215.5v942h205v-881q0 -188 83 -295.5t263 -107.5q182 0 265 107.5t83 295.5v881h205v-942q0 -119 -37 -215.5t-107.5 -165t-174 -106.5t-234.5 -38zM697 1526q-64 0 -117 19.5t-93 55.5t-62.5 87t-22.5 115h131
q0 -72 48 -111t116 -39q67 0 115 39t48 111h131q0 -64 -22.5 -115t-62 -87t-93 -55.5t-116.5 -19.5z" />
    <glyph glyph-name="Uhungarumlaut" unicode="&#x170;" horiz-adv-x="1395" 
d="M696 -29q-133 0 -235.5 38t-172 106.5t-106.5 165t-37 215.5v942h205v-881q0 -188 83 -295.5t263 -107.5q182 0 265 107.5t83 295.5v881h205v-942q0 -119 -37 -215.5t-107.5 -165t-174 -106.5t-234.5 -38zM729 1858l-139 -338l-104 35l96 354zM1008 1858l-139 -338
l-105 35l96 354z" />
    <glyph glyph-name="Umacron" unicode="&#x16a;" horiz-adv-x="1395" 
d="M696 -29q-133 0 -235.5 38t-172 106.5t-106.5 165t-37 215.5v942h205v-881q0 -188 83 -295.5t263 -107.5q182 0 265 107.5t83 295.5v881h205v-942q0 -119 -37 -215.5t-107.5 -165t-174 -106.5t-234.5 -38zM416 1700h563v-139h-563v139z" />
    <glyph glyph-name="Uogonek" unicode="&#x172;" horiz-adv-x="1395" 
d="M747 -422q-96 0 -164.5 45t-68.5 135q0 72 43 129.5t104 87.5q-127 5 -223 43.5t-160.5 107.5t-98.5 163t-34 207v942h205v-881q0 -188 83 -295.5t263 -107.5q182 0 265 107.5t83 295.5v881h205v-942q0 -213 -106.5 -338t-290.5 -170q-86 -23 -138.5 -76t-52.5 -111
q0 -47 36 -69.5t95 -22.5q29 0 57.5 5t51.5 18v-123q-27 -12 -66.5 -21.5t-87.5 -9.5z" />
    <glyph glyph-name="Uring" unicode="&#x16e;" horiz-adv-x="1395" 
d="M696 1511q-51 0 -96 16.5t-78.5 47t-53 73.5t-19.5 95q0 51 19.5 94t53 73.5t78.5 47t96 16.5q52 0 97 -16.5t78.5 -47t53 -73.5t19.5 -94q0 -52 -19.5 -95t-53 -73.5t-78.5 -47t-97 -16.5zM696 1616q54 0 89.5 36.5t35.5 90.5q0 53 -35.5 90t-89.5 37q-53 0 -88.5 -37
t-35.5 -90q0 -54 35.5 -90.5t88.5 -36.5zM696 -29q-133 0 -235.5 38t-172 106.5t-106.5 165t-37 215.5v942h205v-881q0 -188 83 -295.5t263 -107.5q182 0 265 107.5t83 295.5v881h205v-942q0 -119 -37 -215.5t-107.5 -165t-174 -106.5t-234.5 -38z" />
    <glyph glyph-name="Utilde" unicode="&#x168;" horiz-adv-x="1395" 
d="M696 -29q-133 0 -235.5 38t-172 106.5t-106.5 165t-37 215.5v942h205v-881q0 -188 83 -295.5t263 -107.5q182 0 265 107.5t83 295.5v881h205v-942q0 -119 -37 -215.5t-107.5 -165t-174 -106.5t-234.5 -38zM383 1565q0 105 48 167.5t124 62.5q43 0 80.5 -18.5t71.5 -40
t63.5 -39t58.5 -17.5q35 0 51.5 30.5t16.5 86.5h112v-31q0 -105 -48 -167.5t-124 -62.5q-43 0 -80.5 17.5t-71.5 39t-63.5 40t-58.5 18.5q-35 0 -51.5 -30.5t-16.5 -86.5h-112v31z" />
    <glyph glyph-name="Wacute" unicode="&#x1e82;" horiz-adv-x="2140" 
d="M930 1594l226 311l125 -104l-260 -281zM4 1438h215l295 -854q4 -13 17.5 -54t26.5 -87t25.5 -86t12.5 -52h4q0 12 12.5 52t26.5 86t28.5 87t18.5 54l307 854h162l307 -854q4 -13 18.5 -54t29 -87t26.5 -86t12 -52h4q2 12 13.5 52t26 86t27.5 87t17 54l293 854h207
l-506 -1438h-156l-331 897q-4 12 -15.5 45t-22.5 71t-21.5 71.5t-10.5 45.5h-4q0 -12 -10.5 -45.5t-22.5 -71.5t-23.5 -71t-15.5 -45l-329 -897h-156z" />
    <glyph glyph-name="Wcircumflex" unicode="&#x174;" horiz-adv-x="2140" 
d="M752 1596l317 311l318 -311l-72 -78l-246 193l-246 -193zM4 1438h215l295 -854q4 -13 17.5 -54t26.5 -87t25.5 -86t12.5 -52h4q0 12 12.5 52t26.5 86t28.5 87t18.5 54l307 854h162l307 -854q4 -13 18.5 -54t29 -87t26.5 -86t12 -52h4q2 12 13.5 52t26 86t27.5 87t17 54
l293 854h207l-506 -1438h-156l-331 897q-4 12 -15.5 45t-22.5 71t-21.5 71.5t-10.5 45.5h-4q0 -12 -10.5 -45.5t-22.5 -71.5t-23.5 -71t-15.5 -45l-329 -897h-156z" />
    <glyph glyph-name="Wdieresis" unicode="&#x1e84;" horiz-adv-x="2140" 
d="M887 1559q-47 0 -79 32t-32 79t32 77.5t79 30.5q49 0 80.5 -30.5t31.5 -77.5t-31.5 -79t-80.5 -32zM1251 1559q-49 0 -80.5 32t-31.5 79t31.5 77.5t80.5 30.5q47 0 79 -30.5t32 -77.5t-32 -79t-79 -32zM4 1438h215l295 -854q4 -13 17.5 -54t26.5 -87t25.5 -86t12.5 -52h4
q0 12 12.5 52t26.5 86t28.5 87t18.5 54l307 854h162l307 -854q4 -13 18.5 -54t29 -87t26.5 -86t12 -52h4q2 12 13.5 52t26 86t27.5 87t17 54l293 854h207l-506 -1438h-156l-331 897q-4 12 -15.5 45t-22.5 71t-21.5 71.5t-10.5 45.5h-4q0 -12 -10.5 -45.5t-22.5 -71.5
t-23.5 -71t-15.5 -45l-329 -897h-156z" />
    <glyph glyph-name="Wgrave" unicode="&#x1e80;" horiz-adv-x="2140" 
d="M4 1438h215l295 -854q4 -13 17.5 -54t26.5 -87t25.5 -86t12.5 -52h4q0 12 12.5 52t26.5 86t28.5 87t18.5 54l307 854h162l307 -854q4 -13 18.5 -54t29 -87t26.5 -86t12 -52h4q2 12 13.5 52t26 86t27.5 87t17 54l293 854h207l-506 -1438h-156l-331 897q-4 12 -15.5 45
t-22.5 71t-21.5 71.5t-10.5 45.5h-4q0 -12 -10.5 -45.5t-22.5 -71.5t-23.5 -71t-15.5 -45l-329 -897h-156zM860 1801l125 104l225 -311l-90 -74z" />
    <glyph glyph-name="Ycircumflex" unicode="&#x176;" horiz-adv-x="1182" 
d="M485 586l-489 852h227l266 -480q4 -8 20.5 -37.5t34 -63.5t32 -64.5t16.5 -38.5h2q2 8 16.5 38.5t31.5 64.5t33.5 63.5t20.5 37.5l269 480h221l-490 -852v-586h-211v586zM273 1596l317 311l318 -311l-72 -78l-246 193l-246 -193z" />
    <glyph glyph-name="Ygrave" unicode="&#x1ef2;" horiz-adv-x="1182" 
d="M485 586l-489 852h227l266 -480q4 -8 20.5 -37.5t34 -63.5t32 -64.5t16.5 -38.5h2q2 8 16.5 38.5t31.5 64.5t33.5 63.5t20.5 37.5l269 480h221l-490 -852v-586h-211v586zM381 1801l125 104l225 -311l-90 -74z" />
    <glyph glyph-name="Zacute" unicode="&#x179;" horiz-adv-x="1176" 
d="M457 1594l226 311l125 -104l-260 -281zM33 0v4l772 1260h-682v174h1016v-4l-773 -1260h756v-174h-1089z" />
    <glyph glyph-name="Zdotaccent" unicode="&#x17b;" horiz-adv-x="1176" 
d="M33 0v4l772 1260h-682v174h1016v-4l-773 -1260h756v-174h-1089zM595 1567q-51 0 -83.5 33t-32.5 82t32.5 82t83.5 33q52 0 84.5 -33t32.5 -82t-32.5 -82t-84.5 -33z" />
    <glyph glyph-name="amacron" unicode="&#x101;" horiz-adv-x="1296" 
d="M584 -25q-131 0 -227.5 47.5t-159 124t-93 172t-30.5 191.5q0 104 34.5 199.5t100 168t160 115.5t215.5 43q135 0 227 -56t145 -142h4v174h185v-1012h-185v174h-4q-53 -86 -145 -142.5t-227 -56.5zM610 137q76 0 139.5 29t108.5 78t69.5 116.5t24.5 145.5
q0 76 -24.5 143.5t-68.5 117.5t-107.5 78.5t-141.5 28.5t-140.5 -28.5t-106.5 -77.5t-68.5 -116.5t-24.5 -145.5t24.5 -145.5t70 -116.5t107.5 -78t138 -29zM326 1294h563v-139h-563v139z" />
    <glyph glyph-name="abreve" unicode="&#x103;" horiz-adv-x="1296" 
d="M584 -25q-131 0 -227.5 47.5t-159 124t-93 172t-30.5 191.5q0 104 34.5 199.5t100 168t160 115.5t215.5 43q135 0 227 -56t145 -142h4v174h185v-1012h-185v174h-4q-53 -86 -145 -142.5t-227 -56.5zM610 137q76 0 139.5 29t108.5 78t69.5 116.5t24.5 145.5
q0 76 -24.5 143.5t-68.5 117.5t-107.5 78.5t-141.5 28.5t-140.5 -28.5t-106.5 -77.5t-68.5 -116.5t-24.5 -145.5t24.5 -145.5t70 -116.5t107.5 -78t138 -29zM609 1120q-64 0 -117 19.5t-93 55.5t-62.5 87t-22.5 115h131q0 -72 48 -111t116 -39q67 0 115 39t48 111h131
q0 -64 -22.5 -115t-62 -87t-93 -55.5t-116.5 -19.5z" />
    <glyph glyph-name="aogonek" unicode="&#x105;" horiz-adv-x="1296" 
d="M1073 -422q-96 0 -164.5 45t-68.5 135q0 43 15 80t39.5 68t54.5 54.5t59 39.5h-48v174h-4q-53 -86 -145 -142.5t-227 -56.5q-131 0 -227.5 47.5t-159 124t-93 172t-30.5 191.5q0 104 34.5 199.5t100 168t160 115.5t215.5 43q135 0 227 -56t145 -142h4v174h185v-1012
q-66 -43 -112 -92t-46 -107q0 -47 36 -69.5t95 -22.5q29 0 57.5 5t51.5 18v-123q-27 -12 -67 -21.5t-87 -9.5zM610 137q76 0 139.5 29t108.5 78t69.5 116.5t24.5 145.5q0 76 -24.5 143.5t-68.5 117.5t-107.5 78.5t-141.5 28.5t-140.5 -28.5t-106.5 -77.5t-68.5 -116.5
t-24.5 -145.5t24.5 -145.5t70 -116.5t107.5 -78t138 -29z" />
    <glyph glyph-name="cacute" unicode="&#x107;" horiz-adv-x="942" 
d="M435 1196l226 311l125 -104l-260 -281zM612 -25q-131 0 -231.5 46.5t-169 120t-103 169t-34.5 193.5t34.5 194.5t103 171t170 120.5t232.5 46q76 0 138.5 -14t99.5 -37v-184q-39 30 -98.5 49.5t-131.5 19.5q-75 0 -139.5 -26.5t-113 -74.5t-75 -114.5t-26.5 -148.5
q0 -80 26.5 -146.5t74 -115.5t113 -76t143.5 -27q71 0 130.5 19.5t102.5 54.5v-184q-41 -23 -104.5 -39.5t-141.5 -16.5z" />
    <glyph glyph-name="ccaron" unicode="&#x10d;" horiz-adv-x="942" 
d="M256 1431l71 78l246 -192l246 192l72 -78l-318 -311zM612 -25q-131 0 -231.5 46.5t-169 120t-103 169t-34.5 193.5t34.5 194.5t103 171t170 120.5t232.5 46q76 0 138.5 -14t99.5 -37v-184q-39 30 -98.5 49.5t-131.5 19.5q-75 0 -139.5 -26.5t-113 -74.5t-75 -114.5
t-26.5 -148.5q0 -80 26.5 -146.5t74 -115.5t113 -76t143.5 -27q71 0 130.5 19.5t102.5 54.5v-184q-41 -23 -104.5 -39.5t-141.5 -16.5z" />
    <glyph glyph-name="ccircumflex" unicode="&#x109;" horiz-adv-x="942" 
d="M256 1198l317 311l318 -311l-72 -78l-246 193l-246 -193zM612 -25q-131 0 -231.5 46.5t-169 120t-103 169t-34.5 193.5t34.5 194.5t103 171t170 120.5t232.5 46q76 0 138.5 -14t99.5 -37v-184q-39 30 -98.5 49.5t-131.5 19.5q-75 0 -139.5 -26.5t-113 -74.5t-75 -114.5
t-26.5 -148.5q0 -80 26.5 -146.5t74 -115.5t113 -76t143.5 -27q71 0 130.5 19.5t102.5 54.5v-184q-41 -23 -104.5 -39.5t-141.5 -16.5z" />
    <glyph glyph-name="cdotaccent" unicode="&#x10b;" horiz-adv-x="942" 
d="M612 -25q-131 0 -231.5 46.5t-169 120t-103 169t-34.5 193.5t34.5 194.5t103 171t170 120.5t232.5 46q76 0 138.5 -14t99.5 -37v-184q-39 30 -98.5 49.5t-131.5 19.5q-75 0 -139.5 -26.5t-113 -74.5t-75 -114.5t-26.5 -148.5q0 -80 26.5 -146.5t74 -115.5t113 -76
t143.5 -27q71 0 130.5 19.5t102.5 54.5v-184q-41 -23 -104.5 -39.5t-141.5 -16.5zM573 1169q-51 0 -83.5 33t-32.5 82t32.5 82t83.5 33q52 0 84.5 -33t32.5 -82t-32.5 -82t-84.5 -33z" />
    <glyph glyph-name="dcaron" unicode="&#x10f;" horiz-adv-x="1317" 
d="M1233 1143l59 348h188l-133 -348h-114zM584 -25q-131 0 -227.5 47.5t-159 124t-93 172t-30.5 191.5q0 104 34.5 199.5t101 168t161 115.5t213.5 43q139 0 227 -57t135 -133h4v592h195v-1438h-185v174h-4q-53 -86 -145 -142.5t-227 -56.5zM610 137q76 0 139.5 29t108.5 78
t69.5 116.5t24.5 145.5q0 76 -24.5 143.5t-68.5 117.5t-107.5 78.5t-141.5 28.5t-140.5 -28.5t-106.5 -77.5t-68.5 -116.5t-24.5 -145.5t24.5 -145.5t70 -116.5t107.5 -78t138 -29z" />
    <glyph glyph-name="dcroat" unicode="&#x111;" horiz-adv-x="1296" 
d="M690 1282h260v156h195v-156h135v-129h-135v-1153h-185v174h-4q-53 -86 -145 -142.5t-227 -56.5q-131 0 -227.5 47.5t-159 124t-93 172t-30.5 191.5q0 104 34.5 199.5t101 168t161 115.5t213.5 43q139 0 227 -57t135 -133h4v307h-260v129zM610 137q76 0 139.5 29t108.5 78
t69.5 116.5t24.5 145.5q0 76 -24.5 143.5t-68.5 117.5t-107.5 78.5t-141.5 28.5t-140.5 -28.5t-106.5 -77.5t-68.5 -116.5t-24.5 -145.5t24.5 -145.5t70 -116.5t107.5 -78t138 -29z" />
    <glyph glyph-name="ebreve" unicode="&#x115;" 
d="M606 -25q-135 0 -235.5 46.5t-166 122t-98 170t-32.5 192.5q0 92 28.5 186t91 171t161 125t235.5 48t233 -47t157.5 -122.5t89.5 -168t28 -182.5v-20.5t-2 -26.5h-832q2 -74 27.5 -136.5t72 -106.5t111 -69.5t141.5 -25.5q111 0 193 49t129 135l139 -88
q-74 -129 -197.5 -190.5t-273.5 -61.5zM907 608q-22 129 -109 205t-208 76q-127 0 -212 -78t-108 -203h637zM592 1120q-64 0 -117 19.5t-93 55.5t-62.5 87t-22.5 115h131q0 -72 48 -111t116 -39q67 0 115 39t48 111h131q0 -64 -22.5 -115t-62 -87t-93 -55.5t-116.5 -19.5z
" />
    <glyph glyph-name="ecaron" unicode="&#x11b;" 
d="M273 1423l71 78l246 -192l246 192l72 -78l-318 -311zM606 -25q-135 0 -235.5 46.5t-166 122t-98 170t-32.5 192.5q0 92 28.5 186t91 171t161 125t235.5 48t233 -47t157.5 -122.5t89.5 -168t28 -182.5v-20.5t-2 -26.5h-832q2 -74 27.5 -136.5t72 -106.5t111 -69.5
t141.5 -25.5q111 0 193 49t129 135l139 -88q-74 -129 -197.5 -190.5t-273.5 -61.5zM907 608q-22 129 -109 205t-208 76q-127 0 -212 -78t-108 -203h637z" />
    <glyph glyph-name="edotaccent" unicode="&#x117;" 
d="M606 -25q-135 0 -235.5 46.5t-166 122t-98 170t-32.5 192.5q0 92 28.5 186t91 171t161 125t235.5 48t233 -47t157.5 -122.5t89.5 -168t28 -182.5v-20.5t-2 -26.5h-832q2 -74 27.5 -136.5t72 -106.5t111 -69.5t141.5 -25.5q111 0 193 49t129 135l139 -88
q-74 -129 -197.5 -190.5t-273.5 -61.5zM907 608q-22 129 -109 205t-208 76q-127 0 -212 -78t-108 -203h637zM589 1161q-51 0 -83.5 33t-32.5 82t32.5 82t83.5 33q52 0 84.5 -33t32.5 -82t-32.5 -82t-84.5 -33z" />
    <glyph glyph-name="emacron" unicode="&#x113;" 
d="M606 -25q-135 0 -235.5 46.5t-166 122t-98 170t-32.5 192.5q0 92 28.5 186t91 171t161 125t235.5 48t233 -47t157.5 -122.5t89.5 -168t28 -182.5v-20.5t-2 -26.5h-832q2 -74 27.5 -136.5t72 -106.5t111 -69.5t141.5 -25.5q111 0 193 49t129 135l139 -88
q-74 -129 -197.5 -190.5t-273.5 -61.5zM907 608q-22 129 -109 205t-208 76q-127 0 -212 -78t-108 -203h637zM310 1294h563v-139h-563v139z" />
    <glyph glyph-name="eogonek" unicode="&#x119;" 
d="M762 -420q-96 0 -164 45t-68 135q0 72 40 127.5t104 96.5q-27 -9 -72 -9q-133 0 -232.5 46.5t-165 122t-98 171t-32.5 193.5q0 90 28.5 184t91 171t161 125t235.5 48t233 -47t157.5 -122.5t89.5 -168t28 -182.5v-20.5t-2 -26.5h-832q2 -74 27.5 -136.5t73 -106.5
t112 -69.5t141.5 -25.5q117 0 195 51t125 133l139 -88q-18 -30 -37.5 -56t-42 -47.5t-51.5 -42t-68 -44.5q-32 -21 -68 -44.5t-64.5 -51t-48 -60.5t-19.5 -71q0 -99 133 -99q29 0 56.5 5t49.5 16v-121q-28 -14 -69 -22.5t-86 -8.5zM907 608q-22 129 -109 205t-208 76
q-127 0 -212 -78t-108 -203h637z" />
    <glyph glyph-name="gbreve" unicode="&#x11f;" horiz-adv-x="1286" 
d="M600 -406q-152 0 -272.5 45.5t-186.5 131.5l121 114q53 -69 138 -101t188 -32q67 0 130.5 16.5t113 54.5t79 98.5t29.5 150.5v102h-4q-51 -78 -140.5 -133t-226.5 -55q-123 0 -216 44t-155.5 117.5t-93 168t-30.5 194.5t31.5 195.5t94 169t155.5 117.5t216 44
q135 0 228.5 -56t146.5 -146h4v178h184v-916q0 -235 -135 -368.5t-399 -133.5zM606 150q74 0 136.5 27.5t107.5 75.5t69.5 114.5t24.5 144.5t-24.5 144.5t-69.5 114.5t-107.5 75.5t-136.5 27.5t-135 -27.5t-106.5 -75.5t-70 -114.5t-24.5 -144.5t24.5 -144.5t70 -114.5
t106.5 -75.5t135 -27.5zM607 1120q-64 0 -117 19.5t-93 55.5t-62.5 87t-22.5 115h131q0 -72 48 -111t116 -39q67 0 115 39t48 111h131q0 -64 -22.5 -115t-62 -87t-93 -55.5t-116.5 -19.5z" />
    <glyph glyph-name="gcircumflex" unicode="&#x11d;" horiz-adv-x="1286" 
d="M287 1190l317 311l318 -311l-72 -78l-246 193l-246 -193zM600 -406q-152 0 -272.5 45.5t-186.5 131.5l121 114q53 -69 138 -101t188 -32q67 0 130.5 16.5t113 54.5t79 98.5t29.5 150.5v102h-4q-51 -78 -140.5 -133t-226.5 -55q-123 0 -216 44t-155.5 117.5t-93 168
t-30.5 194.5t31.5 195.5t94 169t155.5 117.5t216 44q135 0 228.5 -56t146.5 -146h4v178h184v-916q0 -235 -135 -368.5t-399 -133.5zM606 150q74 0 136.5 27.5t107.5 75.5t69.5 114.5t24.5 144.5t-24.5 144.5t-69.5 114.5t-107.5 75.5t-136.5 27.5t-135 -27.5t-106.5 -75.5
t-70 -114.5t-24.5 -144.5t24.5 -144.5t70 -114.5t106.5 -75.5t135 -27.5z" />
    <glyph glyph-name="gcommaaccent" unicode="&#x123;" horiz-adv-x="1286" 
d="M600 -406q-152 0 -272.5 45.5t-186.5 131.5l121 114q53 -69 138 -101t188 -32q67 0 130.5 16.5t113 54.5t79 98.5t29.5 150.5v102h-4q-51 -78 -140.5 -133t-226.5 -55q-123 0 -216 44t-155.5 117.5t-93 168t-30.5 194.5t31.5 195.5t94 169t155.5 117.5t216 44
q135 0 228.5 -56t146.5 -146h4v178h184v-916q0 -235 -135 -368.5t-399 -133.5zM606 150q74 0 136.5 27.5t107.5 75.5t69.5 114.5t24.5 144.5t-24.5 144.5t-69.5 114.5t-107.5 75.5t-136.5 27.5t-135 -27.5t-106.5 -75.5t-70 -114.5t-24.5 -144.5t24.5 -144.5t70 -114.5
t106.5 -75.5t135 -27.5zM674 1427h119l-99 -299h-194z" />
    <glyph glyph-name="gdotaccent" unicode="&#x121;" horiz-adv-x="1286" 
d="M600 -406q-152 0 -272.5 45.5t-186.5 131.5l121 114q53 -69 138 -101t188 -32q67 0 130.5 16.5t113 54.5t79 98.5t29.5 150.5v102h-4q-51 -78 -140.5 -133t-226.5 -55q-123 0 -216 44t-155.5 117.5t-93 168t-30.5 194.5t31.5 195.5t94 169t155.5 117.5t216 44
q135 0 228.5 -56t146.5 -146h4v178h184v-916q0 -235 -135 -368.5t-399 -133.5zM606 150q74 0 136.5 27.5t107.5 75.5t69.5 114.5t24.5 144.5t-24.5 144.5t-69.5 114.5t-107.5 75.5t-136.5 27.5t-135 -27.5t-106.5 -75.5t-70 -114.5t-24.5 -144.5t24.5 -144.5t70 -114.5
t106.5 -75.5t135 -27.5zM606 1161q-51 0 -83.5 33t-32.5 82t32.5 82t83.5 33q52 0 84.5 -33t32.5 -82t-32.5 -82t-84.5 -33z" />
    <glyph glyph-name="hbar" unicode="&#x127;" horiz-adv-x="1188" 
d="M14 1282h137v156h193v-156h260v-129h-260v-276h4q47 65 121 112t197 47q184 0 286.5 -109.5t102.5 -310.5v-616h-195v582q0 143 -60.5 219t-183.5 76q-129 0 -200.5 -79t-71.5 -223v-575h-193v1153h-137v129z" />
    <glyph glyph-name="hcircumflex" unicode="&#x125;" horiz-adv-x="1188" 
d="M-68 1596l317 311l318 -311l-72 -78l-246 193l-246 -193zM152 1438h193v-561h4q47 65 121 112t197 47q184 0 286.5 -109.5t102.5 -310.5v-616h-195v582q0 143 -60.5 219t-183.5 76q-129 0 -200.5 -79t-71.5 -223v-575h-193v1438z" />
    <glyph glyph-name="ibreve" unicode="&#x12d;" horiz-adv-x="496" 
d="M152 1012h193v-1012h-193v1012zM251 1120q-64 0 -117 19.5t-93 55.5t-62.5 87t-22.5 115h131q0 -72 48 -111t116 -39q67 0 115 39t48 111h131q0 -64 -22.5 -115t-62 -87t-93 -55.5t-116.5 -19.5z" />
    <glyph glyph-name="imacron" unicode="&#x12b;" horiz-adv-x="496" 
d="M152 1012h193v-1012h-193v1012zM-32 1294h563v-139h-563v139z" />
    <glyph glyph-name="iogonek" unicode="&#x12f;" horiz-adv-x="496" 
d="M272 -422q-96 0 -164.5 45t-68.5 135q0 43 15.5 80t40 68t54 54.5t58.5 39.5h-56v1012h193v-1012q-66 -43 -112 -92t-46 -107q0 -47 36 -69.5t95 -22.5q29 0 57.5 5t51.5 18v-123q-27 -12 -67 -21.5t-87 -9.5zM248 1157q-54 0 -88.5 33t-34.5 86q0 51 34.5 85t88.5 34
q53 0 88 -34t35 -85q0 -53 -35 -86t-88 -33z" />
    <glyph glyph-name="itilde" unicode="&#x129;" horiz-adv-x="496" 
d="M152 1012h193v-1012h-193v1012zM-62 1159q0 105 48 167.5t124 62.5q43 0 80.5 -18.5t71.5 -40t63.5 -39t58.5 -17.5q35 0 51.5 30.5t16.5 86.5h112v-31q0 -105 -48 -167.5t-124 -62.5q-43 0 -80.5 17.5t-71.5 39t-63.5 40t-58.5 18.5q-35 0 -51.5 -30.5t-16.5 -86.5h-112
v31z" />
    <glyph glyph-name="dotlessj" unicode="&#x237;" horiz-adv-x="496" 
d="M92 -406q-74 0 -123 17v158q19 -7 39.5 -11t44.5 -4q51 0 74.5 34t23.5 93v1131h193v-1153q0 -117 -58.5 -191t-193.5 -74z" />
    <glyph glyph-name="ij" unicode="&#x133;" horiz-adv-x="991" 
d="M248 1157q-54 0 -88.5 33t-34.5 86q0 51 34.5 85t88.5 34q53 0 88 -34t35 -85q0 -53 -35 -86t-88 -33zM151 1012h193v-1012h-193v1012zM579 -406q-74 0 -123 17v158q19 -7 39.5 -11t44.5 -4q51 0 74.5 34t23.5 93v1131h193v-1153q0 -117 -58.5 -191t-193.5 -74zM735 1157
q-54 0 -88.5 33t-34.5 86q0 51 34.5 85t88.5 34q53 0 88 -34t35 -85q0 -53 -35 -86t-88 -33z" />
    <glyph glyph-name="jcircumflex" unicode="&#x135;" horiz-adv-x="496" 
d="M92 -406q-74 0 -123 17v158q19 -7 39.5 -11t44.5 -4q51 0 74.5 34t23.5 93v1131h193v-1153q0 -117 -58.5 -191t-193.5 -74zM-68 1190l317 311l318 -311l-72 -78l-246 193l-246 -193z" />
    <glyph glyph-name="kcommaaccent" unicode="&#x137;" horiz-adv-x="1049" 
d="M361 -414l98 299h195l-175 -299h-118zM152 1438h193v-852l434 426h236l-478 -463l512 -549h-241l-463 512v-512h-193v1438z" />
    <glyph glyph-name="lacute" unicode="&#x13a;" horiz-adv-x="496" 
d="M110 1594l226 311l125 -104l-260 -281zM152 1438h193v-1438h-193v1438z" />
    <glyph glyph-name="lcaron" unicode="&#x13e;" horiz-adv-x="510" 
d="M432 1143l59 348h188l-133 -348h-114zM152 1438h193v-1438h-193v1438z" />
    <glyph glyph-name="lcommaaccent" unicode="&#x13c;" horiz-adv-x="496" 
d="M65 -414l98 299h195l-175 -299h-118zM152 1438h193v-1438h-193v1438z" />
    <glyph glyph-name="ldot" unicode="&#x140;" horiz-adv-x="750" 
d="M152 1438h193v-1438h-193v1438zM616 579q-57 0 -94 38t-37 93q0 58 37 95t94 37q59 0 96 -37t37 -95q0 -55 -37 -93t-96 -38z" />
    <glyph glyph-name="nacute" unicode="&#x144;" horiz-adv-x="1188" 
d="M463 1188l226 311l125 -104l-260 -281zM152 1012h185v-135h4q45 65 122 112t199 47q189 0 291.5 -109.5t102.5 -310.5v-616h-195v582q0 143 -60.5 219t-183.5 76q-129 0 -200.5 -79t-71.5 -223v-575h-193v1012z" />
    <glyph glyph-name="ncaron" unicode="&#x148;" horiz-adv-x="1188" 
d="M283 1423l71 78l246 -192l246 192l72 -78l-318 -311zM152 1012h185v-135h4q45 65 122 112t199 47q189 0 291.5 -109.5t102.5 -310.5v-616h-195v582q0 143 -60.5 219t-183.5 76q-129 0 -200.5 -79t-71.5 -223v-575h-193v1012z" />
    <glyph glyph-name="ncommaaccent" unicode="&#x146;" horiz-adv-x="1188" 
d="M416 -414l98 299h195l-175 -299h-118zM152 1012h185v-135h4q45 65 122 112t199 47q189 0 291.5 -109.5t102.5 -310.5v-616h-195v582q0 143 -60.5 219t-183.5 76q-129 0 -200.5 -79t-71.5 -223v-575h-193v1012z" />
    <glyph glyph-name="obreve" unicode="&#x14f;" horiz-adv-x="1229" 
d="M614 -25q-133 0 -234.5 47.5t-169 122t-102 170t-34.5 191.5t34.5 191.5t102 170t169 121.5t234.5 47t234.5 -47t169 -121.5t102.5 -170t35 -191.5t-35 -191.5t-102.5 -170t-169 -122t-234.5 -47.5zM614 139q74 0 137.5 27t109.5 76t72.5 116.5t26.5 147.5t-26.5 147.5
t-72.5 116.5t-109.5 75.5t-137.5 26.5q-73 0 -136.5 -26.5t-110 -75.5t-73 -116.5t-26.5 -147.5t26.5 -147.5t73 -116.5t110 -76t136.5 -27zM613 1120q-64 0 -117 19.5t-93 55.5t-62.5 87t-22.5 115h131q0 -72 48 -111t116 -39q67 0 115 39t48 111h131q0 -64 -22.5 -115
t-62 -87t-93 -55.5t-116.5 -19.5z" />
    <glyph glyph-name="ohungarumlaut" unicode="&#x151;" horiz-adv-x="1229" 
d="M645 1452l-139 -338l-104 35l96 354zM924 1452l-139 -338l-105 35l96 354zM614 -25q-133 0 -234.5 47.5t-169 122t-102 170t-34.5 191.5t34.5 191.5t102 170t169 121.5t234.5 47t234.5 -47t169 -121.5t102.5 -170t35 -191.5t-35 -191.5t-102.5 -170t-169 -122
t-234.5 -47.5zM614 139q74 0 137.5 27t109.5 76t72.5 116.5t26.5 147.5t-26.5 147.5t-72.5 116.5t-109.5 75.5t-137.5 26.5q-73 0 -136.5 -26.5t-110 -75.5t-73 -116.5t-26.5 -147.5t26.5 -147.5t73 -116.5t110 -76t136.5 -27z" />
    <glyph glyph-name="omacron" unicode="&#x14d;" horiz-adv-x="1229" 
d="M332 1294h563v-139h-563v139zM614 -25q-133 0 -234.5 47.5t-169 122t-102 170t-34.5 191.5t34.5 191.5t102 170t169 121.5t234.5 47t234.5 -47t169 -121.5t102.5 -170t35 -191.5t-35 -191.5t-102.5 -170t-169 -122t-234.5 -47.5zM614 139q74 0 137.5 27t109.5 76
t72.5 116.5t26.5 147.5t-26.5 147.5t-72.5 116.5t-109.5 75.5t-137.5 26.5q-73 0 -136.5 -26.5t-110 -75.5t-73 -116.5t-26.5 -147.5t26.5 -147.5t73 -116.5t110 -76t136.5 -27z" />
    <glyph glyph-name="racute" unicode="&#x155;" horiz-adv-x="760" 
d="M332 1188l226 311l125 -104l-260 -281zM152 1012h185v-148h4q41 84 107.5 128t166.5 44q29 0 56.5 -4t52.5 -10v-182q-25 10 -59.5 16t-69.5 6q-123 0 -186.5 -86t-63.5 -239v-537h-193v1012z" />
    <glyph glyph-name="rcaron" unicode="&#x159;" horiz-adv-x="760" 
d="M135 1423l71 78l246 -192l246 192l72 -78l-318 -311zM152 1012h185v-148h4q41 84 107.5 128t166.5 44q29 0 56.5 -4t52.5 -10v-182q-25 10 -59.5 16t-69.5 6q-123 0 -186.5 -86t-63.5 -239v-537h-193v1012z" />
    <glyph glyph-name="rcommaaccent" unicode="&#x157;" horiz-adv-x="760" 
d="M65 -414l98 299h195l-175 -299h-118zM152 1012h185v-148h4q41 84 107.5 128t166.5 44q29 0 56.5 -4t52.5 -10v-182q-25 10 -59.5 16t-69.5 6q-123 0 -186.5 -86t-63.5 -239v-537h-193v1012z" />
    <glyph glyph-name="sacute" unicode="&#x15b;" horiz-adv-x="903" 
d="M322 1188l226 311l125 -104l-260 -281zM442 -25q-76 0 -138 16.5t-111.5 43t-86 61.5t-61.5 70l115 115q43 -56 110.5 -103t169.5 -47q86 0 144.5 38t58.5 112q0 41 -19.5 69.5t-53.5 50t-78 37t-91 31.5q-57 18 -109 42t-93 56.5t-66 77.5t-25 107q0 65 28 117.5t76 89
t113.5 57t143.5 20.5q125 0 210 -45t130 -102l-111 -119q-35 45 -91 78t-138 33q-76 0 -123 -32t-47 -87q0 -35 18.5 -59.5t48 -42t66.5 -31t74 -25.5q57 -18 115.5 -41.5t105.5 -58.5t76.5 -86t29.5 -125q0 -72 -28.5 -131.5t-80.5 -100.5t-124 -63.5t-158 -22.5z" />
    <glyph glyph-name="scedilla" unicode="&#x15f;" horiz-adv-x="903" 
d="M442 -25q-76 0 -138 16.5t-111.5 43t-86 61.5t-61.5 70l115 115q43 -56 110.5 -103t169.5 -47q86 0 144.5 38t58.5 112q0 41 -19.5 69.5t-53.5 50t-78 37t-91 31.5q-57 18 -109 42t-93 56.5t-66 77.5t-25 107q0 65 28 117.5t76 89t113.5 57t143.5 20.5q125 0 210 -45
t130 -102l-111 -119q-35 45 -91 78t-138 33q-76 0 -123 -32t-47 -87q0 -35 18.5 -59.5t48 -42t66.5 -31t74 -25.5q57 -18 115.5 -41.5t105.5 -58.5t76.5 -86t29.5 -125q0 -72 -28.5 -131.5t-80.5 -100.5t-124 -63.5t-158 -22.5zM279 -360q53 45 76.5 107.5t23.5 137.5h178
q0 -53 -17.5 -101t-47 -89t-68.5 -72t-82 -49z" />
    <glyph glyph-name="scircumflex" unicode="&#x15d;" horiz-adv-x="903" 
d="M144 1190l317 311l318 -311l-72 -78l-246 193l-246 -193zM442 -25q-76 0 -138 16.5t-111.5 43t-86 61.5t-61.5 70l115 115q43 -56 110.5 -103t169.5 -47q86 0 144.5 38t58.5 112q0 41 -19.5 69.5t-53.5 50t-78 37t-91 31.5q-57 18 -109 42t-93 56.5t-66 77.5t-25 107
q0 65 28 117.5t76 89t113.5 57t143.5 20.5q125 0 210 -45t130 -102l-111 -119q-35 45 -91 78t-138 33q-76 0 -123 -32t-47 -87q0 -35 18.5 -59.5t48 -42t66.5 -31t74 -25.5q57 -18 115.5 -41.5t105.5 -58.5t76.5 -86t29.5 -125q0 -72 -28.5 -131.5t-80.5 -100.5t-124 -63.5
t-158 -22.5z" />
    <glyph glyph-name="scommaaccent" unicode="&#x219;" horiz-adv-x="903" 
d="M275 -414l98 299h195l-175 -299h-118zM442 -25q-76 0 -138 16.5t-111.5 43t-86 61.5t-61.5 70l115 115q43 -56 110.5 -103t169.5 -47q86 0 144.5 38t58.5 112q0 41 -19.5 69.5t-53.5 50t-78 37t-91 31.5q-57 18 -109 42t-93 56.5t-66 77.5t-25 107q0 65 28 117.5t76 89
t113.5 57t143.5 20.5q125 0 210 -45t130 -102l-111 -119q-35 45 -91 78t-138 33q-76 0 -123 -32t-47 -87q0 -35 18.5 -59.5t48 -42t66.5 -31t74 -25.5q57 -18 115.5 -41.5t105.5 -58.5t76.5 -86t29.5 -125q0 -72 -28.5 -131.5t-80.5 -100.5t-124 -63.5t-158 -22.5z" />
    <glyph glyph-name="tbar" unicode="&#x167;" horiz-adv-x="684" 
d="M63 639h123v219h-143v154h143v274h195v-274h239v-154h-239v-219h194v-133h-194v-209q0 -82 28.5 -119t90.5 -37q71 0 108 19v-160q-26 -8 -63 -13t-86 -5q-144 0 -208.5 73.5t-64.5 220.5v230h-123v133z" />
    <glyph glyph-name="tcaron" unicode="&#x165;" horiz-adv-x="670" 
d="M469 1143l59 348h188l-133 -348h-114zM453 -18q-144 0 -208.5 73.5t-64.5 220.5v582h-143v154h143v274h195v-274h239v-154h-239v-561q0 -82 28.5 -119t89.5 -37q72 0 109 19v-160q-27 -8 -63.5 -13t-85.5 -5z" />
    <glyph glyph-name="tcommaaccent" unicode="&#x163;" horiz-adv-x="670" 
d="M217 -414l98 299h195l-175 -299h-118zM453 -18q-144 0 -208.5 73.5t-64.5 220.5v582h-143v154h143v274h195v-274h239v-154h-239v-561q0 -82 28.5 -119t89.5 -37q72 0 109 19v-160q-27 -8 -63.5 -13t-85.5 -5z" />
    <glyph glyph-name="uni021B" unicode="&#x21b;" horiz-adv-x="670" 
d="M217 -414l98 299h195l-175 -299h-118zM453 -18q-144 0 -208.5 73.5t-64.5 220.5v582h-143v154h143v274h195v-274h239v-154h-239v-561q0 -82 28.5 -119t89.5 -37q72 0 109 19v-160q-27 -8 -63.5 -13t-85.5 -5z" />
    <glyph glyph-name="ubreve" unicode="&#x16d;" 
d="M518 -25q-188 0 -286.5 111t-98.5 309v617h193v-582q0 -295 237 -295q127 0 194.5 79t67.5 222v576h195v-1012h-187v135h-4q-43 -65 -114.5 -112.5t-196.5 -47.5zM576 1120q-64 0 -117 19.5t-93 55.5t-62.5 87t-22.5 115h131q0 -72 48 -111t116 -39q67 0 115 39t48 111
h131q0 -64 -22.5 -115t-62 -87t-93 -55.5t-116.5 -19.5z" />
    <glyph glyph-name="uhungarumlaut" unicode="&#x171;" 
d="M518 -25q-188 0 -286.5 111t-98.5 309v617h193v-582q0 -295 237 -295q127 0 194.5 79t67.5 222v576h195v-1012h-187v135h-4q-43 -65 -114.5 -112.5t-196.5 -47.5zM608 1452l-139 -338l-104 35l96 354zM887 1452l-139 -338l-105 35l96 354z" />
    <glyph glyph-name="umacron" unicode="&#x16b;" 
d="M518 -25q-188 0 -286.5 111t-98.5 309v617h193v-582q0 -295 237 -295q127 0 194.5 79t67.5 222v576h195v-1012h-187v135h-4q-43 -65 -114.5 -112.5t-196.5 -47.5zM295 1294h563v-139h-563v139z" />
    <glyph glyph-name="uogonek" unicode="&#x173;" 
d="M948 -422q-96 0 -164.5 45t-68.5 135q0 43 15 80t40 68t54.5 54.5t58.5 39.5h-50v135h-4q-43 -65 -114.5 -112.5t-196.5 -47.5q-188 0 -286.5 111t-98.5 309v617h193v-582q0 -295 237 -295q127 0 194.5 79t67.5 222v576h195v-1012q-66 -43 -112 -92t-46 -107
q0 -47 36 -69.5t95 -22.5q29 0 57.5 5t51.5 18v-123q-27 -12 -67 -21.5t-87 -9.5z" />
    <glyph glyph-name="uring" unicode="&#x16f;" 
d="M575 1120q-51 0 -96 16.5t-78.5 47t-53 73.5t-19.5 95q0 51 19.5 94t53 73.5t78.5 47t96 16.5q52 0 97 -16.5t78.5 -47t53 -73.5t19.5 -94q0 -52 -19.5 -95t-53 -73.5t-78.5 -47t-97 -16.5zM575 1225q54 0 89.5 36.5t35.5 90.5q0 53 -35.5 90t-89.5 37q-53 0 -88.5 -37
t-35.5 -90q0 -54 35.5 -90.5t88.5 -36.5zM518 -25q-188 0 -286.5 111t-98.5 309v617h193v-582q0 -295 237 -295q127 0 194.5 79t67.5 222v576h195v-1012h-187v135h-4q-43 -65 -114.5 -112.5t-196.5 -47.5z" />
    <glyph glyph-name="utilde" unicode="&#x169;" 
d="M518 -25q-188 0 -286.5 111t-98.5 309v617h193v-582q0 -295 237 -295q127 0 194.5 79t67.5 222v576h195v-1012h-187v135h-4q-43 -65 -114.5 -112.5t-196.5 -47.5zM262 1159q0 105 48 167.5t124 62.5q43 0 80.5 -18.5t71.5 -40t63.5 -39t58.5 -17.5q35 0 51.5 30.5
t16.5 86.5h112v-31q0 -105 -48 -167.5t-124 -62.5q-43 0 -80.5 17.5t-71.5 39t-63.5 40t-58.5 18.5q-35 0 -51.5 -30.5t-16.5 -86.5h-112v31z" />
    <glyph glyph-name="wacute" unicode="&#x1e83;" horiz-adv-x="1604" 
d="M662 1188l226 311l125 -104l-260 -281zM14 1012h201l192 -582q5 -12 13 -41t17 -60.5t16.5 -60t9.5 -37.5h4q0 9 8 37.5t17.5 60t17.5 59.5t12 38l197 586h168l198 -586q4 -14 13.5 -43t18.5 -59.5t16.5 -57t7.5 -35.5h4q0 9 7 35.5t16.5 58t17.5 60.5t14 45l193 582h196
l-360 -1012h-168l-205 594q-6 18 -15.5 47t-17.5 58.5t-14 53t-6 31.5h-4q0 -8 -6.5 -31.5t-13.5 -52t-16 -58.5t-16 -48l-204 -594h-170z" />
    <glyph glyph-name="wcircumflex" unicode="&#x175;" horiz-adv-x="1604" 
d="M482 1190l317 311l318 -311l-72 -78l-246 193l-246 -193zM14 1012h201l192 -582q5 -12 13 -41t17 -60.5t16.5 -60t9.5 -37.5h4q0 9 8 37.5t17.5 60t17.5 59.5t12 38l197 586h168l198 -586q4 -14 13.5 -43t18.5 -59.5t16.5 -57t7.5 -35.5h4q0 9 7 35.5t16.5 58t17.5 60.5
t14 45l193 582h196l-360 -1012h-168l-205 594q-6 18 -15.5 47t-17.5 58.5t-14 53t-6 31.5h-4q0 -8 -6.5 -31.5t-13.5 -52t-16 -58.5t-16 -48l-204 -594h-170z" />
    <glyph glyph-name="wdieresis" unicode="&#x1e85;" horiz-adv-x="1604" 
d="M619 1153q-47 0 -79 32t-32 79t32 77.5t79 30.5q49 0 80.5 -30.5t31.5 -77.5t-31.5 -79t-80.5 -32zM983 1153q-49 0 -80.5 32t-31.5 79t31.5 77.5t80.5 30.5q47 0 79 -30.5t32 -77.5t-32 -79t-79 -32zM14 1012h201l192 -582q5 -12 13 -41t17 -60.5t16.5 -60t9.5 -37.5h4
q0 9 8 37.5t17.5 60t17.5 59.5t12 38l197 586h168l198 -586q4 -14 13.5 -43t18.5 -59.5t16.5 -57t7.5 -35.5h4q0 9 7 35.5t16.5 58t17.5 60.5t14 45l193 582h196l-360 -1012h-168l-205 594q-6 18 -15.5 47t-17.5 58.5t-14 53t-6 31.5h-4q0 -8 -6.5 -31.5t-13.5 -52
t-16 -58.5t-16 -48l-204 -594h-170z" />
    <glyph glyph-name="wgrave" unicode="&#x1e81;" horiz-adv-x="1604" 
d="M14 1012h201l192 -582q5 -12 13 -41t17 -60.5t16.5 -60t9.5 -37.5h4q0 9 8 37.5t17.5 60t17.5 59.5t12 38l197 586h168l198 -586q4 -14 13.5 -43t18.5 -59.5t16.5 -57t7.5 -35.5h4q0 9 7 35.5t16.5 58t17.5 60.5t14 45l193 582h196l-360 -1012h-168l-205 594
q-6 18 -15.5 47t-17.5 58.5t-14 53t-6 31.5h-4q0 -8 -6.5 -31.5t-13.5 -52t-16 -58.5t-16 -48l-204 -594h-170zM590 1395l125 104l225 -311l-90 -74z" />
    <glyph glyph-name="ycircumflex" unicode="&#x177;" horiz-adv-x="1001" 
d="M174 -406q-82 0 -139 25v162q49 -27 119 -27q65 0 107 34t73 106l65 153l-411 965h209l235 -594q33 -80 50.5 -128t19.5 -61h4q2 9 9 31.5t17.5 50t21.5 56t19 51.5l236 594h205l-488 -1137q-24 -57 -52 -108.5t-68 -89t-95 -60.5t-137 -23zM185 1190l317 311l318 -311
l-72 -78l-246 193l-246 -193z" />
    <glyph glyph-name="ygrave" unicode="&#x1ef3;" horiz-adv-x="1001" 
d="M174 -406q-82 0 -139 25v162q49 -27 119 -27q65 0 107 34t73 106l65 153l-411 965h209l235 -594q33 -80 50.5 -128t19.5 -61h4q2 9 9 31.5t17.5 50t21.5 56t19 51.5l236 594h205l-488 -1137q-24 -57 -52 -108.5t-68 -89t-95 -60.5t-137 -23zM293 1395l125 104l225 -311
l-90 -74z" />
    <glyph glyph-name="zacute" unicode="&#x17a;" horiz-adv-x="1034" 
d="M373 1188l226 311l125 -104l-260 -281zM45 6l594 852h-557v154h870v-8l-589 -850h587v-154h-905v6z" />
    <glyph glyph-name="zdotaccent" unicode="&#x17c;" horiz-adv-x="1034" 
d="M45 6l594 852h-557v154h870v-8l-589 -850h587v-154h-905v6zM512 1161q-51 0 -83.5 33t-32.5 82t32.5 82t83.5 33q52 0 84.5 -33t32.5 -82t-32.5 -82t-84.5 -33z" />
    <glyph glyph-name="zero.tnum" horiz-adv-x="1198" 
d="M601 -27q-137 0 -234 61.5t-158.5 165t-89.5 237.5t-28 282q0 145 29 279.5t90.5 237.5t157.5 165.5t233 62.5q138 0 235 -61.5t158.5 -164.5t89 -237.5t27.5 -281.5q0 -146 -28.5 -280t-90 -237.5t-157.5 -166t-234 -62.5zM601 147q86 0 144.5 46.5t94.5 125t51 182
t15 218.5t-15 218t-51 182t-94.5 125t-144.5 46t-144 -46t-94 -125t-51.5 -182t-15.5 -218t15.5 -218.5t51.5 -182t94 -125t144 -46.5z" />
    <glyph glyph-name="one.tnum" horiz-adv-x="1198" 
d="M211 172h311v1092h-301l47 174h457v-1266h313v-172h-827v172z" />
    <glyph glyph-name="two.tnum" horiz-adv-x="1198" 
d="M61 6l551 615q47 53 88 104t71.5 102.5t48 102.5t17.5 106q0 115 -74.5 183.5t-197.5 68.5t-198 -71.5t-75 -210.5v-9h-196q0 105 32.5 191t94 147.5t150.5 96t202 34.5q100 0 186 -28.5t148.5 -81.5t97.5 -131t35 -176q0 -142 -70.5 -259.5t-187.5 -244.5l-342 -375h649
v-170h-1030v6z" />
    <glyph glyph-name="three.tnum" horiz-adv-x="1198" 
d="M563 -29q-223 0 -350 118t-129 323h196q2 -56 19.5 -106t52.5 -87t87 -58.5t122 -21.5q129 0 211 72t82 203q0 121 -77 198.5t-236 77.5h-62v154h84q53 0 100.5 14t83 44t56 73t20.5 100q0 107 -68.5 166t-179.5 59q-51 0 -95 -13t-76.5 -41.5t-52 -72t-19.5 -102.5h-197
q2 88 34 162t90 125t140 79.5t185 28.5q98 0 179 -26.5t138 -75.5t89 -119.5t32 -159.5q0 -127 -61.5 -202.5t-163.5 -112.5v-2q122 -41 192 -137t70 -232q0 -96 -36 -175t-101.5 -135t-156.5 -87t-202 -31z" />
    <glyph glyph-name="four.tnum" horiz-adv-x="1198" 
d="M724 338h-682v102l692 998h189v-932h180v-168h-180v-338h-199v338zM724 506v627l-436 -627h436z" />
    <glyph glyph-name="five.tnum" horiz-adv-x="1198" 
d="M565 -31q-98 0 -186 28t-154.5 84t-106.5 143t-40 204h196q0 -131 73 -210t206 -79q145 0 222 92.5t77 233.5q0 149 -86 235t-258 86q-92 0 -167 -20.5t-114 -40.5l-22 18l135 695h657v-170h-508l-67 -350q37 14 81 19t83 5q100 0 186 -30.5t149.5 -91t99.5 -148.5
t36 -203q0 -102 -31 -193.5t-92.5 -159t-153.5 -107.5t-215 -40z" />
    <glyph glyph-name="six.tnum" horiz-adv-x="1198" 
d="M591 -29q-116 0 -211.5 39t-161 105.5t-101.5 155.5t-36 188q0 110 39 204.5t88 165.5l420 609h242l-389 -543q20 14 60 30.5t110 16.5q92 0 174 -36t143.5 -99.5t97 -151.5t35.5 -192q0 -103 -35.5 -192t-101.5 -155.5t-161 -105.5t-212 -39zM591 139q74 0 132.5 25.5
t98.5 70t61.5 103.5t21.5 125q0 65 -21.5 124.5t-61.5 103.5t-98.5 69.5t-132.5 25.5q-73 0 -131.5 -25.5t-98.5 -69.5t-61.5 -103.5t-21.5 -124.5q0 -66 21.5 -125t61.5 -103.5t98.5 -70t131.5 -25.5z" />
    <glyph glyph-name="seven.tnum" horiz-adv-x="1198" 
d="M839 1268h-717v170h1029v-4l-809 -1434h-232z" />
    <glyph glyph-name="eight.tnum" horiz-adv-x="1198" 
d="M599 -20q-111 0 -201 31.5t-153.5 88t-98.5 133t-35 168.5q0 142 75 236t190 135v4q-92 41 -148.5 120t-56.5 191q0 82 29.5 150t86 117t135.5 75.5t177 26.5t177 -26.5t135.5 -75.5t86 -117t29.5 -150q0 -112 -56.5 -191t-148.5 -120v-4q115 -41 189.5 -135t74.5 -236
q0 -92 -34.5 -168.5t-98 -133t-153.5 -88t-201 -31.5zM599 139q129 0 210 77t81 200q0 61 -21.5 112.5t-60.5 87t-92.5 56t-116.5 20.5q-64 0 -117 -20.5t-92 -56t-60.5 -87t-21.5 -112.5q0 -123 81 -200t210 -77zM599 848q106 0 173 63.5t67 161.5t-67 161.5t-173 63.5
q-107 0 -173.5 -63.5t-66.5 -161.5t66.5 -161.5t173.5 -63.5z" />
    <glyph glyph-name="nine.tnum" horiz-adv-x="1198" 
d="M713 543q-21 -15 -60.5 -31t-109.5 -16q-92 0 -174 35.5t-143.5 99t-97.5 151.5t-36 193q0 100 36 190t101.5 157t161 105.5t211.5 38.5q117 0 212 -38.5t161 -105.5t101.5 -156t35.5 -187q0 -111 -39 -205t-88 -166l-420 -608h-241zM602 651q74 0 132.5 25.5t98.5 70
t61.5 103.5t21.5 125q0 65 -21.5 124.5t-61.5 103.5t-98.5 69.5t-132.5 25.5q-73 0 -131.5 -25.5t-98.5 -69.5t-61.5 -103.5t-21.5 -124.5q0 -66 21.5 -125t61.5 -103.5t98.5 -70t131.5 -25.5z" />
    <glyph glyph-name="Q.alt01" horiz-adv-x="1663" 
d="M1329 -334q-358 0 -551 307q-162 11 -292 73.5t-221 163.5t-140 232t-49 277q0 151 53 286.5t151.5 238t237.5 162.5t313 60t313.5 -60t238 -162.5t151.5 -238t53 -286.5q0 -133 -42 -255t-120 -220.5t-188.5 -166t-249.5 -91.5q59 -70 137 -107t185 -37q57 0 109 11.5
t95 40.5v-199q-43 -17 -88 -23t-96 -6zM829 154q119 0 219.5 41t174 115.5t114.5 179t41 229.5t-41 229.5t-114.5 179t-174 115.5t-219.5 41q-116 0 -216.5 -41t-174.5 -115.5t-114.5 -179t-40.5 -229.5t40.5 -229.5t114.5 -179t174.5 -115.5t216.5 -41z" />
    <glyph glyph-name="uni2074" unicode="&#x2074;" horiz-adv-x="831" 
d="M469 778h-416v86l397 574h168v-539h101v-121h-101v-198h-149v198zM469 899v369l-252 -369h252z" />
    <glyph glyph-name="Eth" unicode="&#xd0;" horiz-adv-x="1430" 
d="M14 840h170v598h408q172 0 312 -48.5t240.5 -140.5t155 -225t54.5 -305q0 -170 -55.5 -304t-155 -226.5t-239.5 -140.5t-312 -48h-408v682h-170v158zM387 840h338v-158h-338v-508h188q125 0 230.5 34t180.5 101.5t117 170t42 239.5t-42 239.5t-117 170t-180.5 101.5
t-230.5 34h-188v-424z" />
    <glyph glyph-name="eth" unicode="&#xf0;" horiz-adv-x="1227" 
d="M364 1169l132 99l-82 104l147 109l80 -105l131 99l78 -95l-135 -100l299 -387q65 -86 102 -181.5t37 -203.5q0 -107 -38 -203t-107.5 -170t-169 -117t-224.5 -43q-127 0 -226 44t-170 118t-107.5 170t-36.5 201q0 100 34.5 193.5t99 165t158 114.5t209.5 43q47 0 84 -8
t66 -31l-152 189l-131 -99zM614 139q74 0 137.5 27t109.5 76t72.5 116.5t26.5 147.5t-26.5 147.5t-72.5 116.5t-109.5 75.5t-137.5 26.5q-73 0 -136.5 -26.5t-110 -75.5t-73 -116.5t-26.5 -147.5t26.5 -147.5t73 -116.5t110 -76t136.5 -27z" />
    <glyph glyph-name="bbox" horiz-adv-x="80" 
d="M25 2056h30v-2515h-30v2515z" />
    </font>
</defs>
</svg>
